<svg xmlns="http://www.w3.org/2000/svg" width="56.876" height="56.876" viewBox="0 0 56.876 56.876">
  <g id="Grupo_53599" data-name="Grupo 53599" transform="translate(-532.582 -690.008)">
    <g id="Grupo_53598" data-name="Grupo 53598">
      <g id="Grupo_53597" data-name="Grupo 53597">
        <path id="Trazado_103366" data-name="Trazado 103366" d="M579.958,738.366V721.8a4.1,4.1,0,0,0,1.008-.729,4.179,4.179,0,0,0-1.007-6.65V697.861a4.165,4.165,0,0,0-1.949-7.853H544.03a4.165,4.165,0,0,0-1.949,7.853V714.42a4.059,4.059,0,0,0-1.019.745,4.212,4.212,0,0,0-1.212,2.947,4.157,4.157,0,0,0,2.231,3.708v16.548a4.165,4.165,0,0,0,1.949,7.852h33.98a4.155,4.155,0,0,0,1.948-7.854Zm-35.928,2.956h33.979a.719.719,0,1,1,0,1.438H544.03a.719.719,0,0,1,0-1.438Zm-.061-22.5a.725.725,0,0,1-.658-.708.749.749,0,0,1,.215-.522.643.643,0,0,1,.374-.191c.04,0,.08,0,.119-.01h.016l4.6,0c-.006.1,0,.206,0,.309-.005.136-.021.268-.021.405s.016.269.021.4c0,.106-.006.212,0,.317h-4.572c-.01,0-.02,0-.031,0S543.988,718.826,543.969,718.825ZM576.5,698.367v15.565h-3.8c-.03-.085-.073-.164-.106-.249q-.156-.406-.339-.8c-.079-.171-.158-.341-.244-.507-.111-.21-.232-.414-.354-.617s-.223-.387-.347-.572c-.04-.058-.086-.112-.126-.169a12.165,12.165,0,0,0-1.208-1.469c-.078-.082-.152-.168-.233-.248-.2-.2-.411-.384-.624-.567-.123-.107-.246-.212-.373-.313-.2-.158-.4-.309-.607-.455-.177-.124-.358-.24-.542-.355s-.349-.223-.532-.324c-.328-.184-.667-.352-1.013-.506-.051-.023-.1-.051-.152-.073a12.321,12.321,0,0,0-1.343-.483l-.037-.013c-.077-.023-.155-.035-.232-.056-.3-.082-.6-.161-.91-.22-.123-.024-.245-.037-.368-.057-.273-.044-.546-.089-.826-.115-.172-.017-.343-.017-.514-.026-.216-.012-.43-.033-.649-.033-.019,0-.037,0-.057,0-.074,0-.147.009-.221.011a12.322,12.322,0,0,0-4.3.872l-.019.007c-.32.129-.632.273-.939.427-.045.023-.092.043-.136.066-.269.138-.528.29-.784.447-.086.052-.172.1-.256.156-.214.138-.421.286-.625.437-.122.089-.244.177-.363.271-.164.131-.322.268-.479.406s-.3.261-.437.4c-.125.12-.244.244-.363.369-.158.167-.314.336-.464.511-.1.117-.193.236-.288.356-.151.191-.3.385-.438.585-.088.126-.171.254-.254.383-.128.2-.252.4-.369.607-.086.151-.166.3-.245.46-.1.191-.192.383-.28.58s-.159.373-.233.562c-.04.1-.089.2-.126.306h-3.8v-15.56Zm-15.64,28.68c-.221,0-.442-.014-.66-.033-.077-.007-.153-.017-.23-.026-.217-.026-.432-.058-.644-.1-.083-.016-.164-.034-.246-.052-.2-.045-.4-.095-.593-.153-.093-.028-.186-.058-.278-.089q-.268-.088-.53-.194-.153-.063-.306-.132c-.161-.072-.32-.148-.475-.229q-.156-.082-.309-.171c-.154-.089-.307-.18-.456-.277-.085-.056-.168-.115-.251-.173-.165-.116-.327-.235-.483-.362-.052-.041-.1-.085-.153-.128-.178-.151-.352-.307-.518-.471l-.072-.075c-.181-.183-.354-.372-.519-.57l-.041-.051c-.165-.2-.322-.411-.469-.627-.02-.03-.039-.061-.059-.092-.133-.2-.259-.405-.375-.616-.037-.068-.071-.137-.106-.205-.092-.176-.179-.355-.259-.537-.051-.117-.1-.237-.141-.356-.055-.142-.11-.284-.158-.429s-.093-.314-.136-.472c-.031-.115-.063-.229-.089-.346-.06-.264-.1-.533-.141-.8-.007-.059-.02-.116-.026-.175a8.929,8.929,0,0,1,0-1.975c.011-.1.031-.2.045-.3.032-.221.067-.441.116-.659.019-.088.044-.173.066-.259a9.11,9.11,0,0,1,.276-.89c.033-.089.063-.179.1-.267a8.734,8.734,0,0,1,.44-.933c.072-.133.156-.259.235-.387.1-.162.2-.321.31-.475s.225-.313.346-.463c.087-.107.18-.208.272-.312a8.966,8.966,0,0,1,.755-.755c.105-.093.208-.189.317-.277.148-.119.3-.231.457-.341s.324-.219.491-.321c.123-.076.243-.155.37-.225a8.932,8.932,0,0,1,.948-.446c.078-.032.159-.058.238-.088a9.243,9.243,0,0,1,.933-.289c.068-.017.136-.037.205-.053.184-.041.369-.072.553-.1.115-.019.23-.039.346-.053.154-.019.308-.029.463-.04s.31-.021.467-.023c.123,0,.246,0,.368,0,.188.005.374.013.559.029.1.009.2.022.3.034.2.025.4.054.589.091.092.017.184.038.275.058.2.045.39.094.581.151.09.026.178.055.267.085.188.062.374.13.556.2.088.036.174.074.26.112.181.081.36.166.535.259.078.041.155.085.233.128.184.1.365.213.541.33.052.034.1.071.154.106.2.139.4.282.583.436l.046.039a9.035,9.035,0,0,1,2.138,2.594c.014.026.027.052.04.078.115.214.221.434.318.658.036.084.068.17.1.255.069.172.134.345.192.522.044.134.08.271.118.408s.076.277.108.418c.05.227.088.456.12.687.013.089.031.176.041.266a8.963,8.963,0,0,1,0,1.965c-.009.083-.026.164-.038.246-.033.24-.072.48-.125.716-.019.088-.044.173-.067.259a8.8,8.8,0,0,1-.271.875c-.035.095-.067.192-.1.285a8.909,8.909,0,0,1-.431.916c-.081.149-.175.291-.264.435s-.177.28-.272.416c-.12.171-.244.34-.376.5-.063.077-.131.15-.2.225a8.924,8.924,0,0,1-.892.89c-.072.063-.143.129-.218.19-.164.134-.336.26-.51.382-.129.09-.262.176-.4.259-.15.094-.3.191-.454.276a8.836,8.836,0,0,1-.9.424c-.1.042-.209.077-.313.115-.271.1-.548.185-.831.258-.1.026-.2.054-.3.076-.144.032-.288.055-.431.08s-.312.054-.47.072c-.115.014-.23.02-.345.029-.2.015-.391.028-.59.03C561.029,727.051,560.944,727.048,560.858,727.047Zm17.217-9.646a.711.711,0,0,1,.439.206.72.72,0,0,1-.006,1.021.68.68,0,0,1-.455.2l-.089.007H573.4c.014-.239.021-.479.021-.716s-.007-.481-.021-.721h4.612Zm-32.534,4.89h3.8c.032.09.077.173.111.262.1.262.21.519.329.773.082.177.164.354.254.526.105.2.221.4.337.589s.234.405.364.6c.007.011.016.021.024.032a12.332,12.332,0,0,0,1.331,1.629c.068.07.132.144.2.213.206.2.423.4.644.585.115.1.23.2.349.293.2.163.412.319.627.469.168.118.341.228.515.338s.366.233.557.339c.31.174.631.331.957.478.071.031.137.07.207.1a12.352,12.352,0,0,0,1.33.477l.043.016c.1.028.191.043.286.069.278.075.556.148.841.2.2.038.394.061.592.09s.387.064.585.082c.367.037.734.053,1.1.056.031,0,.062.005.093.005h.011a12.383,12.383,0,0,0,11.384-7.526c.023-.054.044-.109.067-.164.073-.178.153-.352.218-.534h3.8V737.86H545.541ZM578.019,694.9h-34a.718.718,0,0,1,.009-1.435h33.979a.718.718,0,0,1,.01,1.435Z" fill="#e94b46"/>
      </g>
      <path id="Trazado_103367" data-name="Trazado 103367" d="M560.075,717.505a.539.539,0,0,1-.114-.013.53.53,0,0,1-.377-.324l-1.388-3.552a.529.529,0,0,1,.25-.663,5.676,5.676,0,0,1,5.148,0,.529.529,0,0,1,.25.663l-1.388,3.547a.529.529,0,0,1-.685.3.545.545,0,0,1-.167-.1.878.878,0,0,0-1.164,0A.533.533,0,0,1,560.075,717.505Zm-.712-3.807.976,2.5a1.955,1.955,0,0,1,1.357,0l.978-2.5A4.637,4.637,0,0,0,559.363,713.7Z" fill="#e94b46"/>
      <path id="Trazado_103368" data-name="Trazado 103368" d="M558.227,722.828a.528.528,0,0,1-.288-.086,5.68,5.68,0,0,1-2.572-4.462.529.529,0,0,1,.45-.549l3.77-.572a.536.536,0,0,1,.473.169.528.528,0,0,1,.119.487.7.7,0,0,0-.02.177.856.856,0,0,0,.607.82.529.529,0,0,1,.35.661.54.54,0,0,1-.092.176l-2.382,2.98A.532.532,0,0,1,558.227,722.828Zm-1.754-4.126a4.621,4.621,0,0,0,1.657,2.871l1.675-2.095a1.905,1.905,0,0,1-.68-1.178Z" fill="#e94b46"/>
      <path id="Trazado_103369" data-name="Trazado 103369" d="M563.809,722.828a.53.53,0,0,1-.414-.2l-2.379-2.981a.53.53,0,0,1,.083-.744.524.524,0,0,1,.175-.092.855.855,0,0,0,.607-.82.752.752,0,0,0-.02-.177.528.528,0,0,1,.119-.487.538.538,0,0,1,.473-.169l3.771.572a.53.53,0,0,1,.449.549,5.674,5.674,0,0,1-2.576,4.462A.528.528,0,0,1,563.809,722.828Zm-1.572-3.349,1.672,2.095a4.614,4.614,0,0,0,1.659-2.872l-2.652-.4A1.9,1.9,0,0,1,562.237,719.479Z" fill="#e94b46"/>
      <path id="Trazado_103370" data-name="Trazado 103370" d="M561.019,719.978a1.915,1.915,0,1,1,1.915-1.915A1.915,1.915,0,0,1,561.019,719.978Z" fill="#e94b46"/>
    </g>
    <rect id="Rectángulo_5069" data-name="Rectángulo 5069" width="56.876" height="56.876" transform="translate(532.582 690.008)" fill="none"/>
  </g>
</svg>
