<svg xmlns="http://www.w3.org/2000/svg" width="254.228" height="188" viewBox="0 0 254.228 188"><g transform="translate(-388 -4449)"><g transform="translate(-1275.956 1234.956)"><g opacity="0.15"><rect width="254.228" height="188" transform="translate(1663.956 3214.044)" fill="#69d1ff"/><rect width="253.228" height="187" transform="translate(1664.456 3214.544)" fill="#69d1ff"/></g><path d="M1664.456,3402.044l129.14-63.76,124.088,63.76H1664.456" fill="#b0ccd6" opacity="0.27"/></g><g transform="translate(146.263 874.404)"><g transform="translate(323.93 3730.566)"><ellipse cx="45.114" cy="10.098" rx="45.114" ry="10.098" fill="#194ea3"/></g><g transform="translate(328.116 3734.822)"><path d="M406.683,3762.047c2.68,1.292,4.186,2.73,4.186,4.248,0,5.577-20.2,10.1-45.114,10.1-15.187,0-28.611-1.682-36.787-4.257,7.168,3.454,22.794,5.85,40.928,5.85,24.916,0,45.114-4.521,45.114-10.1C415.011,3765.712,411.921,3763.7,406.683,3762.047Z" transform="translate(-328.968 -3762.047)" fill="#103a77"/></g><g transform="translate(326.494 3605.969)"><path d="M411.934,3608.115v132.839c0,5.085-19,9.208-42.452,9.208s-42.452-4.123-42.452-9.208V3608.115Z" transform="translate(-327.031 -3608.115)" fill="#194ea3"/></g><g transform="translate(326.494 3656.012)"><path d="M411.934,3667.9v6.021a24.819,24.819,0,0,1-7.177,3.544c-7.082,2.471-14.832,3.476-22.358,4.087a158.131,158.131,0,0,1-29.329-.33c-7.047-.749-14.265-1.865-20.785-4.474a21.1,21.1,0,0,1-5.254-2.853V3667.9a1.48,1.48,0,0,1,.794,1.264c.2,4.129,9.691,6.058,12.927,6.823a125.449,125.449,0,0,0,28.731,2.875,125.444,125.444,0,0,0,28.731-2.875,40.254,40.254,0,0,0,9.052-3.055c1.5-.77,3.787-2,3.876-3.768A1.5,1.5,0,0,1,411.934,3667.9Z" transform="translate(-327.031 -3667.898)" fill="#103a77"/></g><g transform="translate(326.494 3668.43)"><path d="M411.934,3682.733v6.02a24.819,24.819,0,0,1-7.177,3.544c-7.082,2.471-14.832,3.481-22.358,4.087a157.688,157.688,0,0,1-29.329-.325c-7.047-.749-14.265-1.87-20.785-4.474a21.267,21.267,0,0,1-5.254-2.859v-5.989a1.491,1.491,0,0,1,.794,1.271c.2,4.122,9.691,6.052,12.927,6.817a125.168,125.168,0,0,0,28.731,2.88,125.163,125.163,0,0,0,28.731-2.88,40.013,40.013,0,0,0,9.052-3.055c1.5-.765,3.787-2,3.876-3.762A1.51,1.51,0,0,1,411.934,3682.733Z" transform="translate(-327.031 -3682.733)" fill="#103a77"/></g><g transform="translate(326.494 3696.204)"><path d="M411.934,3715.914v5.728c-2.065,1.924-5.224,3.172-7.769,4.054-7.082,2.471-14.832,3.481-22.358,4.087a158.131,158.131,0,0,1-29.329-.325c-7.047-.749-14.265-1.87-20.785-4.479a22.411,22.411,0,0,1-4.663-2.412v-5.861a1.458,1.458,0,0,1,.2.7c.2,4.124,9.691,6.052,12.927,6.817a125.131,125.131,0,0,0,28.731,2.879,125.122,125.122,0,0,0,28.731-2.879,40.013,40.013,0,0,0,9.052-3.056c1.5-.765,3.787-2,3.876-3.761A1.608,1.608,0,0,1,411.934,3715.914Z" transform="translate(-327.031 -3715.914)" fill="#103a77"/></g><g transform="translate(326.494 3708.856)"><path d="M327.031,3731.027a1.513,1.513,0,0,1,.941,1.339c.2,4.129,9.692,6.057,12.928,6.823a125.131,125.131,0,0,0,28.731,2.874,125.141,125.141,0,0,0,28.731-2.874,40.239,40.239,0,0,0,9.052-3.055c1.5-.765,3.786-2,3.875-3.767a1.472,1.472,0,0,1,.645-1.18v6.047a25.452,25.452,0,0,1-7.029,3.428c-7.083,2.47-14.833,3.475-22.358,4.086a158.2,158.2,0,0,1-29.335-.33c-7.041-.75-14.259-1.865-20.779-4.474a20.538,20.538,0,0,1-5.4-2.976Z" transform="translate(-327.031 -3731.027)" fill="#103a77"/></g><g transform="translate(323.832 3597.161)"><path d="M323.851,3606.927c.123,7.661,19.985,12.718,45.064,12.718s45.422-3.519,45.755-12.817c.218-6.086-20.676-9.234-45.755-9.234S323.753,3600.839,323.851,3606.927Z" transform="translate(-323.851 -3597.593)" fill="#103a77"/></g><g transform="translate(323.738 3654.288)"><path d="M323.74,3667.376c.19,3.892,4.472,6.163,8.009,7.577,6.52,2.606,13.74,3.726,20.782,4.474a157.877,157.877,0,0,0,29.33.328c7.527-.609,15.278-1.617,22.36-4.084,4.062-1.417,9.71-3.754,9.931-8.294.1-2.051-3.45-2.046-3.55,0-.086,1.766-2.372,3-3.872,3.765a40.3,40.3,0,0,1-9.054,3.057,125.235,125.235,0,0,1-28.73,2.876,125.293,125.293,0,0,1-28.73-2.876c-3.234-.766-12.725-2.695-12.926-6.821-.1-2.043-3.65-2.054-3.55,0Z" transform="translate(-323.738 -3665.839)" fill="#194ea3"/></g><g transform="translate(327.43 3656.354)" opacity="0.34"><path d="M411.475,3668.307a6.112,6.112,0,0,1-1.876,1.96,23.225,23.225,0,0,1-2.351,1.389,32.669,32.669,0,0,1-5.053,2.088,81.862,81.862,0,0,1-10.612,2.525c-3.584.628-7.206,1.02-10.83,1.3-3.627.259-7.261.36-10.891.377-3.631-.009-7.265-.108-10.892-.354-3.625-.271-7.247-.651-10.833-1.27a83.87,83.87,0,0,1-10.62-2.484,36.533,36.533,0,0,1-5.081-2.011,11.316,11.316,0,0,1-4.287-3.307,8.152,8.152,0,0,0,2.056,1.732,17.209,17.209,0,0,0,2.388,1.237,35.954,35.954,0,0,0,5.115,1.687,97.583,97.583,0,0,0,10.595,2.075c1.783.246,3.572.449,5.363.631s3.589.3,5.387.4c3.6.209,7.2.295,10.808.283q5.409.015,10.807-.3,2.7-.154,5.386-.416t5.361-.645A93.649,93.649,0,0,0,402,3673.088a32.229,32.229,0,0,0,5.081-1.772,23.318,23.318,0,0,0,2.4-1.23A6,6,0,0,0,411.475,3668.307Z" transform="translate(-328.149 -3668.307)" fill="#fff"/></g><g transform="translate(323.738 3666.246)"><path d="M323.74,3681.661c.19,3.891,4.472,6.163,8.009,7.576,6.52,2.607,13.74,3.726,20.782,4.474a157.835,157.835,0,0,0,29.33.328c7.527-.609,15.278-1.616,22.36-4.085,4.062-1.416,9.71-3.753,9.931-8.294.1-2.051-3.45-2.047-3.55,0-.086,1.766-2.372,3-3.872,3.765a40.285,40.285,0,0,1-9.054,3.057,125.249,125.249,0,0,1-28.73,2.877,125.253,125.253,0,0,1-28.73-2.877c-3.234-.765-12.725-2.7-12.926-6.821-.1-2.043-3.65-2.054-3.55,0Z" transform="translate(-323.738 -3680.125)" fill="#194ea3"/></g><g transform="translate(327.43 3667.247)" opacity="0.34"><path d="M411.475,3681.32a6.112,6.112,0,0,1-1.876,1.96,23.082,23.082,0,0,1-2.351,1.388,32.649,32.649,0,0,1-5.053,2.089,82.022,82.022,0,0,1-10.612,2.525c-3.584.628-7.206,1.02-10.83,1.3-3.627.259-7.261.36-10.891.377-3.631-.008-7.265-.108-10.892-.354-3.625-.271-7.247-.651-10.833-1.27a83.827,83.827,0,0,1-10.62-2.483,36.477,36.477,0,0,1-5.081-2.012,11.3,11.3,0,0,1-4.287-3.306,8.143,8.143,0,0,0,2.056,1.733,17.073,17.073,0,0,0,2.388,1.236,35.9,35.9,0,0,0,5.115,1.688,97.583,97.583,0,0,0,10.595,2.075c1.783.246,3.572.449,5.363.631s3.589.3,5.387.4c3.6.209,7.2.295,10.808.283q5.409.014,10.807-.3,2.7-.154,5.386-.416t5.361-.645A93.541,93.541,0,0,0,402,3686.1a32.2,32.2,0,0,0,5.081-1.772,23.467,23.467,0,0,0,2.4-1.231A6,6,0,0,0,411.475,3681.32Z" transform="translate(-328.149 -3681.32)" fill="#fff"/></g><g transform="translate(323.756 3694.628)"><path d="M323.762,3715.567c.19,3.892,4.472,6.163,8.009,7.577,6.52,2.607,13.74,3.726,20.782,4.474a157.856,157.856,0,0,0,29.33.327c7.527-.609,15.277-1.617,22.36-4.085,4.062-1.415,9.71-3.753,9.931-8.293.1-2.052-3.45-2.047-3.55,0-.086,1.766-2.372,3-3.872,3.764a40.308,40.308,0,0,1-9.054,3.057,125.262,125.262,0,0,1-28.73,2.876,125.267,125.267,0,0,1-28.73-2.876c-3.234-.765-12.725-2.7-12.926-6.821-.1-2.043-3.65-2.055-3.55,0Z" transform="translate(-323.76 -3714.03)" fill="#194ea3"/></g><g transform="translate(323.738 3706.804)"><path d="M323.74,3730.112c.19,3.892,4.472,6.163,8.009,7.576,6.52,2.607,13.74,3.726,20.782,4.474a157.919,157.919,0,0,0,29.33.328c7.527-.609,15.278-1.617,22.36-4.084,4.062-1.417,9.71-3.755,9.931-8.294.1-2.051-3.45-2.046-3.55,0-.086,1.766-2.372,3-3.872,3.764a40.274,40.274,0,0,1-9.054,3.057,125.263,125.263,0,0,1-28.73,2.877,125.266,125.266,0,0,1-28.73-2.877c-3.234-.765-12.725-2.7-12.926-6.822-.1-2.043-3.65-2.054-3.55,0Z" transform="translate(-323.738 -3728.576)" fill="#194ea3"/></g><g transform="translate(327.283 3695.76)" opacity="0.34"><path d="M411.3,3715.383a6.094,6.094,0,0,1-1.876,1.959,23.273,23.273,0,0,1-2.351,1.389,32.635,32.635,0,0,1-5.053,2.088,81.9,81.9,0,0,1-10.612,2.525c-3.584.628-7.206,1.02-10.83,1.3-3.626.258-7.261.359-10.891.376-3.631-.008-7.265-.108-10.892-.354-3.625-.271-7.247-.651-10.833-1.27a83.828,83.828,0,0,1-10.62-2.484,36.527,36.527,0,0,1-5.081-2.011,11.31,11.31,0,0,1-4.287-3.307,8.141,8.141,0,0,0,2.056,1.732,17.238,17.238,0,0,0,2.388,1.237,35.986,35.986,0,0,0,5.115,1.687,97.4,97.4,0,0,0,10.595,2.075c1.783.247,3.572.45,5.363.631s3.589.3,5.387.4c3.6.209,7.2.294,10.808.282q5.409.015,10.807-.3,2.7-.155,5.386-.416t5.361-.644a93.542,93.542,0,0,0,10.585-2.119,32.08,32.08,0,0,0,5.081-1.771,23.28,23.28,0,0,0,2.4-1.231A6.009,6.009,0,0,0,411.3,3715.383Z" transform="translate(-327.973 -3715.383)" fill="#fff"/></g><g transform="translate(327.43 3708.07)" opacity="0.34"><path d="M411.475,3730.088a6.115,6.115,0,0,1-1.876,1.96,23.125,23.125,0,0,1-2.351,1.388,32.625,32.625,0,0,1-5.053,2.089,81.942,81.942,0,0,1-10.612,2.525c-3.584.628-7.206,1.02-10.83,1.3-3.627.259-7.261.36-10.891.377-3.631-.009-7.265-.108-10.892-.354-3.625-.271-7.247-.651-10.833-1.27a83.869,83.869,0,0,1-10.62-2.483,36.418,36.418,0,0,1-5.081-2.013,11.3,11.3,0,0,1-4.287-3.306,8.139,8.139,0,0,0,2.056,1.733,17.073,17.073,0,0,0,2.388,1.236,35.866,35.866,0,0,0,5.115,1.688,97.641,97.641,0,0,0,10.595,2.075c1.783.246,3.572.449,5.363.631s3.589.3,5.387.4c3.6.209,7.2.295,10.808.283q5.409.014,10.807-.3,2.7-.154,5.386-.416t5.361-.645A93.648,93.648,0,0,0,402,3734.869a32.23,32.23,0,0,0,5.081-1.772,23.316,23.316,0,0,0,2.4-1.23A6,6,0,0,0,411.475,3730.088Z" transform="translate(-328.149 -3730.088)" fill="#fff"/></g><g transform="translate(327.43 3738.073)" opacity="0.34"><path d="M411.475,3765.931a6.1,6.1,0,0,1-1.876,1.96,22.908,22.908,0,0,1-2.351,1.388,32.721,32.721,0,0,1-5.053,2.089,81.978,81.978,0,0,1-10.612,2.524c-3.584.628-7.206,1.021-10.83,1.3-3.627.258-7.261.36-10.891.376-3.631-.008-7.265-.108-10.892-.354-3.625-.271-7.247-.651-10.833-1.27a83.824,83.824,0,0,1-10.62-2.482,36.539,36.539,0,0,1-5.081-2.013,11.3,11.3,0,0,1-4.287-3.306,8.158,8.158,0,0,0,2.056,1.733,17.233,17.233,0,0,0,2.388,1.237,35.927,35.927,0,0,0,5.115,1.687,97.7,97.7,0,0,0,10.595,2.075c1.783.245,3.572.45,5.363.63s3.589.3,5.387.4c3.6.209,7.2.294,10.808.283q5.409.013,10.807-.3,2.7-.153,5.386-.416t5.361-.644A93.7,93.7,0,0,0,402,3770.713a32.206,32.206,0,0,0,5.081-1.772,23.268,23.268,0,0,0,2.4-1.23A6.015,6.015,0,0,0,411.475,3765.931Z" transform="translate(-328.149 -3765.931)" fill="#fff"/></g><g transform="translate(384.48 3605.934)" opacity="0.53"><path d="M425.894,3742.148a2.706,2.706,0,0,0-.11-.321c-.023-.056-.047-.112-.075-.167a3.255,3.255,0,0,0-.177-.314c-.032-.05-.059-.1-.095-.151a4.634,4.634,0,0,0-.339-.425c-.055-.062-.121-.123-.182-.184-.082-.084-.165-.166-.256-.249s-.171-.149-.261-.223-.162-.13-.248-.2c-.106-.081-.213-.162-.328-.241-.067-.047-.141-.094-.211-.14-.128-.084-.249-.171-.388-.254v-24.092a6.5,6.5,0,0,0,2.755-4.746c.071-1.453-1.686-1.869-2.755-1.264v-6.15a6.511,6.511,0,0,0,2.773-4.762c.071-1.461-1.707-1.874-2.773-1.252v-22.383a6.5,6.5,0,0,0,2.755-4.746c.071-1.453-1.686-1.869-2.755-1.264v-5.948a6.5,6.5,0,0,0,2.755-4.746c.071-1.453-1.686-1.869-2.755-1.264v-48.592H406.277c3.224,45.552-2.852,91.216-8.936,137.661-.244,2.2-.6,4.373-1.039,6.526q1.079-.088,2.131-.187,2.024-.191,3.943-.424t3.72-.507c12-1.814,19.891-4.888,19.891-8.373a2.369,2.369,0,0,0-.054-.471C425.924,3742.248,425.908,3742.2,425.894,3742.148Z" transform="translate(-396.302 -3608.073)" fill="#103a77"/></g><g transform="translate(323.832 3594.941)"><ellipse cx="45.41" cy="11.026" rx="45.41" ry="11.026" fill="#194ea3"/></g><g transform="translate(326.495 3597.332)"><ellipse cx="42.451" cy="8.635" rx="42.451" ry="8.635" fill="#194ea3"/></g><g transform="translate(326.494 3597.332)"><path d="M329.4,3607.229c0-4.769,19.006-8.635,42.451-8.635,14.6,0,27.469,1.5,35.109,3.781-7.141-2.724-21.242-4.578-37.475-4.578-23.445,0-42.452,3.866-42.452,8.635,0,1.8,2.711,3.471,7.344,4.854C331.2,3610.078,329.4,3608.7,329.4,3607.229Z" transform="translate(-327.031 -3597.798)" fill="#103a77"/></g><g transform="translate(328.072 3608.578)" opacity="0.34"><path d="M412.241,3611.232a5.989,5.989,0,0,1-2.044,1.727c-.787.441-1.6.81-2.427,1.17a37.994,37.994,0,0,1-5.112,1.715,103.285,103.285,0,0,1-10.568,2.056,159.387,159.387,0,0,1-21.474,1.36,161.182,161.182,0,0,1-21.476-1.322,104.949,104.949,0,0,1-10.574-2.026,41.479,41.479,0,0,1-5.13-1.654,19.214,19.214,0,0,1-2.429-1.171,8.148,8.148,0,0,1-2.093-1.679,8.092,8.092,0,0,0,2.163,1.553,18.888,18.888,0,0,0,2.449,1.062,41.927,41.927,0,0,0,5.147,1.438,106.122,106.122,0,0,0,10.558,1.765A202.627,202.627,0,0,0,392,3617.2a102.694,102.694,0,0,0,10.551-1.8,37.94,37.94,0,0,0,5.125-1.508c.827-.328,1.661-.659,2.454-1.061A5.957,5.957,0,0,0,412.241,3611.232Z" transform="translate(-328.915 -3611.232)" fill="#fff"/></g><g transform="translate(339.555 3597.865)"><g transform="translate(0.933 3.084)"><path d="M343.749,3602.119v2.894c0,1.6,3.235,2.894,7.226,2.894s7.226-1.3,7.226-2.894v-2.894Z" transform="translate(-343.749 -3602.119)" fill="#103a77"/></g><g transform="translate(0.807 0.741)"><path d="M358.3,3601.664c0,1.294-3.293,2.344-7.353,2.344a15.8,15.8,0,0,1-5.973-.979c-.867-.382-1.379-.858-1.379-1.365,0-1.293,3.293-2.344,7.352-2.344,3.732,0,6.815.885,7.288,2.033A.782.782,0,0,1,358.3,3601.664Z" transform="translate(-343.598 -3599.321)" fill="#103a77"/></g><g transform="translate(0.007)"><path d="M351.792,3598.466c-2.385-.109-8.513-.09-9.135,2.859a.7.7,0,0,0-.013.193.709.709,0,0,0,.013.195c.6,2.833,6.312,2.92,8.636,2.869,1.957-.042,7.668-.333,7.668-3.063C358.961,3598.92,353.711,3598.555,351.792,3598.466Zm-7.5,3.053c1.092-2.491,12.44-2.155,12.44,0C356.733,3603.7,345.386,3604.007,344.294,3601.519Z" transform="translate(-342.642 -3598.435)" fill="#194ea3"/></g><g transform="translate(0 0.941)" opacity="0.21"><g transform="translate(1.59)"><path d="M344.595,3601.271c-.107.259-.082.532.125.213,1.573-2.177,11.579-1.9,12.274,0,.025-.07.082-.071.082-.145C357.076,3599.187,345.687,3598.78,344.595,3601.271Z" transform="translate(-344.533 -3599.56)" fill="#4b4b4b"/></g><g transform="translate(0 1.923)"><path d="M351.285,3604.708c-2.32.051-8.013-.037-8.631-2.852l-.006.021a.7.7,0,0,0-.013.194.712.712,0,0,0,.013.2c.6,2.833,6.312,2.92,8.637,2.869,1.956-.043,7.668-.333,7.668-3.063,0-.056-.016-.1-.02-.158C358.57,3604.394,353.175,3604.667,351.285,3604.708Z" transform="translate(-342.634 -3601.856)" fill="#4b4b4b"/></g></g></g><g transform="translate(330.784 3619.271)" opacity="0.1"><ellipse cx="5.769" cy="18.571" rx="5.769" ry="18.571" fill="#fff"/></g><g transform="translate(366.458 3600.951)" opacity="0.09"><ellipse cx="16.436" cy="3.618" rx="16.436" ry="3.618" fill="#fff"/></g><g transform="translate(332.603 3681.356)" opacity="0.1"><ellipse cx="3.347" cy="8.86" rx="3.347" ry="8.86" fill="#fff"/></g><g transform="translate(386.888 3603.295)"><g transform="translate(0.934 3.084)"><path d="M400.3,3608.6v2.894c0,1.6,3.234,2.894,7.226,2.894s7.226-1.3,7.226-2.894V3608.6Z" transform="translate(-400.295 -3608.605)" fill="#103a77"/></g><g transform="translate(0.807 0.741)"><path d="M414.849,3608.15c0,1.294-3.293,2.344-7.353,2.344a15.792,15.792,0,0,1-5.973-.979c-.867-.381-1.379-.857-1.379-1.365,0-1.294,3.293-2.344,7.353-2.344,3.731,0,6.814.885,7.287,2.033A.783.783,0,0,1,414.849,3608.15Z" transform="translate(-400.143 -3605.806)" fill="#103a77"/></g><g transform="translate(0.007)"><path d="M408.338,3604.952c-2.385-.11-8.513-.09-9.136,2.858a.7.7,0,0,0-.013.194.714.714,0,0,0,.013.195c.6,2.833,6.312,2.92,8.637,2.869,1.956-.042,7.668-.334,7.668-3.063C415.507,3605.406,410.256,3605.041,408.338,3604.952Zm-7.5,3.053c1.092-2.492,12.439-2.155,12.439,0C413.279,3610.19,401.931,3610.493,400.84,3608.005Z" transform="translate(-399.188 -3604.921)" fill="#194ea3"/></g><g transform="translate(0 0.941)" opacity="0.21"><g transform="translate(1.589)"><path d="M401.14,3607.757c-.107.259-.081.532.125.212,1.574-2.177,11.58-1.9,12.275,0,.025-.07.082-.071.082-.145C413.622,3605.673,402.232,3605.265,401.14,3607.757Z" transform="translate(-401.078 -3606.045)" fill="#4b4b4b"/></g><g transform="translate(0 1.923)"><path d="M407.83,3611.194c-2.319.051-8.012-.037-8.631-2.852l-.006.021a.728.728,0,0,0-.013.193.745.745,0,0,0,.013.2c.6,2.833,6.313,2.92,8.637,2.869,1.957-.043,7.668-.334,7.668-3.062,0-.056-.015-.1-.02-.159C415.115,3610.879,409.721,3611.152,407.83,3611.194Z" transform="translate(-399.179 -3608.342)" fill="#4b4b4b"/></g></g></g></g></g></svg>