<svg xmlns="http://www.w3.org/2000/svg" width="98.063" height="98.063" viewBox="0 0 98.063 98.063"><g transform="translate(140.435 -1980.044)"><circle cx="44.533" cy="44.533" r="44.533" transform="translate(-135.937 1988.468)" fill="#69d1ff"/><path d="M-133.574,2047.31a44.541,44.541,0,0,0,42.17,30.225,44.542,44.542,0,0,0,42.171-30.225Z" fill="#33b9dd"/><path d="M-83.292,2033.019v-42.074a10.328,10.328,0,0,0-10.329-10.329,10.328,10.328,0,0,0-10.329,10.329v42.074a17.947,17.947,0,0,0-7.641,14.706,17.971,17.971,0,0,0,17.97,17.97,17.971,17.971,0,0,0,17.971-17.97A17.948,17.948,0,0,0-83.292,2033.019Z" fill="#d8d8d8"/><path d="M-93.621,2059.81a12.426,12.426,0,0,1-12.411-12.411,12.406,12.406,0,0,1,8.075-11.629v-44.825a4.341,4.341,0,0,1,4.336-4.336,4.341,4.341,0,0,1,4.336,4.336v44.825A12.4,12.4,0,0,1-81.21,2047.4,12.425,12.425,0,0,1-93.621,2059.81Z" fill="#f3e8d7"/><path d="M-97.957,1998.873v36.9a12.4,12.4,0,0,0-8.075,11.628,12.425,12.425,0,0,0,12.411,12.411A12.424,12.424,0,0,0-81.21,2047.4a12.4,12.4,0,0,0-8.075-11.628v-36.9Z" fill="#fc4e51"/><path d="M-68.985,2010.563h-7.449a1.284,1.284,0,0,1-1.284-1.284,1.284,1.284,0,0,1,1.284-1.284h7.449a1.285,1.285,0,0,1,1.284,1.284A1.285,1.285,0,0,1-68.985,2010.563Z" fill="#0d6e9a"/><path d="M-73.052,2000.157h-3.382a1.284,1.284,0,0,1-1.284-1.284,1.284,1.284,0,0,1,1.284-1.284h3.382a1.284,1.284,0,0,1,1.284,1.284A1.284,1.284,0,0,1-73.052,2000.157Z" fill="#0d6e9a"/><path d="M-71.854,1989.751h-4.58a1.284,1.284,0,0,1-1.284-1.284,1.284,1.284,0,0,1,1.284-1.283h4.58a1.283,1.283,0,0,1,1.284,1.283A1.283,1.283,0,0,1-71.854,1989.751Z" fill="#0d6e9a"/><path d="M-71.854,2031.374h-4.58a1.284,1.284,0,0,1-1.284-1.284,1.283,1.283,0,0,1,1.284-1.283h4.58a1.283,1.283,0,0,1,1.284,1.283A1.284,1.284,0,0,1-71.854,2031.374Z" fill="#0d6e9a"/><path d="M-73.052,2020.969h-3.382a1.284,1.284,0,0,1-1.284-1.284,1.284,1.284,0,0,1,1.284-1.284h3.382a1.284,1.284,0,0,1,1.284,1.284A1.284,1.284,0,0,1-73.052,2020.969Z" fill="#0d6e9a"/><path d="M-89.285,2035.77v-36.9h-8.672v36.9s6,2.782,6,11.628A12.426,12.426,0,0,1-99,2058.583a12.328,12.328,0,0,0,5.376,1.226A12.425,12.425,0,0,0-81.21,2047.4,12.4,12.4,0,0,0-89.285,2035.77Z" fill="#e94b46"/><rect width="98.063" height="98.063" transform="translate(-140.435 1980.044)" fill="none"/></g></svg>