<svg xmlns="http://www.w3.org/2000/svg" width="56.876" height="56.876" viewBox="0 0 56.876 56.876">
  <g id="Grupo_53595" data-name="Grupo 53595" transform="translate(-402.484 -690.008)">
    <g id="Grupo_53594" data-name="Grupo 53594">
      <path id="Trazado_103363" data-name="Trazado 103363" d="M455.709,734.127l-16.487-25.908v-8.038a4.981,4.981,0,0,0,0-9.961h-16.6a4.981,4.981,0,1,0,0,9.961v8.038l-16.487,25.908a8.3,8.3,0,0,0,7,12.756h35.569A8.3,8.3,0,0,0,455.709,734.127Zm-30.027-24.533a1.66,1.66,0,0,0,.26-.892v-8.521a1.66,1.66,0,1,0,0-3.32h-3.32a1.66,1.66,0,1,1,0-3.32h16.6a1.66,1.66,0,1,1,0,3.32H435.9a1.66,1.66,0,1,0,0,3.32V708.7a1.66,1.66,0,0,0,.26.892l4.513,7.092a14.9,14.9,0,0,0-11.4,2.186l-5.188,3.459a11.567,11.567,0,0,1-7.71,1.885Zm23.024,33.969H413.137a4.977,4.977,0,0,1-4.2-7.653l5.507-8.655a14.847,14.847,0,0,0,11.486-2.162l5.187-3.458a11.589,11.589,0,0,1,12.582-.2l9.21,14.474A4.977,4.977,0,0,1,448.706,743.563Z" fill="#e94b46"/>
      <path id="Trazado_103364" data-name="Trazado 103364" d="M420.962,730.283a4.98,4.98,0,1,0,4.98,4.98A4.986,4.986,0,0,0,420.962,730.283Zm0,6.64a1.66,1.66,0,1,1,1.66-1.66A1.663,1.663,0,0,1,420.962,736.923Z" fill="#e94b46"/>
      <path id="Trazado_103365" data-name="Trazado 103365" d="M437.562,723.643a4.98,4.98,0,1,0,4.98,4.98A4.986,4.986,0,0,0,437.562,723.643Zm0,6.64a1.66,1.66,0,1,1,1.66-1.66A1.662,1.662,0,0,1,437.562,730.283Z" fill="#e94b46"/>
      <circle id="Elipse_3966" data-name="Elipse 3966" cx="1.66" cy="1.66" r="1.66" transform="translate(429.262 733.603)" fill="#e94b46"/>
      <circle id="Elipse_3967" data-name="Elipse 3967" cx="1.66" cy="1.66" r="1.66" transform="translate(442.542 733.603)" fill="#e94b46"/>
      <circle id="Elipse_3968" data-name="Elipse 3968" cx="1.66" cy="1.66" r="1.66" transform="translate(435.902 736.923)" fill="#e94b46"/>
    </g>
    <rect id="Rectángulo_5067" data-name="Rectángulo 5067" width="56.876" height="56.876" transform="translate(402.484 690.008)" fill="none"/>
  </g>
</svg>
