<svg xmlns="http://www.w3.org/2000/svg" width="254.228" height="188" viewBox="0 0 254.228 188"><g transform="translate(-946 -4834)"><g transform="translate(-717.956 1619.956)"><g opacity="0.15"><rect width="254.228" height="188" transform="translate(1663.956 3214.044)" fill="#69d1ff"/><path d="M0,0H253.228V187H0Z" transform="translate(1664.456 3214.544)" fill="#69d1ff"/></g><path d="M1664.456,3402.044l129.14-63.76,124.088,63.76H1664.456" fill="#b0ccd6" opacity="0.27"/></g><g transform="translate(88 811.893)"><g transform="translate(943 4067)"><path d="M1378.435,4060.2v2.125l1.233.759v.91s14.942.911,17.1,8.651v11.383l-2.927,68.9s1.54,11.383-8.626,17-32.657,10.472-49.6,3.795-18.177-11.383-18.639-18.669-.77-78.921-.77-78.921a11.673,11.673,0,0,1,6.469-10.776c7.085-3.795,17.407-5.768,17.869-5.919s25.879,0,25.879,0Z" transform="translate(-1314.018 -4049.909)" fill="#194ea3"/><g transform="translate(0 94.76)"><path d="M1311.965,4217.6c.173,3.8,4.093,6.019,7.329,7.4,5.966,2.547,12.575,3.639,19.019,4.371a135.514,135.514,0,0,0,26.843.32c6.889-.6,13.982-1.58,20.463-3.994,3.717-1.384,8.887-3.667,9.088-8.1.092-2-3.16-2-3.249,0-.079,1.726-2.171,2.929-3.544,3.677a35.3,35.3,0,0,1-8.286,2.986,124.431,124.431,0,0,1-52.585,0c-2.96-.748-11.642-2.632-11.83-6.663-.092-2-3.34-2.005-3.249,0Z" transform="translate(-1311.962 -4216.098)" fill="#194ea3"/></g><g transform="translate(3.198 96.233)" opacity="0.34"><path d="M1394.8,4220.675a5.838,5.838,0,0,1-1.724,1.915,20.981,20.981,0,0,1-2.162,1.355,29.053,29.053,0,0,1-4.646,2.042,71.647,71.647,0,0,1-9.755,2.465,97.381,97.381,0,0,1-9.957,1.267c-3.335.252-6.676.354-10.012.368-3.342-.008-6.683-.106-10.014-.345a98.523,98.523,0,0,1-9.96-1.243,73.319,73.319,0,0,1-9.764-2.425,32.408,32.408,0,0,1-4.671-1.966,10.489,10.489,0,0,1-3.941-3.229,7.628,7.628,0,0,0,1.89,1.693,15.41,15.41,0,0,0,2.2,1.208,31.744,31.744,0,0,0,4.7,1.648,85.264,85.264,0,0,0,9.74,2.027c1.639.24,3.283.439,4.929.617s3.3.294,4.952.394c3.306.2,6.62.288,9.937.276q4.973.012,9.935-.291,2.479-.152,4.951-.407t4.929-.629a81.658,81.658,0,0,0,9.731-2.068,28.5,28.5,0,0,0,4.671-1.731,20.915,20.915,0,0,0,2.206-1.2A5.635,5.635,0,0,0,1394.8,4220.675Z" transform="translate(-1318.189 -4220.675)" fill="#fff"/></g><g transform="translate(3.198 86.986)" opacity="0.34"><path d="M1394.8,4203.4a5.838,5.838,0,0,1-1.724,1.915,20.9,20.9,0,0,1-2.162,1.355,29.053,29.053,0,0,1-4.646,2.042,71.647,71.647,0,0,1-9.755,2.465,97.381,97.381,0,0,1-9.957,1.267c-3.335.252-6.676.354-10.012.368-3.342-.008-6.683-.1-10.014-.344a98.524,98.524,0,0,1-9.96-1.243,73.245,73.245,0,0,1-9.764-2.425,32.241,32.241,0,0,1-4.671-1.966,10.489,10.489,0,0,1-3.941-3.229,7.609,7.609,0,0,0,1.89,1.693,15.41,15.41,0,0,0,2.2,1.208,31.578,31.578,0,0,0,4.7,1.648,85.159,85.159,0,0,0,9.74,2.027c1.639.24,3.283.439,4.929.617s3.3.293,4.952.394c3.306.2,6.62.288,9.937.276q4.973.013,9.935-.291,2.479-.152,4.951-.407t4.929-.629a81.466,81.466,0,0,0,9.731-2.068,28.456,28.456,0,0,0,4.671-1.731,21,21,0,0,0,2.206-1.2A5.636,5.636,0,0,0,1394.8,4203.4Z" transform="translate(-1318.189 -4203.405)" fill="#fff"/></g><g transform="translate(2.824 96.768)"><path d="M1317.464,4220.008a1.477,1.477,0,0,1,.855,1.309c.184,4.031,8.809,5.916,11.75,6.663a122.868,122.868,0,0,0,52.228,0,34.836,34.836,0,0,0,8.227-2.984c1.366-.747,3.442-1.953,3.522-3.68a1.469,1.469,0,0,1,.586-1.154v5.907a22.478,22.478,0,0,1-6.389,3.347c-6.437,2.414-13.482,3.395-20.321,3.994a133.812,133.812,0,0,1-26.662-.322c-6.4-.732-12.96-1.822-18.886-4.369a18.353,18.353,0,0,1-4.911-2.906Z" transform="translate(-1317.462 -4220.008)" fill="#103a77"/></g><g transform="translate(0 94.76)"><path d="M1311.965,4217.6c.173,3.8,4.093,6.019,7.329,7.4,5.966,2.547,12.575,3.639,19.019,4.371a135.514,135.514,0,0,0,26.843.32c6.889-.6,13.982-1.58,20.463-3.994,3.717-1.384,8.887-3.667,9.088-8.1.092-2-3.16-2-3.249,0-.079,1.726-2.171,2.929-3.544,3.677a35.3,35.3,0,0,1-8.286,2.986,124.431,124.431,0,0,1-52.585,0c-2.96-.748-11.642-2.632-11.83-6.663-.092-2-3.34-2.005-3.249,0Z" transform="translate(-1311.962 -4216.098)" fill="#194ea3"/></g><g transform="translate(2.657 86.777)"><path d="M1317.14,4202.738a1.477,1.477,0,0,1,.86,1.309c.185,4.032,8.87,5.917,11.831,6.663a124.524,124.524,0,0,0,52.587,0,35.24,35.24,0,0,0,8.284-2.984c1.375-.747,3.465-1.953,3.546-3.679a1.463,1.463,0,0,1,.59-1.154v5.906a22.731,22.731,0,0,1-6.433,3.348c-6.481,2.413-13.575,3.394-20.462,3.993a135.69,135.69,0,0,1-26.845-.322c-6.443-.732-13.049-1.822-19.017-4.369a18.465,18.465,0,0,1-4.944-2.907Z" transform="translate(-1317.137 -4202.738)" fill="#103a77"/></g><g transform="translate(0 84.687)"><path d="M1311.965,4200.333c.173,3.8,4.093,6.019,7.329,7.4,5.966,2.546,12.575,3.639,19.019,4.37a135.514,135.514,0,0,0,26.843.32c6.889-.6,13.982-1.58,20.463-3.994,3.717-1.383,8.887-3.667,9.088-8.1.092-2-3.16-2-3.249,0-.079,1.725-2.171,2.928-3.544,3.676a35.254,35.254,0,0,1-8.286,2.986,124.389,124.389,0,0,1-52.585,0c-2.96-.747-11.642-2.632-11.83-6.662-.092-2-3.34-2.005-3.249,0Z" transform="translate(-1311.962 -4198.828)" fill="#194ea3"/></g><g transform="translate(2.429 51.203)"><path d="M1316.694,4136.408a1.475,1.475,0,0,1,.878,1.309c.188,4.032,9.048,5.916,12.069,6.663a129.571,129.571,0,0,0,53.649,0,36.475,36.475,0,0,0,8.452-2.984c1.4-.748,3.535-1.953,3.617-3.68a1.457,1.457,0,0,1,.6-1.154v5.906a23.341,23.341,0,0,1-6.563,3.348c-6.612,2.413-13.849,3.394-20.875,3.994a141.218,141.218,0,0,1-27.388-.322c-6.573-.732-13.312-1.822-19.4-4.369a18.91,18.91,0,0,1-5.044-2.906Z" transform="translate(-1316.691 -4136.408)" fill="#103a77"/></g><g transform="translate(3.254 51.473)" opacity="0.34"><path d="M1396.18,4137.074a5.867,5.867,0,0,1-1.753,1.914,21.431,21.431,0,0,1-2.2,1.355,29.768,29.768,0,0,1-4.723,2.041,73.926,73.926,0,0,1-9.918,2.466,100.537,100.537,0,0,1-10.123,1.266c-3.39.252-6.786.354-10.179.368-3.4-.007-6.794-.1-10.181-.345a101.586,101.586,0,0,1-10.125-1.242,75.628,75.628,0,0,1-9.927-2.426,33.143,33.143,0,0,1-4.749-1.966,10.634,10.634,0,0,1-4.007-3.229,7.7,7.7,0,0,0,1.922,1.693,15.81,15.81,0,0,0,2.232,1.208,32.546,32.546,0,0,0,4.781,1.648,87.764,87.764,0,0,0,9.9,2.027c1.666.24,3.339.439,5.011.617s3.354.293,5.035.394c3.361.2,6.73.287,10.1.276q5.056.013,10.1-.291,2.521-.15,5.034-.406t5.011-.63a83.956,83.956,0,0,0,9.893-2.068,29.24,29.24,0,0,0,4.749-1.73,21.409,21.409,0,0,0,2.242-1.2A5.694,5.694,0,0,0,1396.18,4137.074Z" transform="translate(-1318.299 -4137.074)" fill="#fff"/></g><g transform="translate(2.429 39.997)"><path d="M1316.694,4115.514a1.476,1.476,0,0,1,.878,1.308c.188,4.032,9.048,5.916,12.069,6.664a129.571,129.571,0,0,0,53.649,0,36.431,36.431,0,0,0,8.452-2.985c1.4-.747,3.535-1.952,3.617-3.68a1.457,1.457,0,0,1,.6-1.153v5.906a23.327,23.327,0,0,1-6.563,3.347c-6.612,2.414-13.849,3.394-20.875,3.994a141.18,141.18,0,0,1-27.388-.322c-6.573-.731-13.312-1.822-19.4-4.369a18.925,18.925,0,0,1-5.044-2.907Z" transform="translate(-1316.691 -4115.514)" fill="#103a77"/></g><g transform="translate(3.254 40.286)" opacity="0.34"><path d="M1396.18,4116.181a5.864,5.864,0,0,1-1.753,1.915,21.6,21.6,0,0,1-2.2,1.355,29.768,29.768,0,0,1-4.723,2.041,74,74,0,0,1-9.918,2.466,100.4,100.4,0,0,1-10.123,1.266c-3.39.254-6.786.355-10.179.369-3.4-.008-6.794-.106-10.181-.345a101.732,101.732,0,0,1-10.125-1.243,75.625,75.625,0,0,1-9.927-2.425,33.257,33.257,0,0,1-4.749-1.966,10.639,10.639,0,0,1-4.007-3.229,7.693,7.693,0,0,0,1.922,1.692,15.761,15.761,0,0,0,2.232,1.208,32.663,32.663,0,0,0,4.781,1.648,87.979,87.979,0,0,0,9.9,2.026c1.666.24,3.339.439,5.011.617s3.354.294,5.035.394c3.361.2,6.73.288,10.1.277q5.056.012,10.1-.292,2.521-.151,5.034-.407t5.011-.629a84.254,84.254,0,0,0,9.893-2.069,29.286,29.286,0,0,0,4.749-1.73,21.5,21.5,0,0,0,2.242-1.2A5.7,5.7,0,0,0,1396.18,4116.181Z" transform="translate(-1318.299 -4116.181)" fill="#fff"/></g><line x2="0.364" y2="3.639" transform="translate(65.63 13.027)" fill="#103a77"/><g transform="translate(0 49.109)"><path d="M1311.964,4134c.177,3.8,4.161,6.019,7.452,7.4,6.066,2.546,12.784,3.639,19.337,4.37a139.988,139.988,0,0,0,27.291.321c7-.6,14.215-1.58,20.805-3.994,3.779-1.383,9.035-3.667,9.24-8.1.093-2-3.213-2-3.3,0-.08,1.726-2.207,2.929-3.6,3.677a36.251,36.251,0,0,1-8.424,2.986,128.536,128.536,0,0,1-53.464,0c-3.01-.747-11.837-2.632-12.028-6.662-.093-2-3.4-2.006-3.3,0Z" transform="translate(-1311.961 -4132.498)" fill="#194ea3"/></g><g transform="translate(0 37.903)"><path d="M1311.964,4113.109c.177,3.8,4.161,6.019,7.452,7.4,6.066,2.545,12.784,3.638,19.337,4.37a140.026,140.026,0,0,0,27.291.321c7-.6,14.215-1.58,20.805-3.994,3.779-1.383,9.035-3.667,9.24-8.1.093-2-3.213-2-3.3,0-.08,1.726-2.207,2.929-3.6,3.677a36.253,36.253,0,0,1-8.424,2.986,128.579,128.579,0,0,1-53.464,0c-3.01-.748-11.837-2.632-12.028-6.663-.093-2-3.4-2.005-3.3,0Z" transform="translate(-1311.961 -4111.604)" fill="#194ea3"/></g><path d="M1392.6,4187.614c10.414-.508,20.264-3.456,25.985-6.663,9.606-5.386,8.151-16.3,8.151-16.3l2.766-66.081v-7.235a15.207,15.207,0,0,0-2.754,6.265c-1.564,7.762.765,65.756-14.47,71.691C1402.994,4172.908,1393.6,4181.671,1392.6,4187.614Z" transform="translate(-1346.754 -4060.637)" fill="#103a77" opacity="0.26"/><path d="M1354.926,4087.959s19.5,5.434,34.835,1.261c0,0,2.911.1.777,1.067s-22.318,4.1-36.388-.91C1354.149,4089.378,1351.334,4087.668,1354.926,4087.959Z" transform="translate(-1329.714 -4059.339)" fill="#fff" opacity="0.18"/><path d="M1427.532,4060.716l.286,6.51v2.183h2.232l.291-3.251s9.726.353,12.569,2.613c0,0-4.259-4.249-12.569-4.311v-1.213l-1.165-.388.069-1.5Z" transform="translate(-1363.749 -4050.56)" fill="#103a77"/><path d="M1395.3,4046.091l.389,7.787s-8.328,4.367-25.841,3.42-20.47-4.075-20.47-4.075l.467-6.769s11.208-2.328,11.442-2.4S1395.3,4046.091,1395.3,4046.091Z" transform="translate(-1330.166 -4042.452)" fill="#3d3d3d"/><ellipse cx="22.769" cy="3.42" rx="22.769" ry="3.42" transform="translate(19.635)" fill="#232323"/><path d="M1349.069,4061.913l-.328,4.209.546.448.682-4.015Z" transform="translate(-1328.787 -4051.143)" fill="#fff" opacity="0.18"/></g></g></g></svg>