<svg xmlns="http://www.w3.org/2000/svg" width="254.228" height="188" viewBox="0 0 254.228 188"><g transform="translate(-388 -4834)"><g transform="translate(-1275.956 1619.956)"><g opacity="0.15"><rect width="254.228" height="188" transform="translate(1663.956 3214.044)" fill="#69d1ff"/><rect width="253.228" height="187" transform="translate(1664.456 3214.544)" fill="#69d1ff"/></g><path d="M1664.456,3402.044l129.14-63.76,124.088,63.76H1664.456" fill="#b0ccd6" opacity="0.27"/></g><g transform="translate(-1016.542 1200.691)"><g transform="translate(1477.542 3694.696)"><path d="M1481.047,3726.368a168.25,168.25,0,0,0-3.505,36.019c0,17.392,1.973,31.862,5.489,43.66,31.219,11.888,65.286,9.317,97.563-1.107,3.315-11.595,5.171-25.7,5.171-42.553a170.965,170.965,0,0,0-3.154-34.371C1549.49,3737.986,1513.541,3738.348,1481.047,3726.368Z" transform="translate(-1477.542 -3726.368)" fill="#194ea3"/></g><g transform="translate(1481.424 3696.009)" opacity="0.07"><path d="M1585.974,3728.766c-1.48.446-2.967.865-4.458,1.272a187.076,187.076,0,0,1,1.551,24.874c0,16.855-1.856,30.958-5.171,42.553-30.8,9.948-63.23,12.733-93.261,2.638q.8,3.479,1.758,6.694c31.219,11.887,65.285,9.317,97.562-1.107,3.315-11.6,5.171-25.7,5.171-42.553A170.956,170.956,0,0,0,1585.974,3728.766Z" transform="translate(-1484.636 -3728.766)"/></g><g transform="translate(1480.478 3656.982)"><path d="M1562.894,3659.216c-.007,0-.02-.007-.026-.007a209.036,209.036,0,0,0-27.816-1.759,206.725,206.725,0,0,0-28.59,1.87c-1.234.227-2.429.481-3.571.74-1.649.377-3.208.785-4.662,1.214a57.914,57.914,0,0,0-5.98,8.48c-.208.35-.409.7-.61,1.065v.007c-.033.058-.072.116-.1.182a2.157,2.157,0,0,0-.162.292c-.721,1.3-1.415,2.642-2.065,4.045-.422.87-.825,1.766-1.208,2.676-.136.318-.272.635-.4.961v.006c-.214.493-.416.993-.61,1.506-.007.013-.007.02-.013.033l-.195.506c-.1.266-.2.539-.3.8-.364.981-.715,1.987-1.052,3.006-.019.059-.039.111-.052.169a.006.006,0,0,0-.006.007c-.072.22-.15.448-.221.675q-.711,2.2-1.344,4.525c-.338,1.24-.656,2.5-.954,3.792a1.326,1.326,0,0,0,.487,1.357,1.28,1.28,0,0,0,.35.188,151.87,151.87,0,0,0,33.563,7.63c.5.065,1,.117,1.494.162.6.065,1.2.123,1.805.182,1.1.1,2.2.2,3.3.273.247.02.5.039.754.052l1.143.078c.76.045,1.526.084,2.286.116.338.02.682.033,1.02.045q.857.04,1.714.059c1.085.033,2.162.052,3.247.065,1.065.007,2.123.007,3.188,0q1.471-.01,2.941-.059a178.874,178.874,0,0,0,44.011-6.773,2.129,2.129,0,0,0,.818-.441,2.228,2.228,0,0,0,.721-2.188q-.506-2.22-1.072-4.331t-1.214-4.143c-.136-.428-.272-.85-.409-1.272-.091-.286-.188-.565-.286-.851-.149-.441-.3-.876-.454-1.305v-.007c-.208-.578-.416-1.143-.63-1.707-.344-.9-.7-1.786-1.065-2.649s-.727-1.7-1.11-2.52c-.825-1.8-1.7-3.506-2.617-5.143-.007-.019-.019-.032-.026-.052a.16.16,0,0,1-.026-.045v-.006c-.169-.3-.344-.6-.519-.89a57.991,57.991,0,0,0-6.454-9.058Z" transform="translate(-1482.907 -3657.45)" fill="#194ea3"/></g><g transform="translate(1480.478 3660.227)" opacity="0.07"><path d="M1585.789,3697.445q-.506-2.221-1.072-4.331t-1.214-4.143c-.136-.428-.272-.85-.409-1.272-.091-.286-.188-.565-.286-.851-.149-.441-.3-.876-.454-1.305v-.006c-.208-.579-.416-1.143-.63-1.708-.344-.9-.7-1.786-1.065-2.649s-.727-1.7-1.11-2.52c-.825-1.8-1.7-3.506-2.617-5.143-.007-.019-.02-.032-.026-.052a.156.156,0,0,1-.026-.045v-.006c-.169-.3-.344-.6-.519-.89a57.98,57.98,0,0,0-6.454-9.058l-.385-.086a59.52,59.52,0,0,1,4.4,6.547c.176.292.351.591.519.889v.007a.168.168,0,0,0,.026.045c.007.02.02.033.026.052.916,1.636,1.792,3.344,2.617,5.143.383.818.754,1.662,1.11,2.519s.721,1.747,1.065,2.649c.214.564.422,1.129.63,1.708v.006c.156.429.305.863.455,1.305.1.286.195.565.286.851.136.422.273.844.409,1.273q.643,2.016,1.214,4.143t1.071,4.331a2.227,2.227,0,0,1-.721,2.188,2.126,2.126,0,0,1-.818.441,178.843,178.843,0,0,1-44.011,6.772q-1.47.049-2.941.059c-1.065.006-2.123.006-3.188,0-1.084-.013-2.162-.033-3.246-.065q-.858-.02-1.714-.059c-.338-.013-.682-.026-1.019-.045-.76-.032-1.526-.071-2.285-.116l-1.143-.079c-.253-.013-.506-.032-.753-.052-1.1-.078-2.208-.169-3.305-.272-.6-.059-1.208-.117-1.8-.182-.494-.045-.994-.1-1.493-.162a152.226,152.226,0,0,1-31.851-7.055c-.038.16-.078.316-.115.477a1.325,1.325,0,0,0,.487,1.357,1.27,1.27,0,0,0,.35.188,151.879,151.879,0,0,0,33.563,7.63c.5.065,1,.117,1.494.162.6.065,1.2.124,1.805.182,1.1.1,2.2.195,3.305.272.246.02.5.04.753.052l1.143.078c.76.045,1.526.084,2.286.117.338.02.682.033,1.02.045q.857.04,1.714.059c1.085.033,2.162.052,3.247.065,1.065.007,2.123.007,3.188,0q1.47-.01,2.941-.058a178.865,178.865,0,0,0,44.011-6.773,2.122,2.122,0,0,0,.818-.441A2.227,2.227,0,0,0,1585.789,3697.445Z" transform="translate(-1482.907 -3663.38)"/></g><g transform="translate(1480.084 3656.417)"><g transform="translate(0 16.134)"><path d="M1484.234,3686.572c-10.319,14.438,21.419,19.866,27.915,20.82a153.743,153.743,0,0,0,35.35.973c9.213-.786,18.752-2.15,27.442-5.8,4.858-2.039,12.605-6.073,10.452-13.278a1.772,1.772,0,1,0-3.386,1.035c1.465,4.9-5.911,7.677-8.937,8.867-7.371,2.9-15.268,4.237-23.026,5.038-17.275,1.784-36.008,1.49-52.729-4.186-3.1-1.053-14.723-4.947-10.6-10.717,1.39-1.945-1.079-4.719-2.483-2.755Z" transform="translate(-1482.188 -3685.899)" fill="#5e646d"/></g><g transform="translate(1.34 18.556)"><path d="M1586.5,3691.293a1.936,1.936,0,0,0-.616-.969,2.3,2.3,0,0,1,.128.319c2.154,7.2-5.593,11.239-10.452,13.279-8.691,3.647-18.229,5.011-27.443,5.8a153.759,153.759,0,0,1-35.35-.973c-4.667-.686-22.367-3.682-28.133-10.67,5.17,7.452,23.812,10.612,28.621,11.319a153.744,153.744,0,0,0,35.35.973c9.213-.786,18.752-2.15,27.442-5.8C1580.908,3702.532,1588.655,3698.5,1586.5,3691.293Z" transform="translate(-1484.636 -3690.325)" fill="#484c51"/></g><g transform="translate(1.71 4.831)"><path d="M1586.532,3679.627c-1.754-4.05-6.434-6.33-10.268-7.917-6.635-2.747-13.809-4.124-20.9-5.059-17.446-2.3-36.169-2-53.251,2.563-5.653,1.509-12.433,3.6-16.385,8.223-1.367,1.6.946,3.931,2.322,2.322,3.143-3.675,8.31-5.43,12.794-6.772a106.442,106.442,0,0,1,22.426-3.857c15.865-1.212,32.867-.661,48.12,4.282,4.231,1.371,10.37,3.4,12.306,7.874.837,1.934,3.667.264,2.835-1.657Z" transform="translate(-1485.312 -3665.246)" fill="#5e646d"/></g><g transform="translate(2.976 8.85)"><path d="M1586.533,3685.914a4.512,4.512,0,0,1-1.135,2.844,9.564,9.564,0,0,1-1.293,1.286,19.167,19.167,0,0,1-3.845,2.363c-.228.117-.468.234-.714.338-.053.025-.105.045-.158.071-.188.084-.381.169-.579.253-.738.311-1.516.61-2.341.909q-2.037.721-4.418,1.357c-.9.24-1.838.474-2.8.695-.275.065-.551.13-.825.188-.808.175-1.633.35-2.476.513-.328.065-.661.13-.995.188-.72.13-1.457.26-2.207.383q-3.538.584-7.432.994c-.392.046-.784.091-1.182.13-.579.058-1.165.11-1.75.162-1.838.162-3.728.292-5.66.4l-1.253.059c-.374.02-.755.039-1.141.052q-2.827.117-5.759.136c-.445.007-.9.007-1.346.007h-.14q-3.3,0-6.491-.117c-2.376-.078-4.7-.207-6.958-.383-.374-.026-.749-.058-1.124-.084-4.653-.39-9.019-.954-12.975-1.675-2.441-.442-4.723-.942-6.83-1.487-.374-.1-.743-.195-1.1-.292a48.324,48.324,0,0,1-7.157-2.532c-.082-.039-.158-.071-.24-.116a17.668,17.668,0,0,1-4.641-2.941c-.04-.033-.081-.072-.122-.111a6.115,6.115,0,0,1-.573-.617c-.058-.065-.112-.13-.164-.2a4.461,4.461,0,0,1-1.077-2.773c0-.1.024-.208.03-.305h-.017l-.012-9.006,14.052.013c8.984-2.48,21.52-4.026,35.4-4.026,14.011,0,26.646,1.571,35.647,4.1l13.789.013Z" transform="translate(-1487.626 -3672.59)" fill="#232323"/></g><g transform="translate(2.974)"><path d="M1586.534,3669.741a3.276,3.276,0,0,1-.019.364,5.706,5.706,0,0,1-2.266,3.642c-.039.033-.078.072-.124.1-.13.11-.253.214-.39.318a17.8,17.8,0,0,1-2.052,1.337,32.939,32.939,0,0,1-4.285,1.955c-8.968,3.39-23.681,5.6-40.316,5.6-.318,0-.637,0-.954-.006-4.169-.019-8.2-.175-12.052-.461-2.63-.188-5.175-.441-7.61-.746a93.906,93.906,0,0,1-18.006-3.792q-1.539-.516-2.883-1.071a26.274,26.274,0,0,1-4.136-2.111c-.364-.234-.7-.467-1.013-.708-.26-.195-.507-.4-.734-.611-.13-.116-.259-.24-.377-.356a4.967,4.967,0,0,1-1.695-3.435v-.039a3.5,3.5,0,0,1,.032-.448c.409-3.253,5.143-6.214,12.707-8.474,1.454-.429,3.013-.838,4.662-1.214,1.143-.26,2.337-.513,3.571-.74a155.233,155.233,0,0,1,28.486-2.435,157.193,157.193,0,0,1,27.92,2.325c.007,0,.02.007.026.007.844.156,1.662.318,2.468.487,1.6.338,3.116.7,4.545,1.078,8.655,2.331,14.122,5.526,14.473,9.065A3.266,3.266,0,0,1,1586.534,3669.741Z" transform="translate(-1487.623 -3656.417)" fill="#282828"/></g><g transform="translate(11.978 2.36)"><path d="M1585.035,3671.1a4.265,4.265,0,0,1-1.969,3.2c-.106.086-.211.167-.321.248a21.336,21.336,0,0,1-5.188,2.562c-7.339,2.637-19.382,4.359-33,4.359-14.237,0-26.754-1.884-33.969-4.729a19.121,19.121,0,0,1-4.215-2.193,7.629,7.629,0,0,1-.6-.475,4.037,4.037,0,0,1-1.691-2.971c0-3.162,5.528-6,14.242-7.9a127.428,127.428,0,0,1,26.237-2.471,130.506,130.506,0,0,1,24.9,2.193C1578.937,3664.816,1585.035,3667.772,1585.035,3671.1Z" transform="translate(-1504.077 -3660.729)" fill="#1c1c1c"/></g><g transform="translate(12.824 21.571)" opacity="0.08"><path d="M1525.927,3699.592a31.758,31.758,0,0,1-5.285.088,46.045,46.045,0,0,1-5.2-.612,40.578,40.578,0,0,1-5.07-1.217,23.266,23.266,0,0,1-4.748-2.016c1.8.1,3.5.318,5.21.539s3.386.493,5.066.791,3.355.628,5.028,1.01A44.855,44.855,0,0,1,1525.927,3699.592Z" transform="translate(-1505.622 -3695.835)" fill="#fff"/></g><g transform="translate(38.76 25.31)" opacity="0.08"><path d="M1566,3704.1a13.114,13.114,0,0,1-3.285.573,25.286,25.286,0,0,1-3.276-.007,24.785,24.785,0,0,1-3.248-.425,14.666,14.666,0,0,1-3.18-.979,15.439,15.439,0,0,1,3.313-.546,24.366,24.366,0,0,1,3.246.008A21.033,21.033,0,0,1,1566,3704.1Z" transform="translate(-1553.016 -3702.667)" fill="#fff"/></g><g transform="translate(15.509 4.831)"><path d="M1583.9,3674.377a3.736,3.736,0,0,1-1.784,2.817c-.1.075-.191.147-.291.218a19.514,19.514,0,0,1-4.7,2.257c-6.652,2.323-17.566,3.84-29.909,3.84-12.9,0-24.248-1.66-30.786-4.165a17.456,17.456,0,0,1-3.82-1.932,6.693,6.693,0,0,1-.547-.418,3.531,3.531,0,0,1-1.532-2.617c0-2.785,5.01-5.282,12.907-6.956a118.757,118.757,0,0,1,23.779-2.176,121.651,121.651,0,0,1,22.563,1.931C1578.375,3668.845,1583.9,3671.449,1583.9,3674.377Z" transform="translate(-1510.529 -3665.245)" fill="#282828"/></g></g><g transform="translate(1482.242 3772.288)"><path d="M1486.948,3869.26a.608.608,0,0,0-.787.753c3.136,9.839,13.046,25.784,14.051,26.621.173.144.352.286.552.423a13.04,13.04,0,0,0,1.681,1,.027.027,0,0,0,.014.006,23,23,0,0,0,2.147.941c6.574,2.526,17.989,4.2,30.966,4.2,12.418,0,23.4-1.532,30.089-3.876a24.748,24.748,0,0,0,3.051-1.279.007.007,0,0,0,.007-.007,13.017,13.017,0,0,0,1.675-.986c.1-.072.193-.143.292-.221,1.164-.889,11.386-17.407,14.544-27.608a.829.829,0,0,0-1.04-1.033C1551.985,3878.105,1518.114,3880.488,1486.948,3869.26Z" transform="translate(-1486.131 -3868.156)" fill="#194ea3"/></g><g transform="translate(1483.141 3692.002)" opacity="0.18"><path d="M1585,3723.432q-2.961.724-5.936,1.417l-6,1.25-6.054,1.053-6.1.888a191.987,191.987,0,0,1-24.709,1.571,162.414,162.414,0,0,1-24.713-2.03l-6.071-1.136-6-1.384-5.889-1.675q-2.893-.954-5.766-1.941,2.948.821,5.874,1.668l5.95,1.435,6.006,1.227,6.062.982a173.4,173.4,0,0,0,24.537,1.765,208.029,208.029,0,0,0,24.564-1.309l6.1-.738,6.068-.9,6.047-1.01Q1581.981,3723.983,1585,3723.432Z" transform="translate(-1487.773 -3721.445)" fill="#fff"/></g><g transform="translate(1494.388 3772.288)" opacity="0.07"><path d="M1594.239,3868.195q-2.325.714-4.661,1.372c-4.13,9.949-11.9,22.389-12.9,23.157-.1.078-.193.149-.292.221a13.049,13.049,0,0,1-1.676.987.006.006,0,0,1-.007.007,24.745,24.745,0,0,1-3.051,1.279c-6.688,2.344-17.67,3.877-30.089,3.877-12.977,0-24.391-1.676-30.966-4.2a23.194,23.194,0,0,1-2.147-.942.023.023,0,0,1-.013-.007c-.038-.019-.069-.039-.107-.059a20.882,20.882,0,0,0,1.934,2.749c.173.143.352.286.552.423a13.044,13.044,0,0,0,1.682,1,.026.026,0,0,0,.014.006,22.985,22.985,0,0,0,2.147.941c6.575,2.526,17.989,4.2,30.966,4.2,12.418,0,23.4-1.532,30.089-3.876a24.737,24.737,0,0,0,3.052-1.279c.006,0,.006-.007.006-.007a12.991,12.991,0,0,0,1.676-.986c.1-.072.193-.143.292-.221,1.163-.889,11.386-17.407,14.544-27.608A.829.829,0,0,0,1594.239,3868.195Z" transform="translate(-1508.326 -3868.156)"/></g><g transform="translate(1482.242 3705.192)" opacity="0.06"><ellipse cx="8.689" cy="20.672" rx="8.689" ry="20.672" transform="translate(0)" fill="#fff"/></g></g></g></svg>