<svg xmlns="http://www.w3.org/2000/svg" width="254.228" height="188" viewBox="0 0 254.228 188"><g transform="translate(-666.383 -4449)"><g transform="translate(-997.573 1234.956)"><g opacity="0.15"><rect width="254.228" height="188" transform="translate(1663.956 3214.044)" fill="#69d1ff"/><rect width="253.228" height="187" transform="translate(1664.456 3214.544)" fill="#69d1ff"/></g><path d="M1664.456,3402.044l129.14-63.76,124.088,63.76H1664.456" fill="#b0ccd6" opacity="0.27"/></g><g transform="translate(-582.32 729.267)"><path d="M1417.312,3800.076c.031-1.127-5.327-14.947-5.327-14.947l-5.077-20.588s-1.974-5.076-6.487-4.794-22,3.949-22,3.949l-11,11.282-9.589,4.229-15.511-.563-7.333,21.716s-1.41,3.1,0,5.077.846,55.842.846,55.842-1.818,1.974-1.473,2.82,1.755,13.255,1.755,13.255l15.23,14.948s2.821,3.384,12.974,1.41,51.613-13.255,51.613-13.255,3.1-7.9,0-15.512l1.378-58.663S1417.281,3801.2,1417.312,3800.076Zm-22.46-18.9-14.525,2.679v-.352l7.262-10.224s7.615-1.834,8.461-.493S1394.852,3781.181,1394.852,3781.181Z" transform="translate(0 0)" fill="#194ea3"/><path d="M1417.745,3903.828l-51.049,11.7s-9.73,2.679-16.217-3.948-9.026-8.884-9.026-8.884l13.538,10.013s5.5,2.82,14.807.563,47.946-12.55,47.946-12.55S1418.84,3903.577,1417.745,3903.828Z" transform="translate(-1.811 -35.782)" fill="#103a77"/><path d="M1369.791,3783.767s3.543,1.232,4.5,4.035,3.384,9.359,3.807,9.677-3.913-3.173-5.394-6.029a4.392,4.392,0,0,0-4.019-2.644s-13.538,3.7-18.508.74-7.509-4.9-2.433-5.779,16.076-1.624,16.076-1.624Z" transform="translate(-2.702 -5.687)" fill="#103a77"/><path d="M1393.045,3789.726" transform="translate(-14.904 -7.612)" fill="#abc7ef" stroke="#484c51" stroke-miterlimit="10" stroke-width="1.031"/><path d="M1347.2,3772.163v9.625s8.2,7.139,23.162,0v-9.625l-10.788-1.216Z" transform="translate(-3.268 -2.846)" fill="#232323"/><ellipse cx="11.581" cy="3.041" rx="11.581" ry="3.041" transform="translate(1343.927 3765.774)" fill="#282828"/><path d="M1395.017,3784.637l5.182-8.883v-1.844l-2.592-6.082s2.063,3.483,3.86,4.541,18.826-1.5,18.826-1.5l-17.345,3.041Z" transform="translate(-15.404 -2.054)" fill="#fff" opacity="0.1"/><path d="M1397.284,3794.765s20.307-3.279,21.259-3.279,2.538-8.394-.529-11.389,2.327,4.409-.74,6.418S1397.284,3794.765,1397.284,3794.765Z" transform="translate(-15.98 -4.989)" fill="#103a77"/><path d="M1349.284,3830.769s7.051,5.077,10.718,5.359,57.817-10.577,57.817-10.577l-56.548,9.167Z" transform="translate(-3.798 -16.704)" fill="#103a77"/><path d="M1339.174,3829.047l3.772,2.682-.78,48.6-2.992-2.207Z" transform="translate(-1.232 -17.591)" fill="#fff" opacity="0.1"/><path d="M1368.513,3841.49v54.679s2.01-53.727,8.779-55.419S1368.513,3841.49,1368.513,3841.49Z" transform="translate(-8.678 -20.409)" fill="#fff" opacity="0.1"/><path d="M1388.94,3891.31a11.342,11.342,0,0,0-1.351,3.021c15.862-3.925,41.864-11,41.864-11s3.1-7.9,0-15.512l1.378-58.663s-.031-5.077,0-6.205S1425.5,3788,1425.5,3788l-4.176-16.937c-.786,2.6-.7,7.275,2.051,15.668,6.346,19.348-6.03,80.678-6.03,80.678l-24.218,11.223,22.015-4.512C1409.062,3875.614,1395.96,3880.014,1388.94,3891.31Z" transform="translate(-13.519 -2.876)" fill="#103a77" opacity="0.48"/></g></g></svg>