<svg xmlns="http://www.w3.org/2000/svg" width="96" height="96" viewBox="0 0 96 96"><g transform="translate(-444 -5332)"><circle cx="48" cy="48" r="48" transform="translate(444 5332)" fill="#fff"/><g transform="translate(456.984 5345.023)"><g transform="translate(-0.001)"><path d="M120.912,239.808l2.4-2.074.659-3.547c-.43-.708-.842-1.44-1.223-2.193l-2.362,1.643-.905,4.032C119.948,238.411,120.427,239.125,120.912,239.808Z" transform="translate(-103.139 -200.261)" fill="#7675b0"/><path d="M362.75,239.808l-2.4-2.074-.659-3.547c.431-.708.842-1.44,1.223-2.193l2.362,1.643.905,4.032C363.715,238.411,363.236,239.125,362.75,239.808Z" transform="translate(-310.489 -200.261)" fill="#7675b0"/><path d="M7.087,276.486l8.386,2.2L16.7,270.58a12.3,12.3,0,0,0-3.267-8.349l-9.1-8.519S0,254.755,0,257.959V264.7c0,4.632,2.8,10.035,7.088,11.79Z" transform="translate(0.001 -219.009)" fill="#e6e5ea"/><path d="M166.161,406.9l-.807,1.584,1.34,3.174,2.862,1.02.938-1.842-.938-2.726Z" transform="translate(-142.736 -351.242)" fill="#7675b0"/><path d="M146.531,182.849c7.095,0,12.893-8.163,12.893-8.163v-4.646a12.3,12.3,0,0,1,3.267-8.349l1.187-1.307s-10.1-20.638-17.346-20.638-17.347,20.638-17.347,20.638l1.187,1.307a12.3,12.3,0,0,1,3.267,8.349v4.646S139.436,182.849,146.531,182.849Z" transform="translate(-111.513 -120.63)" fill="#ffc388"/><path d="M153.06,182.85c7.095,0,12.893-8.163,12.893-8.163l3.267-13,.152-3.315c-2.756-5.187-10.462-18.63-16.312-18.63s-13.556,13.443-16.312,18.63l.152,3.315,3.267,13S145.965,182.85,153.06,182.85Z" transform="translate(-118.043 -120.631)" fill="#fad228"/><path d="M130.372,279.262a12.3,12.3,0,0,1,3.267,8.349v4.646a23.684,23.684,0,0,0,1.83,2.184c0-.04,0-.08,0-.12v-7.838a12.3,12.3,0,0,0-3.267-8.349l-1.986-2.188c-.658,1.239-1.035,2.008-1.035,2.008Z" transform="translate(-111.515 -238.202)" fill="#ffb06a"/><path transform="translate(0)" fill="#8783b1"/><path d="M187.421,201.939l.288-3.8c-3.012-5.026-10.5-17.119-12.859-17.119S165,193.111,161.991,198.137l.288,3.8Z" transform="translate(-139.833 -156.257)" fill="#8783b1"/><path d="M146.981,309.973a12.3,12.3,0,0,0-1.519-3.8l-2.619,2.058,2.585,5.472Z" transform="translate(-123.304 -264.291)" fill="#7675b0"/><path d="M341.948,279.262a12.3,12.3,0,0,0-3.267,8.349v4.646a23.681,23.681,0,0,1-1.829,2.184c0-.04,0-.08,0-.12v-7.838a12.3,12.3,0,0,1,3.267-8.349l1.986-2.188c.658,1.239,1.035,2.008,1.035,2.008Z" transform="translate(-290.771 -238.202)" fill="#ffb06a"/><path d="M125.227,27.761a19.984,19.984,0,0,1-2.43,10.783c1.346,2.173,2.478,4.2,3.267,5.675,2.989-4.766,5.372-10.68,4.786-16.981a19.657,19.657,0,0,0-9.482-15.628,28.114,28.114,0,0,0-27.954,0,19.657,19.657,0,0,0-9.482,15.628c-.586,6.3,1.8,12.215,4.786,16.981.79-1.474,1.922-3.5,3.267-5.676a19.985,19.985,0,0,1-2.43-10.783,14.03,14.03,0,0,1,6.792-11.324,22.485,22.485,0,0,1,22.089,0,14.03,14.03,0,0,1,6.792,11.324Z" transform="translate(-72.374 -6.81)" fill="#8783b1"/><path d="M338.9,309.973a12.3,12.3,0,0,1,1.519-3.8l2.619,2.058-2.585,5.472Z" transform="translate(-292.547 -264.291)" fill="#7675b0"/><path d="M313.4,406.9l.807,1.584-1.34,3.174L310,412.677l-.939-1.842.939-2.726Z" transform="translate(-266.789 -351.242)" fill="#7675b0"/><path d="M320.127,418.478,324,426.085a2.824,2.824,0,1,1-5.032,2.564l-3.045-5.977A27.018,27.018,0,0,0,320.127,418.478Z" transform="translate(-272.711 -361.236)" fill="#8783b1"/><path d="M153.973,299.727s5.8,9.394,12.893,9.394,12.893-9.394,12.893-9.394l1.231-2.1-1.113-1.7h0s-5.945-8.378-13.011-8.378-13.011,8.378-13.011,8.378l-1.113,1.7Z" transform="translate(-131.849 -248.213)" fill="#6e678d"/><path d="M138.953,418.478l-3.875,7.607a2.824,2.824,0,1,0,5.032,2.564l3.045-5.977A27.018,27.018,0,0,1,138.953,418.478Z" transform="translate(-116.334 -361.236)" fill="#8783b1"/><g transform="translate(20.893 51.514)"><path d="M166.867,384.771c-7.095,0-12.893-8.163-12.893-8.163l-1.231,1.381,1.231,1.16s5.8,8.163,12.893,8.163,12.893-8.163,12.893-8.163l1.231-1.16-1.231-1.381S173.962,384.771,166.867,384.771Z" transform="translate(-152.743 -376.608)" fill="#615c7f"/></g><path d="M42.829,278.686l4.181-.248c1.48-.523,2.47-2.188,2.47-4.724v-5.3a12.3,12.3,0,0,0-3.267-8.349l-4.04-4.45a5.816,5.816,0,0,0-4.306-1.907H31.691l7.872,8.519a12.3,12.3,0,0,1,3.267,8.349Z" transform="translate(-27.356 -219.009)" fill="#8783b1"/><path d="M0,334.007v2.542a11.408,11.408,0,0,0,7.088,10.558l8.386,3.432,1.231-1.311L15.473,348l-8.386-3.432A11.408,11.408,0,0,1,0,334.007Z" transform="translate(0 -288.32)" fill="#d6d3e2"/><g transform="translate(15.473 54.705)"><path d="M117.3,403.43l-4.181,1.478v2.542l4.181-1.479a3.705,3.705,0,0,0,2.47-3.493v-2.542A3.705,3.705,0,0,1,117.3,403.43Z" transform="translate(-113.121 -399.937)" fill="#7675b0"/></g><path d="M399.5,276.486l-8.386,2.2-1.231-8.106a12.3,12.3,0,0,1,3.267-8.349l9.1-8.519s4.335,1.042,4.335,4.246V264.7C406.584,269.328,403.783,274.731,399.5,276.486Z" transform="translate(-336.55 -219.009)" fill="#e6e5ea"/><path d="M356.908,278.686l-4.181-.248c-1.48-.523-2.47-2.188-2.47-4.724v-5.3a12.3,12.3,0,0,1,3.267-8.349l4.04-4.45a5.816,5.816,0,0,1,4.306-1.907h6.177l-7.872,8.519a12.3,12.3,0,0,0-3.267,8.349v8.106Z" transform="translate(-302.347 -219.009)" fill="#8783b1"/><path d="M406.584,334.007v2.542a11.408,11.408,0,0,1-7.087,10.558l-8.386,3.432-1.231-1.311L391.111,348l8.386-3.432A11.408,11.408,0,0,0,406.584,334.007Z" transform="translate(-336.55 -288.32)" fill="#e6e5ea"/><g transform="translate(47.91 54.705)"><path d="M352.727,403.43l4.181,1.478v2.542l-4.181-1.479a3.705,3.705,0,0,1-2.47-3.493v-2.542A3.705,3.705,0,0,0,352.727,403.43Z" transform="translate(-350.257 -399.937)" fill="#7675b0"/></g></g></g></g></svg>