<svg xmlns="http://www.w3.org/2000/svg" width="662.957" height="339.033" viewBox="0 0 662.957 339.033"><g transform="translate(-722.521 -5883.967)"><rect width="662.957" height="314.066" transform="translate(722.521 5883.967)" fill="#fff"/><text transform="translate(924.826 5916.039)" font-size="15" font-family="Roboto-Bold, Roboto" font-weight="700"><tspan x="0" y="0">RESIDUO: DISOLVENTE HALOGENADO</tspan></text><text transform="translate(825.005 5956.07)" font-size="14" font-family="Roboto-Regular, Roboto"><tspan x="0" y="0">CÓDIGO LER 14 06 03</tspan></text><text transform="translate(756.774 6072.209)" font-size="12" font-family="Roboto-Regular, Roboto"><tspan x="0" y="0">Fecha envasado 20/09/2015</tspan></text><text transform="translate(762.955 6182.119)" font-size="12" font-family="Roboto-Regular, Roboto"><tspan x="0" y="0">INFLAMABLE</tspan></text><text transform="translate(876.137 6182.119)" font-size="12" font-family="Roboto-Regular, Roboto"><tspan x="0" y="0">TÓXICO</tspan></text><text transform="translate(754.414 5998.178)" font-size="14" font-family="Roboto-Regular, Roboto"><tspan x="0" y="0" xml:space="preserve">Productor:   xxxxxxxxxxxxxxxxxxxx</tspan><tspan x="0" y="10"></tspan><tspan x="0" y="20">Dirección: c/ yyyyyyyyyyyyyyyyyyy</tspan><tspan x="0" y="30"></tspan><tspan x="0" y="40">Teléfono: 22222222222222</tspan></text><text transform="translate(1115.375 5956.07)" font-size="14" font-family="Roboto-Bold, Roboto" font-weight="700"><tspan x="0" y="0">CÓDIGO DE PELIGRO HP3 + HP5</tspan></text><g transform="translate(-1606.773 1462.688)"><rect width="63.845" height="63.845" rx="7.094" transform="translate(2360.586 4663.314) rotate(-45)" fill="#ef3e31"/><path d="M2405.731,4701.974a3.523,3.523,0,0,1-2.507-1.038l-35.113-35.113a3.546,3.546,0,0,1,0-5.016l35.113-35.113a3.545,3.545,0,0,1,5.015,0l35.113,35.113a3.546,3.546,0,0,1,0,5.016l-35.113,35.113A3.524,3.524,0,0,1,2405.731,4701.974Z" fill="#ef3e31"/><path d="M2405.731,4699.136a.7.7,0,0,1-.5-.207l-35.113-35.112a.71.71,0,0,1,0-1l35.112-35.112a.694.694,0,0,1,.5-.208.674.674,0,0,1,.5.209l35.112,35.112a.711.711,0,0,1,0,1l-35.112,35.112A.668.668,0,0,1,2405.731,4699.136Z" fill="#fff"/></g><g transform="translate(-1606.773 1462.688)"><rect width="63.845" height="63.845" rx="7.094" transform="translate(2458.748 4663.314) rotate(-45)" fill="#ef3e31"/><path d="M2503.893,4701.974a3.525,3.525,0,0,1-2.507-1.038l-35.113-35.113a3.546,3.546,0,0,1,0-5.016l35.113-35.113a3.546,3.546,0,0,1,5.016,0l35.112,35.113a3.546,3.546,0,0,1,0,5.016l-35.112,35.113A3.529,3.529,0,0,1,2503.893,4701.974Z" fill="#ef3e31"/><path d="M2503.893,4699.136a.694.694,0,0,1-.5-.207l-35.113-35.112a.71.71,0,0,1,0-1l35.112-35.112a.7.7,0,0,1,.5-.208.673.673,0,0,1,.5.209l35.112,35.112a.708.708,0,0,1,0,1l-35.112,35.112A.668.668,0,0,1,2503.893,4699.136Z" fill="#fff"/></g><rect width="630.142" height="28.063" transform="translate(738.929 5897.624)" fill="none" stroke="#494949" stroke-miterlimit="10" stroke-width="1"/><rect width="630.142" height="75.09" transform="translate(738.929 5978.881)" fill="none" stroke="#494949" stroke-miterlimit="10" stroke-width="1"/><rect width="308.18" height="28.063" transform="translate(738.929 5938.253)" fill="none" stroke="#494949" stroke-miterlimit="10" stroke-width="1"/><rect width="307.521" height="28.063" transform="translate(1062.889 5938.253)" fill="none" stroke="#494949" stroke-miterlimit="10" stroke-width="1"/><g transform="translate(-1606.773 1462.688)"><path d="M2407.345,4677.976s12.091-1.022,11.58-15.554c0,0-1.93,3.462-5.109,2.781,0,0,1.306-1.873,1.93-2.781s1.76-6.3.568-8.515c0,0-2.157,4.371-4.087,4.427,0,0-1.306-8.8.057-9.707,0,0-3.349.227-3.86,6.018,0,0-3.293-3.861-1.079-8.061s-2.285-6.685-2.285-6.685a3.658,3.658,0,0,1,.772,1.959c.378,4.385-3.576,7.825-3.817,10.943a6.311,6.311,0,0,0,.562,3.433s-4.2-.284-3.179-7.153c0,0-3.52,2.725-.909,11.013a4.189,4.189,0,0,1-3.576-4.03,12.225,12.225,0,0,0,1.136,10.388s-3.35.511-3.293-2.384c0,0-2.554,11.3,9.2,13.908,0,0-4.144-2.952-3.973-6.529a39.761,39.761,0,0,0,4.153.852s-4.431-4.834-1.876-4.38a4.835,4.835,0,0,1,1.81.8s-1.526-7.162,3.207-8.98c0,0-1.157,3.067.83,4.372,1.66,1.092.9,3.472.391,4.324,0,0,3.462-.681,3.122-2.839,0,0,1.816,4.031-1.022,5.9,0,0,2.838.681,4.257-1.022C2412.851,4670.482,2411.432,4677.465,2407.345,4677.976Z"/><rect width="21.287" height="2.469" transform="translate(2394.629 4680.26)"/></g><path d="M2514.188,4666.142a1.927,1.927,0,0,0-2.016,1c-.584.983-1.874.373-2.865.21a2.282,2.282,0,0,1-.516-.256c.059.744.412,1.733-.93,1.2a.327.327,0,0,0-.235.02c-.434.208-.771.94-1.339.43s-.516-1.34-.6-2.031c-.067-.545.148-1.12-.338-1.576-.174-.164-.22-.4-.009-.516.859-.455.593-1.112.256-1.68-.572-.964-.031-2.062-.47-3.035-.346-.768-.616-1.572-1.045-2.336a7.934,7.934,0,0,1-.774,3.9c-.109.2-.312.725.061.883,1.312.556.595,1.713.286,2.106a4.156,4.156,0,0,0-.6,2.378,2.38,2.38,0,0,1-.588,1.388c-.393.455-.576.71-1.066.06a1.371,1.371,0,0,0-2.016-.349.761.761,0,0,1-.923.041,40.012,40.012,0,0,0-4.922-2.981c-.555-.345-.47-.657.178-.876,1.388-.47,2.757-.995,4.135-1.494a2.619,2.619,0,0,0,1.189-3.862,16.858,16.858,0,0,1-2.977-9.786c.017-4.459,3.3-8.2,7.372-8.521,4.445-.35,9.04,4.188,8.769,8.9a18.151,18.151,0,0,1-3.3,9.955,2.143,2.143,0,0,0,1.133,3.433c1.435.458,2.852.978,4.3,1.377.9.25,1.1.523.311,1.164a.571.571,0,0,0-.235.648l.032-.017c-.233-.051-.285.079-.275.272Z" transform="translate(-1606.773 1462.688)" fill="#030303"/><path d="M2514.414,4665.919a1.5,1.5,0,0,0,1.422-.1c1.866-1.476,3.394-.094,4.9.6,1.47.673,1.779,2.084,1.881,3.688a4.791,4.791,0,0,1-2.072,4.678,37.8,37.8,0,0,0-3.266,2.953c-.555.505-.85.919-1.709.016a5.349,5.349,0,0,0-3.245-1.738c-.619-.051-1-.639-1.683-.536-.274.041-.344-.422-.1-.666.206-.2.3-.4.117-.621s-.4-.132-.648-.03c-.827.343-1.086.038-.756-.763.151-.368.232-.676-.292-.644-.356.022-.955.189-.822-.259.164-.548-.2-1.368.5-1.642s.976-.878,1.4-1.338a1.965,1.965,0,0,1,1.483-.885.934.934,0,0,0,1.055-.772,1.241,1.241,0,0,1,1.167-.936c.517-.064.647-.32.436-.779l-.017.032c.1.014.162.153.294.022s-.007-.2-.019-.294Z" transform="translate(-1606.773 1462.688)" fill="#030303"/><path d="M2499.888,4671.08c.741.625-.229,1.428.331,2.125.111.138-.274.4-.526.277-1.081-.517-.747.39-.651.735.134.481.141.829-.353.973-.444.129-.7-.168-.727-.593-.017-.247-.11-.422-.326-.407a.394.394,0,0,0-.347.437c.067.61-.107.96-.8.873-.375-.048-.487.179-.525.509-.073.636-.449.8-1.077.888-.727.1-1.166.863-1.982,1.029a1.143,1.143,0,0,1-1.266-.294c-1.561-1.611-3.137-3.208-4.707-4.81a2.218,2.218,0,0,1-.254-.263c-1.15-1.631.023-5.688,1.864-6.448.489-.2.983-.394,1.477-.585a4.063,4.063,0,0,1,5.1,1.622c.067.1.137.29.2.286,1.615-.12,2.013,1.649,3.326,2.15.816.312,1.428,1.063,2.483.827.28-.063.586.313.416.7a.489.489,0,0,1-.794.247C2500.521,4671.209,2500.337,4670.966,2499.888,4671.08Z" transform="translate(-1606.773 1462.688)" fill="#030303"/><path d="M2504.477,4689.536a23.313,23.313,0,0,1,.136-4.938c.086-1.165.32-2.175-.286-3.272-.076-.138-.358-1.755,1.042-1.553.377.054.277-.2.257-.354a3.642,3.642,0,0,0-.166-1.3,1.9,1.9,0,0,1,.563-2.686c.164-.112.433-.349.482-.31.813.641,1.913-.317,2.722.526.222.231.647.321.786.684a.74.74,0,0,0,.8.45,2.917,2.917,0,0,1,2.746.909,6.164,6.164,0,0,0,1.594.725c.636.258.716.628.221,1.086C2511.787,4682.807,2508.2,4686.107,2504.477,4689.536Z" transform="translate(-1606.773 1462.688)" fill="#030303"/><path d="M2503.547,4689.33c-.411.122-.519-.156-.675-.314q-4.59-4.662-9.167-9.337c-.98-1-.87-1.238.5-1.711a36.15,36.15,0,0,0,3.67-1.533,3.092,3.092,0,0,1,1.02-.232c.533-.07,1.225.016,1.356-.826.059-.375.389-.488.764-.4a9.454,9.454,0,0,0,1.174.254c.888.089,1.324.454,1.089,1.42-.218.9.289,1.774.143,2.7-.047.3.088.615-.183.885a.6.6,0,0,0-.111.777,7.146,7.146,0,0,1,.464,6.038C2503.384,4687.75,2503.681,4688.59,2503.547,4689.33Z" transform="translate(-1606.773 1462.688)" fill="#030303"/><path d="M2503.9,4666.543c-.137-.5-.136-.867.378-.926.392-.046.727.225.561.564-.191.39-.033,1.125-.662,1.129C2503.614,4667.313,2503.936,4666.749,2503.9,4666.543Z" transform="translate(-1606.773 1462.688)" fill="#030303"/><path d="M2506.326,4669.266c.369.341,1.123.1,1.2.818a.5.5,0,0,1-.607.572,1.383,1.383,0,0,1-1.074-.968C2505.779,4669.408,2506.061,4669.306,2506.326,4669.266Z" transform="translate(-1606.773 1462.688)" fill="#030303"/><path d="M2508.341,4673.69a1.654,1.654,0,0,1-1.109.9c-.223.04-.5-.286-.336-.508.287-.382.2-1.142.972-1.073C2508.211,4673.039,2508.348,4673.272,2508.341,4673.69Z" transform="translate(-1606.773 1462.688)" fill="#030303"/><path d="M2503.865,4678.216c0-.307-.13-.768.349-.748.652.028.558.706.7,1.115.126.35-.145.644-.54.622C2503.7,4679.167,2503.806,4678.667,2503.865,4678.216Z" transform="translate(-1606.773 1462.688)" fill="#030303"/><path d="M2499.959,4668.321c.384-.015.608.165.639.468a.505.505,0,0,1-.575.594.491.491,0,0,1-.529-.523A.5.5,0,0,1,2499.959,4668.321Z" transform="translate(-1606.773 1462.688)" fill="#030303"/><path d="M2502.739,4674.245a.547.547,0,0,1,.561-.535.52.52,0,0,1,.552.537.51.51,0,0,1-.554.528A.537.537,0,0,1,2502.739,4674.245Z" transform="translate(-1606.773 1462.688)" fill="#030303"/><path d="M2514.446,4665.9c.012.1.151.163.019.294s-.2-.008-.294-.022C2514.161,4665.981,2514.213,4665.851,2514.446,4665.9Z" transform="translate(-1606.773 1462.688)" fill="#fefefe"/><text transform="translate(1147 6219)" fill="#fff" font-size="14" font-family="Roboto-Regular, Roboto"><tspan x="0" y="0">Adaptado de CGB Consultores (2018).</tspan></text></g></svg>