<svg xmlns="http://www.w3.org/2000/svg" xmlns:xlink="http://www.w3.org/1999/xlink" width="254.228" height="188" viewBox="0 0 254.228 188"><defs><linearGradient id="a" y1="0.5" x2="1" y2="0.5" gradientUnits="objectBoundingBox"><stop offset="0" stop-color="#d1d8dc"/><stop offset="1" stop-color="#e8edef"/></linearGradient><linearGradient id="b" x1="0.888" y1="0.5" x2="0.133" y2="0.497" gradientUnits="objectBoundingBox"><stop offset="0" stop-color="#d1d8dc"/><stop offset="0.425" stop-color="#e3e8eb"/><stop offset="1" stop-color="#f6fbfd"/></linearGradient></defs><g transform="translate(-667 -4834)"><g transform="translate(-996.956 1619.956)"><g opacity="0.15"><rect width="254.228" height="188" transform="translate(1663.956 3214.044)" fill="#69d1ff"/><rect width="253.228" height="187" transform="translate(1664.456 3214.544)" fill="#69d1ff"/></g><path d="M1664.456,3402.044l129.14-63.76,124.088,63.76H1664.456" fill="#b0ccd6" opacity="0.27"/></g><g transform="translate(-1267.882 1156.175)"><path d="M2142.9,3711.637l-8.256.644s1.633,3.168.805,8.758-1.2,6.234-1.2,7.062.39,8.669.39,8.669l2.645,2s.644-9.291.552-9.75,2.161-9.235,2.414-9.952,2.185-4.857,2.645-5.133S2142.9,3711.637,2142.9,3711.637Z" transform="translate(-36.885 -4.931)" fill="#007eaf"/><path d="M2043.091,3734.82s-.368-10.623-.368-11.037a40.831,40.831,0,0,1,1.609-6.669,9.172,9.172,0,0,1,2.484-2.024s-4.369,1.012-5.059,3.725a19.19,19.19,0,0,0-.229,6.14c0,.069-.276,8.209-.6,9.175S2043.091,3734.82,2043.091,3734.82Z" transform="translate(-9.42 -5.947)" fill="#007eaf"/><path d="M2057.46,3730.027s-9.732-16.7-12.478-12.74l-.261-.606s2.989-2.751,6.37-1.417,9.772,9.653,9.772,9.653Z" transform="translate(-10.544 -5.891)" fill="#0094dd"/><path d="M2023.33,3706.607l-1.932-1.747-5.2-3.127s-2.392,1.426-2.116,3.771.414,11.36,1.15,13.016,1.84,13.383,1.84,13.383l3.449-2.9v-7.45l-2.345-8.508s-.375-5.469.781-6.485a2.558,2.558,0,0,1,2.438-.552Z" transform="translate(-1.525 -2.017)" fill="#007eaf"/><path d="M2050.491,3731.541l-13.59-2.115,13.59-4.875s3.059-2.115,3.519-3.863,4.139-4.115,4.139-4.115l9.382-1.772,1.839-1.38s-5.887-4.967-5.887-5.518-.552-2.76-1.471-2.76-2.3.736-2.575,0-1.656-4.047-.46-5.427a36,36,0,0,0,2.851-3.219c.644-1.012,3.1-1.012,4.538-.368s3.1,2.943,4.936,2.667a5.651,5.651,0,0,0,2.943-1.38,6.206,6.206,0,0,1,4.783-2.483c3.311-.184,4.782.092,5.151.827s.552,3.588,0,3.955-5.243,3.5-5.243,4.692,1.288,1.38-.552,4.737-3.311,3.118-2.575,4.065,4.6,1.592,4.6,1.592,10.212,6.839,11.867,11.146,1.286,5.594,1.286,5.594l-23.086,1.2Z" transform="translate(-8.244 0)" fill="url(#a)"/><path d="M2019.92,3739.909c-.184-.552-3.679,0-3.679,0l-6.255,14.349v88.485s-.183,11.038,0,12.877a8.17,8.17,0,0,1-1.1,4.047l15.637-1.471,69.9,3.5a57.047,57.047,0,0,1,3.679-4.6c.552-.368,12.693-7.175,13.981-7.359s3.5-2.759,3.5-2.759v-2.023l-1.839-2.575s6.623-79.287-8.095-98.97c0,0,.736,5.335-4.6,1.839s-6.071-6.193-8.278-5.58-4.782,1.533-5.334,1.533-8.646-2.759-15.821-.552-22.627.368-25.387.368S2019.92,3739.909,2019.92,3739.909Z" transform="translate(0 -13.151)" fill="url(#b)"/><path d="M2017.553,3756l6.807,1.287s-1.287-17.568-.644-19.407a17.09,17.09,0,0,0,.644-4.6l-.828-11.866.828-7.726a63.907,63.907,0,0,0,1.748-6.162,33.123,33.123,0,0,0-1.839-3.312s-3.312-1.2-3.864-1.288-3.311-1.2-3.311-1.2,2.667,2.116,3.4,2.944,2.115,5.059,2.207,5.427a20.693,20.693,0,0,1-.092,2.391c0,.368-.276,6.071-1.932,7.726s-1.656,4.875-1.656,5.243-.736,13.613-.736,13.613S2020.128,3756.185,2017.553,3756Z" transform="translate(-2.416 -2.017)" fill="#0094dd"/><path d="M2116,3700.638s4.231,2.76,4.323,2.575.552,13.567.552,13.567-.414,2.161,0,2.391,2.668,5.243,2.9,5.335,3.312,8.462,3.679,9.887a40.063,40.063,0,0,1,1.472,9.474c.322,5.611,1.2,11.084,1.2,11.084s4.369-.414,4.552-.414-.827-6.347-.827-6.347-2.852-12.577-6.577-18.3a49.137,49.137,0,0,1-.736-6.577,12.448,12.448,0,0,0-.552-3.863s1.978-20.143-5.565-19.546S2116,3700.638,2116,3700.638Z" transform="translate(-31.325 -1.475)" fill="#007eaf"/><path d="M2099.976,3755.807h7.083v-24.283s-.093-6.346,0-6.714,2.667-7.175,2.667-7.175,1.2-14.993,1.2-15.453,3.955-2.115,6.439-2.207c0,0-2.3-1.748-7.175,0a9.68,9.68,0,0,0-5.979,6.346s-2.116,6.9-1.84,8.094-.828,5.52-1.288,6.9-1.38,5.8-1.84,12.969,0,21.523,0,21.523Z" transform="translate(-26.524 -1.272)" fill="#0094dd"/><path d="M2148.86,3751.193s-3.305-11.475-6.334-14.3.833-10.069.833-10.069l.621-3.242s.207-6.071-1.241-8.209-7.934-3.312-7.934-3.312l7.52-1.173s3.173.07,3.656,1.035.414,9.176.414,9.176-2.76,6.9-3.1,9.243-1.035,3.105,1.863,7.658S2148.86,3751.193,2148.86,3751.193Z" transform="translate(-37.047 -4.71)" fill="#0094dd"/><path d="M2089.543,3720.173v.923l-7.993.484.267-.948,1.428-.1,5.1-.359Z" transform="translate(-21.379 -7.442)" fill="#0094dd"/><path d="M2076.173,3717.434c-1.526.088-4.736,4.461-5.886,6.071a5.446,5.446,0,0,0-1.012,3.035c-.092.137-.966,1.518-.966,1.518l1.886-1.656.781-1.794s2.915-5.125,4.323-5.657,3.461.815,3.461.815l.589-.041A3.311,3.311,0,0,0,2076.173,3717.434Z" transform="translate(-17.484 -6.635)" fill="#0094dd"/><path d="M2075.409,3716.652a3.2,3.2,0,0,0-3.2.479,13.885,13.885,0,0,0-2.667,4.559c-.137.414.782,0,.782,0s1.656-3.449,2.391-3.91,3.251.139,3.251.139l.815-.048Z" transform="translate(-17.842 -6.337)" fill="#0094dd"/><path d="M2123.826,3753.862s.736,92.9,2.024,98.97" transform="translate(-33.817 -17.354)" fill="none" stroke="#c6c6c6" stroke-linecap="round" stroke-linejoin="round" stroke-width="0.69"/><path d="M2075.477,3700.595s.57-1.012,4.286.827a7.406,7.406,0,0,0,7.118-.552s4.324-3.4,6.071-2.758,1.748,1.522,1.748,1.522-.845-5.548-5.7-1.6-5.7,2.289-6.346,2.472S2077.777,3698.939,2075.477,3700.595Z" transform="translate(-19.593 -0.512)" fill="#c8ccce"/><path d="M2126.693,3878.22" transform="translate(-34.661 -53.94)" fill="#d8d8d8"/><path d="M2024.278,3876.582s-8.278-42.863-4.324-65.674C2019.954,3810.908,2011.217,3838.134,2024.278,3876.582Z" transform="translate(-2.416 -34.137)" fill="#fff"/><path d="M2017.093,3876.582s2.718-14.073,4.32-30.638c1.151-11.9,1.693-25.295,0-35.035C2021.416,3810.908,2030.154,3838.134,2017.093,3876.582Z" transform="translate(57.397 -34.136)" fill="#e9eef0"/><path d="M2152.135,3875.235l-1.839-2.575s1.1-13.189,1.407-30.144c-2.4,9.925-6.381,22.334-11.779,25.2-6.537,3.47-7.193,14.748-6.63,21.225a12.14,12.14,0,0,1,1.365-1.564c.552-.368,12.694-7.175,13.981-7.358s3.495-2.76,3.495-2.76Z" transform="translate(-36.556 -43.437)" fill="#cacbcc"/><path d="M2107.647,3755.9v-30.526l3.085-6.379,1.183-12.294v-3.6" transform="translate(-29.057 -2.418)" fill="none" stroke="#fff" stroke-miterlimit="10" stroke-width="0.25" stroke-dasharray="2" opacity="0.5"/><path d="M2025.313,3757.427l-.9-13.579.448-5.043v-2.073a53.6,53.6,0,0,0-.4-7.083c-.45-3.007.445-4.763.4-5.335s-.038-4.273-.038-4.273,1.109-7.909,2.091-9a6.063,6.063,0,0,0,1-3.335l-2.606-3" transform="translate(-4.548 -2.891)" fill="none" stroke="#fff" stroke-miterlimit="10" stroke-width="0.25" stroke-dasharray="2" opacity="0.5"/><path d="M2020.224,3746.74s3.588-1.38,5.519-1.242a10.42,10.42,0,0,1,4.139,1.242,34.98,34.98,0,0,0,9.52.689,38.078,38.078,0,0,1,7.451.114s8.83,1.956,12.555,1.68,13.521.414,15.866-1.1,4.416-3.331,7.45-2.631a75.214,75.214,0,0,0,10.348.975c.552,0,2.759-1.3,4.415-1.131s3.036,1.806,3.449,1.951,3.312,3.319,4.829,3.457a5.607,5.607,0,0,0,3.036-.828l1.379-1.242" transform="translate(-3.337 -14.84)" fill="none" stroke="#c6c6c6" stroke-linecap="round" stroke-linejoin="round" stroke-width="0.69"/><path d="M2029.261,3741.176l17.483,1.157,15.828.377s9.269.647,11.159-.377c0,0-1.912,3.311-9.781,2.244s-34.689-2.244-34.689-2.244H2027.8V3740.5Z" transform="translate(-5.567 -13.423)" fill="#fff" opacity="0.51"/></g></g></svg>