<svg xmlns="http://www.w3.org/2000/svg" xmlns:xlink="http://www.w3.org/1999/xlink" width="390" height="376.336" viewBox="0 0 390 376.336">
  <defs>
    <linearGradient id="linear-gradient" x1="0.099" y1="1.06" x2="0.731" y2="-0.179" gradientUnits="objectBoundingBox">
      <stop offset="0" stop-color="#c6c6c6"/>
      <stop offset="1" stop-color="#fff"/>
    </linearGradient>
  </defs>
  <g id="Grupo_53579" data-name="Grupo 53579" transform="translate(-911.049 -135.133)">
    <g id="Grupo_53376" data-name="Grupo 53376" transform="translate(252.537 821.327)">
      <path id="Trazado_101061" data-name="Trazado 101061" d="M705.245-525.885c28.024-69.5,180.22-155.127,296.57-116.6,15.958,152.177-106.807,338.6-106.807,338.6C837.185-344.355,718.869-499.193,705.245-525.885Z" transform="translate(-6.278 -5.981)" fill="#6bd1bd"/>
      <g id="Grupo_53448" data-name="Grupo 53448" transform="translate(992.409 -565.509)" opacity="0.69">
        <path id="Trazado_101141" data-name="Trazado 101141" d="M1071.228-542.05c.132-2.174-2.709-3.615-4.8-2.959-1.943.61-3.1,3.683-1.665,5.373C1066.642-537.433,1071.065-539.319,1071.228-542.05Z" transform="translate(-1046.901 545.168)" fill="#f5f5e6"/>
        <g id="Grupo_53447" data-name="Grupo 53447" transform="translate(2.845 3.25)">
          <rect id="Rectángulo_5024" data-name="Rectángulo 5024" width="22.719" height="1.296" transform="matrix(0.753, -0.657, 0.657, 0.753, 0, 36.727)" fill="#f5f5e6"/>
          <rect id="Rectángulo_5025" data-name="Rectángulo 5025" width="1.297" height="22.276" transform="translate(16.893)" fill="#f5f5e6"/>
          <rect id="Rectángulo_5026" data-name="Rectángulo 5026" width="32.92" height="1.297" transform="translate(17.407 21.652) rotate(-12.209)" fill="#f5f5e6"/>
          <rect id="Rectángulo_5027" data-name="Rectángulo 5027" width="1.298" height="22.685" transform="translate(16.971 22.583) rotate(-28.297)" fill="#f5f5e6"/>
        </g>
        <path id="Trazado_101142" data-name="Trazado 101142" d="M1050-496.446a2.968,2.968,0,0,1-2.432,1.124c-4.594,0-4.4-7.9.325-7.3C1050.758-502.264,1051.538-498.4,1050-496.446Z" transform="translate(-1044.228 539.457)" fill="#f5f5e6"/>
        <path id="Trazado_101143" data-name="Trazado 101143" d="M1068.294-509.539c4.06-.853,6.071-6.942,4.658-10.581-1.164-3-5.158-5.59-8.473-4.545C1056.886-522.273,1059.8-507.756,1068.294-509.539Z" transform="translate(-1046.359 542.445)" fill="#f5f5e6"/>
        <path id="Trazado_101144" data-name="Trazado 101144" d="M1107.852-525.391c-.777-3.132-4.747-3.33-6.28-.565-.759,1.378-1.206,3.752.255,4.768C1104.465-519.353,1108.591-522.414,1107.852-525.391Z" transform="translate(-1051.837 542.848)" fill="#f5f5e6"/>
        <path id="Trazado_101145" data-name="Trazado 101145" d="M1082.547-494.769c-1.8-3.484-5.944-1.656-6.211,1.82C1075.9-487.344,1085.256-489.539,1082.547-494.769Z" transform="translate(-1048.539 538.649)" fill="#f5f5e6"/>
      </g>
      <g id="Grupo_53450" data-name="Grupo 53450" transform="translate(658.512 -497.206)" opacity="0.76">
        <g id="Grupo_53449" data-name="Grupo 53449" transform="translate(4.143 5.826)">
          <rect id="Rectángulo_5028" data-name="Rectángulo 5028" width="1.297" height="44.844" transform="translate(29.943 0.014) rotate(-0.626)" fill="#f5f5e6"/>
          <rect id="Rectángulo_5029" data-name="Rectángulo 5029" width="1.298" height="31.762" transform="translate(0 38.28) rotate(-76.898)" fill="#f5f5e6"/>
          <rect id="Rectángulo_5030" data-name="Rectángulo 5030" width="36.831" height="1.298" transform="matrix(0.442, -0.897, 0.897, 0.442, 14.217, 77.598)" fill="#f5f5e6"/>
          <rect id="Rectángulo_5031" data-name="Rectángulo 5031" width="40.798" height="1.298" transform="translate(31.025 44.203) rotate(-5.067)" fill="#f5f5e6"/>
        </g>
        <path id="Trazado_101146" data-name="Trazado 101146" d="M692.884-397.425a10.218,10.218,0,0,0,5.519,1.034c2.11-.384,4.018-2.632,5.65-4.336a15.9,15.9,0,0,0,4.417-9.618c.46-5.005-2.13-10.873-7.265-12.448C686.865-427.195,680.883-403.469,692.884-397.425Z" transform="translate(-662.267 460.498)" fill="#f5f5e6"/>
        <path id="Trazado_101147" data-name="Trazado 101147" d="M703.7-460.869c-.706-2.656-4.031-5.385-6.763-5.4-4.693-.021-7.229,7.159-4.331,10.542C696.809-450.824,705.518-454.028,703.7-460.869Z" transform="translate(-662.927 466.265)" fill="#f5f5e6"/>
        <path id="Trazado_101148" data-name="Trazado 101148" d="M667.027-417.119a5.3,5.3,0,0,0-4.3-3.964c-2.587-.331-4.078,2.033-4.211,4.419C658.2-410.938,668-410.691,667.027-417.119Z" transform="translate(-658.512 460.199)" fill="#f5f5e6"/>
        <path id="Trazado_101149" data-name="Trazado 101149" d="M682.759-373.606a5.325,5.325,0,0,0-5.725-.908c-3.4,1.625-2.889,5.686-.256,7.7C681.863-362.913,687.675-369.212,682.759-373.606Z" transform="translate(-660.679 454.001)" fill="#f5f5e6"/>
        <path id="Trazado_101150" data-name="Trazado 101150" d="M748.569-416.214a5.325,5.325,0,0,0-5.725-.909c-3.4,1.626-2.889,5.686-.257,7.7C747.672-405.522,753.484-411.82,748.569-416.214Z" transform="translate(-669.52 459.726)" fill="#f5f5e6"/>
      </g>
      <g id="Grupo_53470" data-name="Grupo 53470" transform="translate(739.422 -619.483)" opacity="0.76">
        <g id="Grupo_53449-2" data-name="Grupo 53449" transform="translate(2.529 3.557)">
          <rect id="Rectángulo_5028-2" data-name="Rectángulo 5028" width="0.792" height="27.377" transform="translate(18.28 0.009) rotate(-0.626)" fill="#f5f5e6"/>
          <rect id="Rectángulo_5029-2" data-name="Rectángulo 5029" width="0.792" height="19.39" transform="translate(0 23.37) rotate(-76.898)" fill="#f5f5e6"/>
          <rect id="Rectángulo_5030-2" data-name="Rectángulo 5030" width="22.485" height="0.792" transform="matrix(0.442, -0.897, 0.897, 0.442, 8.679, 47.372)" fill="#f5f5e6"/>
          <rect id="Rectángulo_5031-2" data-name="Rectángulo 5031" width="24.906" height="0.793" transform="translate(18.94 26.985) rotate(-5.067)" fill="#f5f5e6"/>
        </g>
        <path id="Trazado_101146-2" data-name="Trazado 101146" d="M690.382-407.517a6.237,6.237,0,0,0,3.37.631c1.288-.235,2.453-1.607,3.449-2.647a9.709,9.709,0,0,0,2.7-5.872c.281-3.056-1.3-6.638-4.435-7.6C686.708-425.691,683.055-411.207,690.382-407.517Z" transform="translate(-671.691 446.022)" fill="#f5f5e6"/>
        <path id="Trazado_101147-2" data-name="Trazado 101147" d="M698.9-462.971a4.954,4.954,0,0,0-4.128-3.294c-2.865-.013-4.413,4.37-2.644,6.436C694.694-456.839,700.01-458.795,698.9-462.971Z" transform="translate(-674.01 466.265)" fill="#f5f5e6"/>
        <path id="Trazado_101148-2" data-name="Trazado 101148" d="M663.711-418.675a3.233,3.233,0,0,0-2.623-2.42c-1.58-.2-2.49,1.241-2.571,2.7C658.321-414.9,664.3-414.751,663.711-418.675Z" transform="translate(-658.512 444.975)" fill="#f5f5e6"/>
        <path id="Trazado_101149-2" data-name="Trazado 101149" d="M679.6-374.141a3.251,3.251,0,0,0-3.5-.554c-2.075.992-1.764,3.471-.156,4.7C679.051-367.613,682.6-371.458,679.6-374.141Z" transform="translate(-666.118 423.221)" fill="#f5f5e6"/>
        <path id="Trazado_101150-2" data-name="Trazado 101150" d="M745.408-416.749a3.251,3.251,0,0,0-3.5-.555c-2.075.992-1.764,3.471-.157,4.7C744.86-410.221,748.408-414.067,745.408-416.749Z" transform="translate(-697.15 443.312)" fill="#f5f5e6"/>
      </g>
    </g>
    <g id="Grupo_53578" data-name="Grupo 53578" transform="translate(0.782 -23.204)">
      <g id="Grupo_53577" data-name="Grupo 53577" transform="translate(1005.333 158.337)">
        <g id="_1" data-name="1" transform="translate(0 0)">
          <g id="Grupo_53575" data-name="Grupo 53575">
            <path id="Trazado_101062" data-name="Trazado 101062" d="M555.118-349.25l129.608,1.16,1.392,14.371H560.452Z" transform="translate(-441.835 415.089)" fill="#4b4b4b"/>
            <path id="Trazado_101070" data-name="Trazado 101070" d="M649.546-348.406c-3.033,4.744-5.685,9.681-8.223,14.672h14.835c3.959-4.862,7.843-9.71,11.834-14.5Z" transform="translate(-440.32 415.104)" fill="#3c3c3c"/>
            <g id="Grupo_53301" data-name="Grupo 53301" transform="translate(174.143 18.51)">
              <path id="Trazado_101071" data-name="Trazado 101071" d="M614.927-348.106v-19.87c0-10.2,8.464-12.753,8.464-12.753l-.928-4.444h7.881l-.464,4.444s7.317,1.424,7.535,11.94,0,21.029,0,21.029Z" transform="translate(-614.927 395.948)" fill="#f5f5e6"/>
              <path id="Trazado_101072" data-name="Trazado 101072" d="M616.638-349.851v-18.155c0-8.726,6.937-11,7.233-11.091l1.509-.47-.314-1.548-.488-2.348h3.813l-.43,4.107,1.562.3c.226.049,5.945,1.385,6.13,10.27.166,7.871.078,15.816.029,19.228Z" transform="translate(-614.897 395.978)" fill="#b4dc32"/>
              <path id="Trazado_101073" data-name="Trazado 101073" d="M616.638-362.571v12.353l19.04.3c.037-2.321.089-6.76.062-11.835A92.914,92.914,0,0,1,616.638-362.571Z" transform="translate(-614.897 396.345)" fill="#326400"/>
              <path id="Trazado_101074" data-name="Trazado 101074" d="M618.425-394.137,621.906-383l9.476.238,3.3-11.378C628.336-396.831,621.469-395.7,618.425-394.137Z" transform="translate(-614.866 395.762)" fill="#f5f5e6"/>
              <path id="Trazado_101075" data-name="Trazado 101075" d="M621.111-369.385l.525,14,9.564,1.3.521-15.3Z" transform="translate(-614.818 396.225)" fill="#f5f5e6"/>
              <path id="Trazado_101076" data-name="Trazado 101076" d="M626.92-379.553c5.042,3.564,6.347,4.037,6.694,9.147s.436,19.286.436,19.286h-2.436s.258-17.091,0-19.286S630.049-377.12,626.92-379.553Z" transform="translate(-614.716 396.047)" fill="#fff" opacity="0.3" style="isolation: isolate"/>
            </g>
            <g id="Grupo_53302" data-name="Grupo 53302" transform="translate(200.687 8.684)">
              <path id="Trazado_101077" data-name="Trazado 101077" d="M641.013-348.017v-25.931c0-13.314,8.47-16.641,8.47-16.641l-.929-5.8h7.89l-.464,5.8s7.309,1.856,7.535,15.582,0,27.443,0,27.443Z" transform="translate(-641.013 405.577)" fill="#f5f5e6"/>
              <path id="Trazado_101078" data-name="Trazado 101078" d="M642.722-350.289v-23.7c0-11.386,6.942-14.353,7.236-14.474l1.508-.614-.312-2.018-.491-3.065h3.814l-.429,5.359,1.564.4c.232.064,5.941,1.807,6.13,13.4.166,10.273.079,20.64.03,25.094Z" transform="translate(-640.983 405.616)" fill="#006432"/>
              <path id="Trazado_101079" data-name="Trazado 101079" d="M644.508-403.793l3.48,11.138,9.482.232,3.3-11.378C654.422-406.486,647.553-405.357,644.508-403.793Z" transform="translate(-640.952 405.418)" fill="#3c3c3c"/>
              <path id="Trazado_101080" data-name="Trazado 101080" d="M659.292-385.31a29.468,29.468,0,0,1-13.173-.149c-1.732,2.193-3.4,5.744-3.4,11.32v23.7l19.045.385c.05-4.453.135-14.82-.031-25.094C661.658-380.154,660.548-383.321,659.292-385.31Z" transform="translate(-640.983 405.769)" fill="#649600"/>
              <path id="Trazado_101081" data-name="Trazado 101081" d="M653.006-389.054c5.045,4.652,6.349,5.27,6.7,11.939s.437,25.164.437,25.164H657.7s.265-22.3,0-25.164S656.139-385.876,653.006-389.054Z" transform="translate(-640.802 405.706)" fill="#fff" opacity="0.3" style="isolation: isolate"/>
              <path id="Trazado_101082" data-name="Trazado 101082" d="M646.653-377.5l.953,18.172h8.005l.7-17.735Z" transform="translate(-640.914 405.909)" fill="#f5f5e6"/>
            </g>
            <ellipse id="Elipse_3963" data-name="Elipse 3963" cx="73.615" cy="45.715" rx="73.615" ry="45.715" transform="translate(62.284 267.907)" fill="#1a5b4f" opacity="0.6"/>
            <path id="Trazado_102853" data-name="Trazado 102853" d="M635.551-136.421c1.647,6,4.3,10.551,2.909,18.492-4.929,4.988-12.5,10.25-19.249,14.491l0,.044c-12.2,8.055-27.532,13.144-32.276,3.613-.8-2.541,1.229-6.245,3.113-8.155,5.7-5.779,15.22-7.984,16.843-16.827a30.471,30.471,0,0,0,.253-7.693Z" transform="translate(-441.279 418.828)" fill="#4d4948" fill-rule="evenodd"/>
            <path id="Trazado_102854" data-name="Trazado 102854" d="M638.848-122.913c-3.027,7.233-7.125,5.94-10.415,8.629-10.072,8.236-12.079,15.537-27.122,18.428-6.079,1.169-13.468-1.018-14.592-4.721l.589,3.955c1.291,3.115,8.683,5.771,14.595,4.448,16.37-3.661,37.418-21.258,38.879-24.495C642.11-119.61,639.493-120.832,638.848-122.913Z" transform="translate(-441.28 419.065)" fill="#3c3c3b" fill-rule="evenodd"/>
            <path id="Trazado_102855" data-name="Trazado 102855" d="M564.744-272.206s-.511.37-1.419,1.068a30.193,30.193,0,0,0-2.185-3.308l-.535-.331s-46.376,39.3-46.048,74.483c0,.137,0,.276,0,.414h0l.022,1.057h0l.023,1.041h0l.026,1.024h0l.027,1.006h0l.032.988h0l.033.972h0l.035.954h0l.038.941.042.922.044.909.047.894.048.878.052.864.055.85.058.836.06.824.066.81.067.8.07.786.074.774.077.762.081.752.085.741.088.731.093.72.1.71.1.7.1.694.108.684.112.677h0l.115.668h0l.118.661h0l.125.653h0l.128.646h0l.133.639h0l.137.636h0l.143.629h0l.146.623h0l.151.619h0l.156.616h0l.161.61h0l.167.605h0l.172.6h0l.175.6h0l.182.6h0l.186.6h0l.192.592h0l.2.591h0l.2.588h0l.208.589h0l.216.586.219.589.228.588.231.588.238.589.243.59.252.592.254.594.263.6.268.6.276.6.281.606.288.61.293.615c2.236,12.838,18.337,14.312,27.9,8.125-.147.023-.281.036-.422.055a9.959,9.959,0,0,0,4.835-6.825c-3.515-33.8,8.022-63.174,27.745-74.677-3.929,22.847,18.209,84.736,24.771,93.855.621,11.112,28.48,16.76,27.831-5.606,3.062-11.341-9.3-23.746-13.987-51.277-1.7-9.955,3.1-38.833,3.162-47.627.2-29.231-2.584-41.743-12.555-51.85-7.615,9.234-31.658,23.963-42.885,18.965Z" transform="translate(-442.547 416.135)" fill="#fff" fill-rule="evenodd"/>
            <path id="Trazado_102856" data-name="Trazado 102856" d="M583.1-227.977l.032-.019-.032-.038v.057Zm0,.265v-.075l.032-.209A.72.72,0,0,1,583.1-227.713ZM574.657-242.1c0,18.907-17.491-19.341-17.491,8.293,0,7.684-6.552,3.946-10.433,7.832-8.877,8.892-26.864,34.648-26.112,48.636.384,7.133.714,13.593,1,19.5l.056.126.268.6.276.6.281.606.288.61.293.615c2.236,12.838,18.337,14.312,27.9,8.125-.147.023-.281.036-.422.055a9.959,9.959,0,0,0,4.835-6.825c-3.513-33.784,8.01-63.141,27.713-74.658v-.057c-3.517-4.034-2.566-14.063-8.445-14.063Zm8.445,14.309v.075l-.033.138Z" transform="translate(-442.441 416.934)" fill="#d3d1cd" fill-rule="evenodd"/>
            <path id="Trazado_102857" data-name="Trazado 102857" d="M470.4-270.112l11.725,10.447c5.259-4.079,16.406-15.91,23.446-23.807,5.652-6.34,35.453-36.31,41.6-54.4-7.857-19.131,13.88-31.04,2.522-32.439-11.274-1.388-17.1,1.072-24.913,10.383-6.229,11.18-24.793,51.119-33.477,61.807C475.743-279.673,471.642-278.786,470.4-270.112Z" transform="translate(-443.323 414.713)" fill="#fff" fill-rule="evenodd"/>
            <path id="Trazado_102858" data-name="Trazado 102858" d="M509.144-304.027c-19.012,6.919-.1,4.118-2.028,9.261-.963,2.564-3.893.1-8.2,3.309-7.925,5.906-1.091,13.1-15.665,21.22-3.323,1.85-6.306,3.527-12.221.456-.138,5.939,3.049,9.549,11.091,9.757,12.955,1.6,28.07-21.381,35.105-29.28,6.892-7.736,32.557-51.524,35.788-59.841-16.929-2.535-26.342-1.047-30.435,8.681C517.938-329.439,519.3-309.534,509.144-304.027Z" transform="translate(-443.312 415.072)" fill="#d3d1cd" fill-rule="evenodd"/>
            <path id="Trazado_102859" data-name="Trazado 102859" d="M555.7-150.863c.1,6.225,1.539,11.289-1.784,18.635-6.015,3.6-14.658,6.817-22.25,9.245l-.009.044c-13.825,4.765-29.937,5.88-32.159-4.531-.146-2.661,2.743-5.743,5.045-7.124,6.96-4.178,16.727-3.945,20.5-12.107a30.365,30.365,0,0,0,2.159-7.387Z" transform="translate(-442.812 418.518)" fill="#4d4948" fill-rule="evenodd"/>
            <path id="Trazado_102860" data-name="Trazado 102860" d="M555.479-137.03c-4.731,6.252-8.378,3.979-12.234,5.767-11.8,5.47-15.564,12.043-30.854,11.1-6.178-.381-12.791-4.337-12.958-8.2l-.414,3.979c.476,3.338,6.974,7.75,13.029,7.939,9.43.3,17.314-2.948,27.9-7.537,7.876-3.416,13.606-3.9,15.854-6.513C557.817-133.019,555.587-134.854,555.479-137.03Z" transform="translate(-442.82 418.817)" fill="#3c3c3b" fill-rule="evenodd"/>
            <path id="Trazado_102861" data-name="Trazado 102861" d="M594.214-108.648c8.8-8.614,13.487-4.66,16.072-13.777,6.744,3.036,19.98-.819,24.579-8.095h0c3.713,10.415-3.1,8.482-9.957,13.6-6.6,4.928-17.352,17.028-26.568,17.511C591-99.023,590.406-104.923,594.214-108.648Z" transform="translate(-441.189 418.932)" fill="#666" fill-rule="evenodd"/>
            <path id="Trazado_102862" data-name="Trazado 102862" d="M593.693-359.54s.506,14.78,1.813,22.326c1.268,15.161,10.658,34.662,16.722,48.931-7.835,26.575-33.359,41.357-51.857,14.927-19.352-10.754-33.294-38-32.565-67.885,2.328-9.1,2.873-21.367,11.938-26.519C555.9-376.941,593.945-360.043,593.693-359.54Z" transform="translate(-442.315 414.716)" fill="#fff" fill-rule="evenodd"/>
            <path id="Trazado_102863" data-name="Trazado 102863" d="M582.455-227.553c-3.467,14.5-5.83,32.038-4.071,48.44,1.137,10.605,19.936,45.414,28.843,45.414.428,7.674,11.09,13.907,24.8,1.569-1.687-.546-10.169.6-12.63-.769-16.923-9.4-8.59-37.6-12.431-41.057-5.641-5.087-12.162-.764-13.719-7.952-4.518-20.858,5.729-55.238,10.635-75.332-3.291-1.094-12.29,19.639-23.5,11.429-2.1-1.539-13.051-14.015-20.25-23.654C554.216-262.276,578.526-231.164,582.455-227.553Z" transform="translate(-441.763 416.491)" fill="#d3d1cd" fill-rule="evenodd"/>
            <path id="Trazado_102864" data-name="Trazado 102864" d="M606.378-130.263c-.144-1.1-.121-6.769.023-5.67,2.65,11.491,29.306,7.315,27.442-6.3.038-.561,2.66,6.437,2.512,8C634.451-122.641,607.881-118.943,606.378-130.263Z" transform="translate(-440.936 418.725)" fill="#3c3c3b"/>
            <path id="Trazado_102865" data-name="Trazado 102865" d="M476.427-263c.042-2.428-5.274-7.793-7.176-4.984-2.127,2.06-10.246,10.08-10.7,10.751a26.55,26.55,0,0,0-1.868,3.1,6.085,6.085,0,0,0-.775,4.427c.073,1.633.155,6.327.347,7.782.607,2.579,1.021,6.074,2.109,8.276a1.454,1.454,0,0,0,1.365-.779c.387.868.673,2.467,1.817,2.154a2.848,2.848,0,0,0,1.83-2.672l.232,1.053c1.63.76,3.022-2.03,3.221-3.089.19-1.034-.314-4.243-.156-5.306.392-2.579,1.257-8.533.818-2.4-.227,2.661-.008,6.339,1.308,5.661,2.713-1.4,1.39-3.679,1.88-6.325.431-2.336,1.583-7.024,3.15-9.072C477.2-258.836,476.368-259.655,476.427-263Z" transform="translate(-443.579 416.503)" fill="#e2a713" fill-rule="evenodd"/>
            <path id="Trazado_102866" data-name="Trazado 102866" d="M470.46-271.846A45.756,45.756,0,0,0,482.186-261.4c-2.769,2.056-4.564,3.255-4.564,3.255-6.776-2.639-11.4-6.9-10.133-10.469C468.343-269.511,469.353-270.6,470.46-271.846Z" transform="translate(-443.378 416.449)" fill="#ffc013" fill-rule="evenodd"/>
            <path id="Trazado_102867" data-name="Trazado 102867" d="M525.807-152.108c.134-1.1,1.568-6.586,1.434-5.486-.293,11.79,26.565,14.376,28.146.727.176-.533.974,6.9.444,8.372C551.1-137.741,524.445-140.771,525.807-152.108Z" transform="translate(-442.351 418.454)" fill="#3c3c3b"/>
            <path id="Trazado_102868" data-name="Trazado 102868" d="M508.738-133.239c10.672-6.152,14.221-1.158,18.994-9.344,5.778,4.62,19.556,4.178,25.822-1.724h0c1,11.012-5.113,7.446-13.028,10.695-7.623,3.13-21.043,12.175-30.089,10.351C503.226-124.717,504.123-130.577,508.738-133.239Z" transform="translate(-442.713 418.69)" fill="#666" fill-rule="evenodd"/>
            <path id="Trazado_102869" data-name="Trazado 102869" d="M535.336-248.807l43.524,118.333a10.256,10.256,0,0,1,.456,2.062c5.265,33.884-75.253,61.467-88.281,28.805h0L448.02-216.558Z" transform="translate(-443.716 416.854)" fill="#e94b46" fill-rule="evenodd"/>
            <path id="Trazado_102870" data-name="Trazado 102870" d="M485.313-230.713,537.294-87.994c-10.87,2.967-21.97,3.643-30.778,1.146l-48.7-133.709Z" transform="translate(-443.544 417.172)" fill="#b72525" fill-rule="evenodd"/>
            <path id="Trazado_102871" data-name="Trazado 102871" d="M504.778-210.165,547.729-92.242c-2.072.886-4.186,1.7-6.326,2.421L498.454-207.737Q501.711-208.83,504.778-210.165Z" transform="translate(-442.83 417.533)" fill="#b72525" fill-rule="evenodd"/>
            <path id="Trazado_102872" data-name="Trazado 102872" d="M456.278-186.611a19.367,19.367,0,0,1,.184-6.927l3.452,9.478.029-.01c12.521,33.04,93.574,5.516,88.276-28.5a16.567,16.567,0,0,0-.879-3.329l-3.159-8.95a18.5,18.5,0,0,1,6.827,11.491C557.791-172.644,463.069-145.437,456.278-186.611Z" transform="translate(-443.575 417.275)" fill="#b72525" fill-rule="evenodd"/>
            <path id="Trazado_102873" data-name="Trazado 102873" d="M455.667-188.617a19.39,19.39,0,0,1,.184-6.927l3.452,9.48.029-.011c12.521,33.04,93.574,5.516,88.276-28.5a16.471,16.471,0,0,0-.879-3.328l-3.159-8.951a18.5,18.5,0,0,1,6.827,11.49C557.18-174.65,462.458-147.443,455.667-188.617Z" transform="translate(-443.586 417.239)" fill="#f45858" fill-rule="evenodd"/>
            <path id="Trazado_102874" data-name="Trazado 102874" d="M473.832-138.415a19.412,19.412,0,0,1,.184-6.927l3.453,9.479.028-.01c12.521,33.04,93.573,5.516,88.276-28.5a16.548,16.548,0,0,0-.879-3.327l-3.161-8.952a18.5,18.5,0,0,1,6.827,11.491C575.345-124.448,480.623-97.24,473.832-138.415Z" transform="translate(-443.267 418.121)" fill="#b72525" fill-rule="evenodd"/>
            <path id="Trazado_102875" data-name="Trazado 102875" d="M473.222-140.42a19.389,19.389,0,0,1,.184-6.927l3.453,9.479.027-.011c12.521,33.04,93.573,5.517,88.276-28.5a16.607,16.607,0,0,0-.878-3.328l-3.161-8.951a18.5,18.5,0,0,1,6.826,11.491C574.735-126.453,480.013-99.246,473.222-140.42Z" transform="translate(-443.278 418.086)" fill="#f45858" fill-rule="evenodd"/>
            <path id="Trazado_102876" data-name="Trazado 102876" d="M444.63-217.589c-2.509-16.143,16.7-35.237,42.907-42.639s49.485-.312,51.995,15.83-16.7,35.237-42.908,42.64S447.138-201.448,444.63-217.589Z" transform="translate(-443.78 416.601)" fill="#ba1c00" fill-rule="evenodd"/>
            <path id="Trazado_102877" data-name="Trazado 102877" d="M444.011-219.723c-2.508-16.142,16.7-35.237,42.908-42.639s49.484-.311,51.994,15.831-16.7,35.237-42.907,42.639S446.52-203.58,444.011-219.723Z" transform="translate(-443.791 416.564)" fill="#e94b46" fill-rule="evenodd"/>
            <path id="Trazado_102878" data-name="Trazado 102878" d="M446.782-220.552c-2.36-15.184,15.711-33.144,40.358-40.106s46.546-.292,48.9,14.89-15.711,33.144-40.358,40.106S449.141-205.37,446.782-220.552Z" transform="translate(-443.742 416.597)" fill="#e94b46" fill-rule="evenodd"/>
            <path id="Trazado_102879" data-name="Trazado 102879" d="M450.727-221.734c-2.147-13.817,14.3-30.162,36.726-36.5s42.357-.268,44.505,13.55-14.3,30.162-36.726,36.5S452.875-207.916,450.727-221.734Z" transform="translate(-443.672 416.644)" fill="#b72525" fill-rule="evenodd"/>
            <path id="Trazado_102880" data-name="Trazado 102880" d="M452.831-218.4c-2.1-13.54,14.012-29.556,35.989-35.763,19.334-5.462,36.767-1.518,42.117,8.726.069.311.132.628.182.948,2.1,13.539-14.011,29.556-35.988,35.764-19.334,5.461-36.768,1.515-42.117-8.729C452.944-217.761,452.881-218.076,452.831-218.4Z" transform="translate(-443.635 416.716)" fill="#e94b46" fill-rule="evenodd"/>
            <path id="Trazado_102881" data-name="Trazado 102881" d="M460.814-237.59c-.45-2.9,3-6.322,7.7-7.649s8.878-.057,9.328,2.839-3,6.322-7.7,7.65S461.264-234.694,460.814-237.59Z" transform="translate(-443.492 416.907)" fill="#f45858" fill-rule="evenodd"/>
            <path id="Trazado_102882" data-name="Trazado 102882" d="M477.592-243.258h0l.007.019-.009-.018Zm1.343,3.717v.664c-.254,2.685-3.478,5.594-7.723,6.792-4.311,1.218-8.181.248-9.141-2.155h0l-1.022-2.585c1.043,2.312,4.853,3.227,9.088,2.03,4.7-1.328,8.148-4.754,7.7-7.65a3.228,3.228,0,0,0-.129-.53l.907,2.31a3.1,3.1,0,0,1,.211.537v0h0a3.055,3.055,0,0,1,.085.39Z" transform="translate(-443.487 416.951)" fill="#b72525" fill-rule="evenodd"/>
            <path id="Trazado_102883" data-name="Trazado 102883" d="M461.718-237.86c-.4-2.584,2.673-5.639,6.867-6.824s7.918-.049,8.32,2.534-2.673,5.638-6.866,6.823S462.12-235.277,461.718-237.86Z" transform="translate(-443.476 416.918)" fill="#b72525" fill-rule="evenodd"/>
            <path id="Trazado_102884" data-name="Trazado 102884" d="M461.516-238.416c-.4-2.584,2.672-5.639,6.866-6.824s7.919-.05,8.321,2.534-2.673,5.638-6.867,6.823S461.917-235.833,461.516-238.416Z" transform="translate(-443.48 416.908)" fill="#e94b46" fill-rule="evenodd"/>
            <path id="Trazado_102885" data-name="Trazado 102885" d="M486.317-104.14a19.359,19.359,0,0,1,.183-6.926l3.453,9.479.029-.011c12.52,33.04,93.573,5.516,88.275-28.5a16.549,16.549,0,0,0-.878-3.327l-3.16-8.951a18.5,18.5,0,0,1,6.827,11.491C587.829-90.173,493.107-62.965,486.317-104.14Z" transform="translate(-443.048 418.723)" fill="#b72525" fill-rule="evenodd"/>
            <path id="Trazado_102886" data-name="Trazado 102886" d="M485.706-106.145a19.383,19.383,0,0,1,.183-6.926l3.453,9.478.029-.01c12.519,33.039,93.572,5.516,88.275-28.5a16.623,16.623,0,0,0-.879-3.328l-3.16-8.951a18.508,18.508,0,0,1,6.827,11.491C587.218-92.178,492.5-64.97,485.706-106.145Z" transform="translate(-443.058 418.688)" fill="#f45858" fill-rule="evenodd"/>
            <path id="Trazado_102887" data-name="Trazado 102887" d="M530.64-134.467v-2.7a6.606,6.606,0,0,0,3.016.939c2.646.257,6.264-1.842,7.757-5.107a11.548,11.548,0,0,1-4.081,5.477,9.1,9.1,0,0,1-6.153,1.489c-.185-.026-.362-.057-.538-.091.176.034.353.064.538.091a9.1,9.1,0,0,0,6.153-1.489,11.548,11.548,0,0,0,4.081-5.477c-1.493,3.265-5.111,5.365-7.757,5.107a6.606,6.606,0,0,1-3.016-.939v-.13a7.12,7.12,0,0,0,3.016,1.069c3.238.282,6.264-1.842,7.757-5.107a11.548,11.548,0,0,1-4.081,5.477,8.793,8.793,0,0,1-6.153,1.489c-.182-.027-.36-.061-.538-.1Zm0-5.593a11.009,11.009,0,0,0,1.938-4.384,14.366,14.366,0,0,0-.414-6.038c-.388-1.065-.145-.374-.224-.556a8.727,8.727,0,0,0-.855.643c-.154.129-.3.262-.446.4v9.934Zm0-11.167v-3.719a9.987,9.987,0,0,1,3.608-.7,7.567,7.567,0,0,1,5.262,1.986,9.491,9.491,0,0,1,2.638,5.572,6.526,6.526,0,0,0-6.146-5.3,7.916,7.916,0,0,0-5.362,2.157Zm0-3.72a9.992,9.992,0,0,1,3.612-.7,7.552,7.552,0,0,1,5.258,1.987,9.545,9.545,0,0,1,2.638,5.572,6.522,6.522,0,0,0-6.142-5.3,7.886,7.886,0,0,0-5.366,2.158,7.886,7.886,0,0,1,5.366-2.158,6.522,6.522,0,0,1,6.142,5.3,9.545,9.545,0,0,0-2.638-5.572,7.552,7.552,0,0,0-5.258-1.987A9.992,9.992,0,0,0,530.64-154.947Zm-8.35-1.556a10.149,10.149,0,0,1,3.308.21,7.864,7.864,0,0,1-.366,1.26,7.334,7.334,0,0,1-.562,1.151,7.707,7.707,0,0,0-2.38-.118v-2.5Zm8.35,1.557a12.113,12.113,0,0,0-1.317.621,10.585,10.585,0,0,0-.528-5.428,9.4,9.4,0,0,0-3.891-4.75,9.4,9.4,0,0,0-2.614-1.043h0A9.51,9.51,0,0,1,524.9-164.5a9.4,9.4,0,0,1,3.891,4.746,10.612,10.612,0,0,1,.528,5.432,12.038,12.038,0,0,1,1.317-.622,12.038,12.038,0,0,0-1.317.622,10.612,10.612,0,0,0-.528-5.432A9.4,9.4,0,0,0,524.9-164.5a9.51,9.51,0,0,0-2.614-1.042v.362a7.026,7.026,0,0,1,3.886,4.345,9.015,9.015,0,0,1-3.886,10.431v.859l.256.705a2.9,2.9,0,0,1,2.7,1.616c.269.737.17.683.147,1.023.631.1,1.263.189,1.892.271a9.724,9.724,0,0,1,3.268-5.223l.083-.07v-3.719Zm0,4.952v9.934a10.526,10.526,0,0,1-.74.891,6.117,6.117,0,0,1-.46-.535,7.108,7.108,0,0,1-.9-1.569,8.365,8.365,0,0,0,1.428-8,8.211,8.211,0,0,1,.671-.721Zm0,12.7a7.463,7.463,0,0,1-1.964-1.814A8.1,8.1,0,0,1,527.1-144.8q-1.006-.142-2.014-.309a2.471,2.471,0,0,1-1.348,1.178,2.5,2.5,0,0,1-1.449.075v0a2.491,2.491,0,0,0,1.446-.077,2.487,2.487,0,0,0,1.351-1.178q1.009.166,2.014.309a8.1,8.1,0,0,0,1.575,5.691,7.581,7.581,0,0,0,1.964,1.945v-.13Zm0,.13a7.581,7.581,0,0,1-1.964-1.945A8.1,8.1,0,0,1,527.1-144.8q-1.006-.142-2.014-.309a2.487,2.487,0,0,1-1.351,1.178,2.491,2.491,0,0,1-1.446.077v3.776a8,8,0,0,1,.766,3.015,7.347,7.347,0,0,1-.766,3.713v.178a6.4,6.4,0,0,0,.762-3.89,8,8,0,0,0-.762-3.012,8,8,0,0,1,.762,3.012,6.4,6.4,0,0,1-.762,3.89v2.893a8.435,8.435,0,0,0,1.9-1.543,8.878,8.878,0,0,0,2.259-4.683,8.851,8.851,0,0,0,4.2,2.046,8.851,8.851,0,0,1-4.2-2.046,8.878,8.878,0,0,1-2.259,4.683,8.435,8.435,0,0,1-1.9,1.543v.019a8.854,8.854,0,0,0,1.9-1.562,9.609,9.609,0,0,0,2.259-4.683,9.554,9.554,0,0,0,4.2,2.038v-2.7Zm0-14.06-.08.067a9.751,9.751,0,0,0-3.271,5.225c-.629-.081-1.258-.175-1.888-.272a1.456,1.456,0,0,0-.151-1.022,2.907,2.907,0,0,0-2.706-1.619l-.254-.7.254.7a2.907,2.907,0,0,1,2.706,1.619,1.456,1.456,0,0,1,.151,1.022c.63.1,1.259.19,1.888.272a9.751,9.751,0,0,1,3.271-5.225l.08-.067Zm-8.35.816a9.009,9.009,0,0,0,3.886-10.428,7.026,7.026,0,0,0-3.886-4.345,7.026,7.026,0,0,1,3.886,4.345A9.009,9.009,0,0,1,522.29-150.409Zm-2.052-5.7a11.362,11.362,0,0,1,2.052-.394v2.5a8.531,8.531,0,0,0-2.043.477l-.009,0v-2.589Zm2.052-9.437h0a9.726,9.726,0,0,0-2.052-.257v.1a7.4,7.4,0,0,1,2.052.517v-.362a9.726,9.726,0,0,0-2.052-.257,9.793,9.793,0,0,1,2.052.256Zm0,15.139v.859l-.264-.721c.089-.044.177-.091.264-.137Zm0,6.549v0a2.679,2.679,0,0,1-.343-.108c-.45.516-.9,1.027-1.35,1.526a8.22,8.22,0,0,1,1.693,2.362,8.22,8.22,0,0,0-1.693-2.362c.452-.5.9-1.01,1.35-1.526a2.679,2.679,0,0,0,.343.108v3.776a8.269,8.269,0,0,0-1.693-2.358c.452-.5.9-1.01,1.35-1.526a2.675,2.675,0,0,0,.343.106Zm0,10.506v.178a8.043,8.043,0,0,1-1.194,1.516,5.043,5.043,0,0,1-.859.7,5.043,5.043,0,0,0,.859-.7,8.043,8.043,0,0,0,1.194-1.516v2.893a9.418,9.418,0,0,1-2.052.924v-1.578a6.622,6.622,0,0,0,.859-.722,7.15,7.15,0,0,0,1.194-1.694Zm0,3.071a9.418,9.418,0,0,1-2.052.924v.013a8.712,8.712,0,0,0,2.052-.918v-.019Zm-2.052-6.445v-2.533a8.42,8.42,0,0,0,1.529.449,6.885,6.885,0,0,1,.318,1.781,5.886,5.886,0,0,1,0,.708,10.74,10.74,0,0,1-1.845-.405Zm0-7.022L521-144.6c-.233-.25-.275-.144-.543-.882a2.908,2.908,0,0,1,1.033-2.976c-.172-.473-.347-.95-.52-1.428a7.306,7.306,0,0,1-.735.142v6Zm2.052-5.8-.265-.726c.09-.043.178-.09.265-.136-.086.047-.175.094-.265.136l.265.726Zm0-15.635a7.4,7.4,0,0,0-2.052-.517,7.4,7.4,0,0,1,2.052.517Zm-2.052,15.435a6.691,6.691,0,0,0,.733-.141q.263.716.521,1.427a2.915,2.915,0,0,0-1.032,2.98c.27.739.31.632.543.882l-.765.854L521-144.6c-.233-.25-.274-.143-.543-.882a2.915,2.915,0,0,1,1.032-2.98q-.259-.71-.521-1.427A6.691,6.691,0,0,1,520.238-149.747Zm-.834-6.09c.278-.1.557-.192.834-.272v2.589a8.337,8.337,0,0,0-2.761,1.656v-3.074a11.921,11.921,0,0,1,1.926-.9Zm.834-9.965v.1a9.3,9.3,0,0,0-1.255-.048,10.2,10.2,0,0,1,1.255-.055Zm0,16.059v6l-.512.565a9.14,9.14,0,0,0-2.249-1.24h0a9.121,9.121,0,0,1,2.252,1.239l.509-.561-.509.561a9.121,9.121,0,0,0-2.252-1.239v-5.449a7.727,7.727,0,0,0,2.761.13Zm0,10.485v2.533a11.113,11.113,0,0,1-2.761-1.306v-3.022a8.526,8.526,0,0,0,2.761,1.795Zm0,8.324v1.578a8.6,8.6,0,0,1-1.721.352,9.292,9.292,0,0,1-1.04.037v-.809a7.062,7.062,0,0,0,2.761-1.158Zm0,1.578a8.6,8.6,0,0,1-1.721.352,9.292,9.292,0,0,1-1.04.037,9.292,9.292,0,0,0,1.04-.037,8.9,8.9,0,0,0,1.721-.339v-.013Zm-1.255-36.391a10.2,10.2,0,0,1,1.255-.055,10.2,10.2,0,0,0-1.255.055,9.3,9.3,0,0,1,1.255.048,9.3,9.3,0,0,0-1.255-.048Zm-1.506,35.842a7.731,7.731,0,0,0,2.761-1.056,7.731,7.731,0,0,1-2.761,1.056Zm0-19.968a7.727,7.727,0,0,0,2.761.126A7.727,7.727,0,0,1,517.477-149.873Zm0-1.991a7.592,7.592,0,0,0-.854.912,7.5,7.5,0,0,1-1.173-.518,8.164,8.164,0,0,1-1.089-.726,10.42,10.42,0,0,1,3.116-2.742v3.074Zm0,1.991a9.187,9.187,0,0,1-6.484-5.435,6.954,6.954,0,0,1,2.357-8.383,9.735,9.735,0,0,0-3.743,4.759,9.4,9.4,0,0,0,.081,6.138,10.586,10.586,0,0,0,3.089,4.5,10.117,10.117,0,0,0-4.623,2.161,7.527,7.527,0,0,0-2.755,4.9,9.537,9.537,0,0,0,1.569,5.966,6.525,6.525,0,0,1,1.292-8.012,7.938,7.938,0,0,1,5.6-1.792,10.281,10.281,0,0,1,3.615.651v-5.449Zm0,5.449h0a10.255,10.255,0,0,0-3.615-.652,8.7,8.7,0,0,0-5.594,1.794c-2.467,1.845-2.877,5.009-1.3,8.01a9.537,9.537,0,0,1-1.569-5.966,7.08,7.08,0,0,1,2.755-4.9,10.293,10.293,0,0,1,4.623-2.161,10.579,10.579,0,0,1-3.088-4.495,9.432,9.432,0,0,1-.082-6.142,9.724,9.724,0,0,1,3.739-4.759,6.958,6.958,0,0,0-2.353,8.383,9.191,9.191,0,0,0,6.484,5.435,9.187,9.187,0,0,1-6.484-5.435,6.954,6.954,0,0,1,2.357-8.383,9.735,9.735,0,0,0-3.743,4.759,9.4,9.4,0,0,0,.081,6.138,10.586,10.586,0,0,0,3.089,4.5,10.117,10.117,0,0,0-4.623,2.161,7.527,7.527,0,0,0-2.755,4.9,9.537,9.537,0,0,0,1.569,5.966,6.525,6.525,0,0,1,1.292-8.012,7.938,7.938,0,0,1,5.6-1.792,10.281,10.281,0,0,1,3.615.651Zm0,3.371v3.022c-.289-.189-.572-.39-.843-.605a14.314,14.314,0,0,1-3.558-4.892c-.389-1.065-.133-.379-.19-.568a8.433,8.433,0,0,1,1.064-.057,9.135,9.135,0,0,1,1.581.14,8.038,8.038,0,0,0,1.946,2.96Zm0,11.277v.809a12.045,12.045,0,0,1-5.609-1.61,9.156,9.156,0,0,0,5.609.8Zm0,.809a12.016,12.016,0,0,1-5.606-1.611,9.29,9.29,0,0,0,5.606.673,9.29,9.29,0,0,1-5.606-.673A12.016,12.016,0,0,0,517.477-128.967Z" transform="translate(-442.709 418.312)" fill-rule="evenodd"/>
            <path id="Trazado_102888" data-name="Trazado 102888" d="M470.7-257.941c-.447,2.413-4,3.692-6.02,4.881-2.283,1.345-1.543,5.558-5.045,6.909-3.366,1.3,2.141-10.324,2.963-11.909.661-1.274,3.884-5.039,5.7-4.414C471.465-261.386,470.625-259.908,470.7-257.941Z" transform="translate(-443.531 416.612)" fill="#ffc013" fill-rule="evenodd"/>
            <path id="Trazado_102889" data-name="Trazado 102889" d="M527.844-336.12c5.023,12.266,13.892,22.073,27.356,22.073,11.7,0,12.531,13.376,17.8,0,1.742-4.429,25.029,16.092,27.922,19.658,6.115,7.538-1.414,9.435-6.136,15.665-7.857,10.364,17.7-6.252,12.816.882-1.988,2.9-3.531,10.359-8.947,15.219-9.474,8.5-20.806,19.588-38.284-11.339C542.261-284.023,528.891-308.524,527.844-336.12Z" transform="translate(-442.314 415.32)" fill="#d3d1cd" fill-rule="evenodd"/>
            <path id="Trazado_102890" data-name="Trazado 102890" d="M536.168-365.109c8.421,2.607,17.339,17.857,30.82,21.172,7.735,1.9,18.406.489,27.269-3.052-.5-6.4-.709-12.551-.709-12.551.238-.475-33.873-15.655-51.21-9.457-.729,1.426-2.506,4.763-6.308,4.032Z" transform="translate(-442.17 414.716)" fill="#fff" fill-rule="evenodd"/>
            <path id="Trazado_102891" data-name="Trazado 102891" d="M556.66-399.395c1.347,3.641,8,25.707,14.965,32.314-11.851,4.228-10.329,35.5-25.554,29.715-4.852-1.847-9.711-8.852-9.888-20.833,3.819-5.557,7.191-4.513-2.793-16.69C530.877-378.972,556.661-399.395,556.66-399.395Z" transform="translate(-442.22 414.208)" fill="#d3d1cd" fill-rule="evenodd"/>
            <path id="Trazado_102892" data-name="Trazado 102892" d="M516.591-381.257c.884,1.848,3.243,1.178,3.668,10.076.268,5.5,1.077,5.227,6.561,12.51,3.1,4.125,13.823,10.56,17.862,5.337,1.265-1.633,3.9-13.285,10.965-5.592,2.091,2.278,3.176-3.668,2.3-11.36-.219-1.919-4.1-21.581.372-10.444,6.84,17.021.679-22.191-6.116-27.9-6.843-6-21-9.545-36.584,4.031-6.184,5.386-10.545,16.455-4.159,22.525C513.275-380.347,515.718-384.358,516.591-381.257Z" transform="translate(-442.657 413.952)" fill="#fff" fill-rule="evenodd"/>
            <path id="Trazado_102893" data-name="Trazado 102893" d="M510.577-392.733c3.847-1.976,14.2-6.9,21.4.3,1.461,1.46,16.37,15.51,10.623,3.935-2.359-4.751,2.995-5.672,4.123-3.48,14.981,29.076,2.316-6.745,7.447-2.638a11.451,11.451,0,0,1,2.468,4.415c.354-8.287-2.588-14.587-6.008-17.458C537.269-419.37,513.226-409.806,510.577-392.733Z" transform="translate(-442.617 413.972)" fill="#eae8df" fill-rule="evenodd"/>
            <path id="Trazado_102894" data-name="Trazado 102894" d="M520.578-393.071c7.839,1.784,21.479,11.6,25.8,21.847s3.054,11.4,1.53,13.914c-1.477,1.594-2.688,2.89-3.25,3.616-4.041,5.224-14.76-1.212-17.863-5.337-5.483-7.283-6.293-7.014-6.56-12.51-.426-8.9-2.785-8.228-3.668-10.076-.874-3.1-3.316.91-5.131-.816a10,10,0,0,1-1.426-1.693C510.168-390.817,512.739-394.855,520.578-393.071Z" transform="translate(-442.627 414.312)" fill="#d3d1cd" fill-rule="evenodd"/>
            <path id="Trazado_102895" data-name="Trazado 102895" d="M521.148-391.072c8.4,1.873,18.693,11.787,23.334,23.708s-.881,18.483-9.285,16.609-18.366-12.422-22.244-23.555S512.744-392.946,521.148-391.072Z" transform="translate(-442.603 414.349)" fill="#333" fill-rule="evenodd"/>
            <path id="Trazado_102896" data-name="Trazado 102896" d="M512.643-375.712l2.892,19.673,14.443,10.672c3.175-2.5,4.994-3.658,8.063-6.28l.076-.065c10.391-9.178-7.766-33.894-17.32-36.026C514.068-389.241,510.741-383.991,512.643-375.712Z" transform="translate(-442.59 414.408)" fill="#7f7f7f" fill-rule="evenodd"/>
            <path id="Trazado_102897" data-name="Trazado 102897" d="M528.077-346.772c8.982-5.018,7.276-22.585,2.367-34.267-3.333-3.527-6.854-6.077-9.646-6.7-6.73-1.5-10.057,3.748-8.155,12.027l2.892,19.673Z" transform="translate(-442.59 414.408)" fill="#b2b2b2" fill-rule="evenodd"/>
            <path id="Trazado_102898" data-name="Trazado 102898" d="M513.846-385.92l3.814,31.474,3.054-.269,2.386-32.276a14.224,14.224,0,0,0-2.332-.748C517.689-388.426,515.323-387.7,513.846-385.92Z" transform="translate(-442.56 414.408)" fill-rule="evenodd" fill="url(#linear-gradient)"/>
            <path id="Trazado_102899" data-name="Trazado 102899" d="M509.682-348.846l5.273-9.081a1.781,1.781,0,0,1,.265-.326c4.677-4.994,21.122,4.977,17.8,11.109h0l-5.127,8.827Z" transform="translate(-442.633 414.907)" fill="#ffc013" fill-rule="evenodd"/>
            <path id="Trazado_102900" data-name="Trazado 102900" d="M522.867-347.652l4.794-8.114a13.38,13.38,0,0,1,4.33,4.5l-4.836,8.179A13.342,13.342,0,0,0,522.867-347.652Z" transform="translate(-442.401 414.975)" fill="#af7e12" fill-rule="evenodd"/>
            <path id="Trazado_102901" data-name="Trazado 102901" d="M527.4-337.746c-2.1,2.238-7.685,1.431-12.478-1.8s-6.984-7.669-4.888-9.907,7.685-1.433,12.479,1.8S529.5-339.984,527.4-337.746Z" transform="translate(-442.641 415.063)" fill="#333" fill-rule="evenodd"/>
            <path id="Trazado_102902" data-name="Trazado 102902" d="M520.822-348.884l4.8-8.1q.615.319,1.209.682l-4.8,8.1Q521.431-348.572,520.822-348.884Z" transform="translate(-442.437 414.953)" fill="#af7e12" fill-rule="evenodd"/>
            <path id="Trazado_102903" data-name="Trazado 102903" d="M509.3-346.639l1.04-1.791a1.645,1.645,0,0,1,.246-.3c4.331-4.626,19.561,4.61,16.484,10.288h0l-.9,1.555Z" transform="translate(-442.64 415.076)" fill="#ffc013" fill-rule="evenodd"/>
            <path id="Trazado_102904" data-name="Trazado 102904" d="M525.714-336.245c-1.94,2.073-7.116,1.325-11.557-1.669s-6.468-7.1-4.527-9.175,7.118-1.326,11.558,1.667S527.656-338.316,525.714-336.245Z" transform="translate(-442.647 415.106)" fill="#ffc013" fill-rule="evenodd"/>
            <path id="Trazado_102905" data-name="Trazado 102905" d="M517.138-359.145l-4.974,8.508a8.259,8.259,0,0,1,3.335-.055l5.24-8.425A8.043,8.043,0,0,0,517.138-359.145Z" transform="translate(-442.589 414.912)" fill="#ffd371" fill-rule="evenodd"/>
          </g>
          <g id="Grupo_53576" data-name="Grupo 53576" transform="translate(74.298 179.686)">
            <path id="Trazado_102906" data-name="Trazado 102906" d="M527.02-234.669l3.962-1.06-.206-1.639-9.726,4.984-2.176,1.465s-2.876,2.077-1.848,6.57S519.3-221.1,519.3-221.1s2.264-3.08,2.769-3.5S527.02-234.669,527.02-234.669Z" transform="translate(-516.806 237.369)" fill="#e2a713" fill-rule="evenodd"/>
          </g>
          <path id="Trazado_102907" data-name="Trazado 102907" d="M529.291-234.423" transform="translate(-442.289 417.106)" fill="#333" fill-rule="evenodd"/>
          <path id="Trazado_102908" data-name="Trazado 102908" d="M529.369-240.8l-2.069,1.552L524.949-236s-.765,2.209,2.514,5.753a28.469,28.469,0,0,0,5.828,4.614c9.807,6.14,12.046-4.9,12.046-4.9l-.349-1.254-15.73-7.462" transform="translate(-442.366 416.994)" fill="#ffc013" fill-rule="evenodd"/>
          <path id="Trazado_102909" data-name="Trazado 102909" d="M527.109-233.412l-2.129,1-4.224,8.514s.474,9.165-5.949,13.383-1.087,4.369-1.087,4.369,5.391.6,5.985.81,6.759-.847,7.407-.691,10.4-5.312,10.342-6.393,4.854-12.111,5.127-14.315-11.39-6.927-11.508-6.946S527.109-233.412,527.109-233.412Z" transform="translate(-442.599 417.119)" fill="#ffc013" fill-rule="evenodd"/>
          <path id="Trazado_102910" data-name="Trazado 102910" d="M539.918-223.931c-.985.108-6.73.054-9.566-4.561s2.836,1.538,6.441,1.154,6.875-3.8,6.875-3.8l1.237-.809S544.774-224.46,539.918-223.931Z" transform="translate(-442.283 417.15)" fill="#e2a713" fill-rule="evenodd"/>
        </g>
        <g id="Capa_2" data-name="Capa 2" transform="translate(86.945 47.127)">
          <path id="Trazado_102911" data-name="Trazado 102911" d="M577.136-366.1s-12.743,69.382-16.2,71.816-30.986,54.539-30.986,54.539-4.172,3.082,7.686,10.968,47.146-50.466,47.146-50.466,18.076-54.256,18.076-66.506S585.686-366.486,577.136-366.1Z" transform="translate(-529.235 367.666)" fill="#fff" fill-rule="evenodd"/>
          <path id="Trazado_102912" data-name="Trazado 102912" d="M537.632-230.007c11.857,7.887,47.146-50.466,47.146-50.466s2.207-6.625,5.078-15.764a21.168,21.168,0,0,0-4.405,4.524c-5.769,7.767-4.243,8.921-7.313,9.5s-11.3,13.58-11.368,17.463-23.389,35.307-36.823,23.777C529.946-240.975,525.774-237.893,537.632-230.007Z" transform="translate(-529.235 368.893)" fill="#d3d1cd" fill-rule="evenodd"/>
          <path id="Trazado_102913" data-name="Trazado 102913" d="M543.441-260.138l26.6-33.069-4.968-2.2s4.708-1.842,4.714-2.8,5.57-13.846,5.2-16.123-1.556-29.395-1.556-29.395l-1.049,1.065c-4.015,20.327-9.541,46.5-11.643,47.979-2.067,1.454-12.72,20.628-20.964,35.836Z" transform="translate(-529.049 368.059)" fill="#eae8df" fill-rule="evenodd"/>
          <path id="Trazado_102914" data-name="Trazado 102914" d="M598.393-326.634s11.66-25.976-6.728-34.524c0,0-4.556-5.185-20.7-6.481,0,0,14.777,8.712,18.161,16.784s0,33.07,0,33.07Z" transform="translate(-528.501 367.639)" fill="#eae8df" fill-rule="evenodd"/>
        </g>
      </g>
    </g>
  </g>
</svg>
