<svg xmlns="http://www.w3.org/2000/svg" width="56.876" height="56.876" viewBox="0 0 56.876 56.876">
  <g id="Grupo_53596" data-name="Grupo 53596" transform="translate(-470.55 -690.008)">
    <g id="Grupo_53594" data-name="Grupo 53594">
      <path id="Trazado_103363" data-name="Trazado 103363" d="M521.717,702.737l-1.241-3.706a3.448,3.448,0,0,0-3.275-2.36H506.809v-3.384a3.07,3.07,0,0,0-3.065-3.067h-9.517a3.071,3.071,0,0,0-3.065,3.067v3.384H480.77a3.449,3.449,0,0,0-3.275,2.36l-1.236,3.706a2.774,2.774,0,0,0,2.632,3.653h1.292l2.844,35.175a5.089,5.089,0,0,0,5.044,4.655h22.406a5.087,5.087,0,0,0,5.04-4.655l2.848-35.175h.716a2.773,2.773,0,0,0,2.779-2.769A2.74,2.74,0,0,0,521.717,702.737ZM494.443,693.5h9.085v3.17h-9.085Zm17.807,47.8a1.787,1.787,0,0,1-1.772,1.638H488.071A1.789,1.789,0,0,1,486.3,741.3l-2.824-34.911h31.6Zm-32.656-38.193,1.014-3.039a.172.172,0,0,1,.162-.117H517.2a.172.172,0,0,1,.162.117l1.014,3.039Z" fill="#e94b46"/>
      <path id="Trazado_103364" data-name="Trazado 103364" d="M507.017,741.184h.087a1.639,1.639,0,0,0,1.637-1.555l1.541-29.575a1.641,1.641,0,0,0-3.277-.171l-1.54,29.575a1.642,1.642,0,0,0,1.552,1.726Z" fill="#e94b46"/>
      <path id="Trazado_103365" data-name="Trazado 103365" d="M489.3,739.635a1.641,1.641,0,0,0,1.637,1.551h.091a1.638,1.638,0,0,0,1.549-1.726h0l-1.614-29.575a1.641,1.641,0,0,0-3.276.179Z" fill="#e94b46"/>
      <path id="Trazado_103366" data-name="Trazado 103366" d="M499,741.186a1.64,1.64,0,0,0,1.641-1.641h0V709.971a1.641,1.641,0,0,0-3.281,0v29.575A1.641,1.641,0,0,0,499,741.186Z" fill="#e94b46"/>
    </g>
    <rect id="Rectángulo_5068" data-name="Rectángulo 5068" width="56.876" height="56.876" transform="translate(470.55 690.008)" fill="none"/>
  </g>
</svg>
