<svg xmlns="http://www.w3.org/2000/svg" width="98.063" height="98.063" viewBox="0 0 98.063 98.063"><g transform="translate(-56.968 -1980.044)"><rect width="98.063" height="98.063" transform="translate(56.968 1980.044)" fill="none"/><circle cx="44.533" cy="44.533" r="44.533" transform="translate(61.418 1988.182)" fill="#69d1ff"/><circle cx="3.005" cy="3.005" r="3.005" transform="translate(95.626 2048.001)" fill="#ffc305"/><circle cx="3.005" cy="3.005" r="3.005" transform="translate(110.187 2051.586)" fill="#ffc305"/><circle cx="1.502" cy="1.502" r="1.502" transform="translate(108.537 2044.019)" fill="#ffc305"/><path d="M63.781,2047.024a44.531,44.531,0,0,0,84.341,0Z" fill="#33b9dd"/><path d="M122.389,2037.322l-8.979-25.393v-16.266h-7.6l-.164,16.436-4.851,25.223,14.711.706Z" fill="#fff"/><path d="M107.365,1995.663H98.439v16.266l-8.979,25.393,5.829,1.054,5.51-1.054,6.566-18.568Z" fill="#e8d6ff"/><path d="M129.441,2056.756c-.944-2.337-5.072-13.834-7.052-19.434H100.8l-8.257,18.645a5.541,5.541,0,0,0,4.487,7.754l1.563.164h26A5.212,5.212,0,0,0,129.441,2056.756Z" fill="#ffdc64"/><path d="M93.751,2056.746c1.58-4.82,2.292-6.366,7.048-19.424H89.46s-5.947,16.5-7.04,19.406a5.241,5.241,0,0,0,4.833,7.157H98.592a5.284,5.284,0,0,1-4.841-7.139Z" fill="#ffc305"/><path d="M105.924,2035.814a2.491,2.491,0,0,1-2.491-2.491V1991.2a4.854,4.854,0,0,0-4.849-4.849,5.026,5.026,0,0,0-5.021,5.021v21.19a8.021,8.021,0,1,1-16.041,0v-21.19a5.021,5.021,0,0,0-10.042,0V2012.4a8.03,8.03,0,0,1-8.021,8.02,2.492,2.492,0,0,1,0-4.983A3.041,3.041,0,0,0,62.5,2012.4v-21.023a10,10,0,0,1,20.008,0v21.19a3.038,3.038,0,1,0,6.075,0v-21.19a10.016,10.016,0,0,1,10-10,9.843,9.843,0,0,1,9.832,9.832v42.118A2.492,2.492,0,0,1,105.924,2035.814Z" fill="#265cde"/><path d="M68.966,1982.021a10.051,10.051,0,0,0-5.841,5.874,2.46,2.46,0,0,0,2.3,3.322H65.5a2.492,2.492,0,0,0,2.315-1.633,5.045,5.045,0,0,1,2.862-2.883,2.488,2.488,0,0,0,1.6-2.305v-.068A2.456,2.456,0,0,0,68.966,1982.021Z" fill="#3176ff"/><path d="M95.122,1981.994a10.057,10.057,0,0,0-5.721,5.417,2.444,2.444,0,0,0,2.233,3.426h.128a2.454,2.454,0,0,0,2.231-1.491,5.048,5.048,0,0,1,2.854-2.68,2.406,2.406,0,0,0,1.541-2.267v-.108a2.436,2.436,0,0,0-3.266-2.3Z" fill="#3176ff"/><path d="M62.5,2011.032v1.368a3.063,3.063,0,0,1-3.066,3.037,2.492,2.492,0,0,0-2.46,2.617,2.537,2.537,0,0,0,2.581,2.366,8.03,8.03,0,0,0,7.927-8.02v-1.368a2.491,2.491,0,0,0-4.982,0Z" fill="#0037bd"/><path d="M90.528,2012.514a2.49,2.49,0,0,0-2.278,1.377,3.021,3.021,0,0,1-5.745-1.323v-1.536a2.491,2.491,0,0,0-4.983,0v1.385a8.119,8.119,0,0,0,7.827,8.169,8.028,8.028,0,0,0,7.385-4.47,2.5,2.5,0,0,0-2.206-3.6Z" fill="#0037bd"/><path d="M105.924,2026.048a2.491,2.491,0,0,1-2.491-2.491v9.766a2.492,2.492,0,0,0,4.983,0v-9.766A2.492,2.492,0,0,1,105.924,2026.048Z" fill="#0037bd"/><path d="M96.957,1993.074h11.624v7.952H96.957Z" fill="#e8d6ff"/><path d="M115.51,2001.026h-6.324a3.976,3.976,0,0,1,0-7.952h6.324Z" fill="#fff"/></g></svg>