<svg xmlns="http://www.w3.org/2000/svg" width="1017.412" height="262.949" viewBox="0 0 1017.412 262.949"><g transform="translate(-290.009 -1136)"><g transform="translate(290.009 1136)"><circle cx="60.851" cy="60.851" r="60.851" transform="translate(651.085 127.018) rotate(-76.717)" fill="#09b291"/><g transform="translate(645.922 3.408)"><path d="M950.412,1414.741a1.177,1.177,0,0,1-1.019-.589l-11.946-20.689a78.388,78.388,0,0,1-65.4-77.3H874.4a75.616,75.616,0,0,0,63.974,75.061,1.182,1.182,0,0,1,.836.575l11.2,19.406,11.2-19.406a1.18,1.18,0,0,1,.835-.575,76.017,76.017,0,0,0-12.039-151.074V1237.8a78.374,78.374,0,0,1,12.965,155.667l-11.945,20.689A1.178,1.178,0,0,1,950.412,1414.741Z" transform="translate(-872.044 -1237.796)" fill="#606060"/></g><g transform="translate(642.682 0.169)"><path d="M877.653,1316.179h-8.834a81.609,81.609,0,0,1,81.607-81.608v8.834A72.856,72.856,0,0,0,877.653,1316.179Z" transform="translate(-868.819 -1234.571)" fill="#09b291"/></g><circle cx="60.851" cy="60.851" r="60.851" transform="translate(863.17 122.369) rotate(-73.155)" fill="#69787d"/><g transform="translate(860.676 3.393)"><path d="M1164.231,1414.741a1.179,1.179,0,0,1-1.021-.589l-11.954-20.705a78.384,78.384,0,0,1-65.394-77.3h2.355a75.622,75.622,0,0,0,63.965,75.062,1.178,1.178,0,0,1,.835.574l11.214,19.422,11.214-19.422a1.178,1.178,0,0,1,.834-.574,76.018,76.018,0,0,0-12.048-151.074v-2.356a78.374,78.374,0,0,1,12.974,155.666l-11.954,20.705A1.179,1.179,0,0,1,1164.231,1414.741Z" transform="translate(-1085.863 -1237.781)" fill="#606060"/></g><g transform="translate(857.435 0.154)"><path d="M1091.471,1316.163h-8.834a81.61,81.61,0,0,1,81.608-81.607v8.835A72.856,72.856,0,0,0,1091.471,1316.163Z" transform="translate(-1082.637 -1234.556)" fill="#69787d"/></g><circle cx="60.851" cy="60.851" r="60.851" transform="translate(20.757 20.756)" fill="#e94b46"/><path d="M237.769,1316.01h-8.834a81.609,81.609,0,0,1,81.608-81.607v8.834A72.856,72.856,0,0,0,237.769,1316.01Z" transform="translate(-228.935 -1234.403)" fill="#e94b46"/><g transform="translate(3.239 3.239)"><path d="M310.529,1414.742a1.179,1.179,0,0,1-1.02-.589l-12.053-20.875A78.385,78.385,0,0,1,232.16,1316h2.356a75.639,75.639,0,0,0,63.867,75.047,1.178,1.178,0,0,1,.834.573l11.312,19.592,11.311-19.592a1.182,1.182,0,0,1,.834-.573,76.018,76.018,0,0,0-12.145-151.059v-2.356a78.375,78.375,0,0,1,13.073,155.65l-12.053,20.875A1.177,1.177,0,0,1,310.529,1414.742Z" transform="translate(-232.16 -1237.628)" fill="#606060"/></g><circle cx="60.851" cy="60.851" r="60.851" transform="matrix(0.23, -0.973, 0.973, 0.23, 437.32, 127.005)" fill="#468ca5"/><g transform="translate(432.157 3.393)"><path d="M737.578,1414.741a1.179,1.179,0,0,1-1.02-.589L724.6,1393.447a78.384,78.384,0,0,1-65.394-77.3h2.355a75.622,75.622,0,0,0,63.965,75.062,1.178,1.178,0,0,1,.835.574l11.214,19.422,11.214-19.422a1.178,1.178,0,0,1,.835-.574,76.018,76.018,0,0,0-12.048-151.074v-2.356a78.375,78.375,0,0,1,12.974,155.666L738.6,1414.152A1.179,1.179,0,0,1,737.578,1414.741Z" transform="translate(-659.21 -1237.781)" fill="#606060"/></g><g transform="translate(428.918 0.154)"><path d="M664.818,1316.163h-8.833a81.607,81.607,0,0,1,81.607-81.607v8.835A72.856,72.856,0,0,0,664.818,1316.163Z" transform="translate(-655.985 -1234.556)" fill="#468ca5"/></g><circle cx="60.851" cy="60.851" r="60.851" transform="translate(220.777 123.719) rotate(-74.238)" fill="#dbb826"/><g transform="translate(217.5 3.315)"><path d="M523.856,1414.742h0a1.179,1.179,0,0,1-1.02-.589l-12-20.792a78.381,78.381,0,0,1-65.344-77.287h2.355a75.627,75.627,0,0,0,63.916,75.052,1.178,1.178,0,0,1,.834.574l11.263,19.509,11.266-19.509a1.178,1.178,0,0,1,.834-.574,76.017,76.017,0,0,0-12.1-151.065V1237.7a78.374,78.374,0,0,1,13.027,155.657l-12.006,20.792A1.179,1.179,0,0,1,523.856,1414.742Z" transform="translate(-445.488 -1237.704)" fill="#606060"/></g><g transform="translate(214.261 0.076)"><path d="M451.1,1316.087h-8.833a81.608,81.608,0,0,1,81.607-81.608v8.834A72.856,72.856,0,0,0,451.1,1316.087Z" transform="translate(-442.263 -1234.479)" fill="#dbb826"/></g><circle cx="6.478" cy="6.478" r="6.478" transform="translate(75.239 200.021)" fill="#e94b46"/><circle cx="6.478" cy="6.478" r="6.478" transform="translate(289.028 200.021)" fill="#dbb826"/><circle cx="6.478" cy="6.478" r="6.478" transform="translate(504.289 200.021)" fill="#468ca5"/><circle cx="6.478" cy="6.478" r="6.478" transform="translate(718.078 200.021)" fill="#09b291"/><path d="M1167.271,1428.275a11.792,11.792,0,0,0-11.742,10.9H964.93a11.776,11.776,0,0,0-23.485,0h-190.3a11.776,11.776,0,0,0-23.485,0H535.879a11.776,11.776,0,0,0-23.485,0H322.09a11.78,11.78,0,1,0-.059,2.356H512.453a11.775,11.775,0,0,0,23.367,0H727.715a11.775,11.775,0,0,0,23.367,0H941.5a11.776,11.776,0,0,0,23.368,0h190.715a11.778,11.778,0,1,0,11.684-13.252Zm-856.923,21.2a9.423,9.423,0,1,1,9.424-9.423A9.434,9.434,0,0,1,310.347,1449.477Zm213.79,0a9.423,9.423,0,1,1,9.423-9.423A9.434,9.434,0,0,1,524.137,1449.477Zm215.261,0a9.423,9.423,0,1,1,9.423-9.423A9.434,9.434,0,0,1,739.4,1449.477Zm213.789,0a9.423,9.423,0,1,1,9.423-9.423A9.433,9.433,0,0,1,953.187,1449.477Zm214.083,0a9.423,9.423,0,1,1,9.423-9.423A9.434,9.434,0,0,1,1167.271,1449.477Z" transform="translate(-228.63 -1233.555)" fill="#606060"/><circle cx="6.478" cy="6.478" r="6.478" transform="translate(932.162 200.021)" fill="#69787d"/><g transform="translate(30.834 245.717)"><path d="M269.539,1490.921a3.912,3.912,0,0,1-1.823,1.4,7.373,7.373,0,0,1-2.723.463,5.27,5.27,0,0,1-2.789-.737,4.912,4.912,0,0,1-1.885-2.1,7.253,7.253,0,0,1-.684-3.152v-1.121a6.763,6.763,0,0,1,1.355-4.5,4.725,4.725,0,0,1,3.81-1.6,4.877,4.877,0,0,1,3.239,1.027,4.479,4.479,0,0,1,1.5,2.918h-1.694a2.8,2.8,0,0,0-3.037-2.559,3,3,0,0,0-2.581,1.2,5.842,5.842,0,0,0-.888,3.467v1.052a5.474,5.474,0,0,0,.989,3.441A3.205,3.205,0,0,0,265,1491.4a5.92,5.92,0,0,0,1.668-.211,2.582,2.582,0,0,0,1.183-.714v-2.88h-2.975v-1.386h4.66Z" transform="translate(-259.635 -1479.048)"/><path d="M276.019,1492.769a4.173,4.173,0,0,1-3.16-1.275,4.736,4.736,0,0,1-1.218-3.413v-.3a5.733,5.733,0,0,1,.542-2.537,4.245,4.245,0,0,1,1.519-1.748,3.818,3.818,0,0,1,2.114-.632,3.579,3.579,0,0,1,2.9,1.226,5.317,5.317,0,0,1,1.033,3.513v.68h-6.47a3.387,3.387,0,0,0,.826,2.282,2.591,2.591,0,0,0,2.008.87,2.838,2.838,0,0,0,1.465-.354,3.681,3.681,0,0,0,1.051-.935l1,.776A4.01,4.01,0,0,1,276.019,1492.769Zm-.2-8.562a2.176,2.176,0,0,0-1.659.72,3.484,3.484,0,0,0-.83,2.016h4.784v-.124a3.107,3.107,0,0,0-.671-1.928A2.049,2.049,0,0,0,275.816,1484.207Z" transform="translate(-259.582 -1479.033)"/><path d="M283.135,1483.042l.053,1.2a3.482,3.482,0,0,1,2.86-1.377q3.027,0,3.054,3.416v6.312H287.47v-6.321a2.2,2.2,0,0,0-.473-1.527,1.891,1.891,0,0,0-1.443-.494,2.35,2.35,0,0,0-1.394.424,2.873,2.873,0,0,0-.936,1.112v6.806H281.59v-9.551Z" transform="translate(-259.539 -1479.033)"/><path d="M295.487,1492.769a4.173,4.173,0,0,1-3.16-1.275,4.736,4.736,0,0,1-1.218-3.413v-.3a5.733,5.733,0,0,1,.542-2.537,4.237,4.237,0,0,1,1.519-1.748,3.816,3.816,0,0,1,2.114-.632,3.579,3.579,0,0,1,2.9,1.226,5.317,5.317,0,0,1,1.033,3.513v.68h-6.47a3.392,3.392,0,0,0,.825,2.282,2.593,2.593,0,0,0,2.009.87,2.841,2.841,0,0,0,1.465-.354,3.7,3.7,0,0,0,1.051-.935l1,.776A4.01,4.01,0,0,1,295.487,1492.769Zm-.2-8.562a2.176,2.176,0,0,0-1.659.72,3.492,3.492,0,0,0-.831,2.016h4.785v-.124a3.107,3.107,0,0,0-.671-1.928A2.049,2.049,0,0,0,295.284,1484.207Z" transform="translate(-259.497 -1479.033)"/><path d="M305.675,1484.507a4.9,4.9,0,0,0-.8-.062,2.152,2.152,0,0,0-2.181,1.368v6.779h-1.633v-9.551h1.589l.026,1.1a2.544,2.544,0,0,1,2.278-1.28,1.671,1.671,0,0,1,.724.124Z" transform="translate(-259.454 -1479.033)"/><path d="M312.695,1492.592a3.4,3.4,0,0,1-.229-1.006,3.64,3.64,0,0,1-2.719,1.183,3.37,3.37,0,0,1-2.317-.8,2.584,2.584,0,0,1-.9-2.026,2.7,2.7,0,0,1,1.134-2.317,5.347,5.347,0,0,1,3.191-.826h1.589v-.75a1.84,1.84,0,0,0-.511-1.365,2.062,2.062,0,0,0-1.51-.507,2.381,2.381,0,0,0-1.465.442,1.3,1.3,0,0,0-.592,1.068h-1.642a2.26,2.26,0,0,1,.507-1.381,3.469,3.469,0,0,1,1.378-1.056,4.644,4.644,0,0,1,1.91-.388,3.778,3.778,0,0,1,2.587.826,2.975,2.975,0,0,1,.97,2.273v4.4a5.388,5.388,0,0,0,.335,2.092v.141Zm-2.71-1.244a2.876,2.876,0,0,0,1.456-.4,2.4,2.4,0,0,0,1-1.034v-1.959h-1.28q-3,0-3,1.757a1.488,1.488,0,0,0,.511,1.2A1.966,1.966,0,0,0,309.985,1491.348Z" transform="translate(-259.43 -1479.033)"/><path d="M320.422,1491.436a2.352,2.352,0,0,0,1.527-.529,1.863,1.863,0,0,0,.724-1.325h1.545a2.957,2.957,0,0,1-.565,1.563,3.72,3.72,0,0,1-1.39,1.183,4.011,4.011,0,0,1-1.84.441,3.935,3.935,0,0,1-3.1-1.3,5.186,5.186,0,0,1-1.152-3.561v-.273a5.75,5.75,0,0,1,.512-2.481,3.906,3.906,0,0,1,1.469-1.686,4.182,4.182,0,0,1,2.265-.6,3.832,3.832,0,0,1,2.671.962,3.438,3.438,0,0,1,1.134,2.5h-1.545a2.251,2.251,0,0,0-.7-1.523,2.181,2.181,0,0,0-1.558-.6,2.29,2.29,0,0,0-1.929.9,4.207,4.207,0,0,0-.684,2.59V1488a4.124,4.124,0,0,0,.68,2.542A2.3,2.3,0,0,0,320.422,1491.436Z" transform="translate(-259.388 -1479.033)"/><path d="M326.019,1480.522a.971.971,0,0,1,.243-.671.908.908,0,0,1,.719-.273.927.927,0,0,1,.724.273.965.965,0,0,1,.247.671.932.932,0,0,1-.247.662.945.945,0,0,1-.724.265.925.925,0,0,1-.719-.265A.938.938,0,0,1,326.019,1480.522Zm1.766,12.085h-1.633v-9.551h1.633Z" transform="translate(-259.345 -1479.048)"/><path d="M329.948,1487.746a5.644,5.644,0,0,1,.551-2.525,4.122,4.122,0,0,1,1.536-1.731,4.184,4.184,0,0,1,2.247-.609,4.029,4.029,0,0,1,3.156,1.35,5.2,5.2,0,0,1,1.205,3.594v.115a5.675,5.675,0,0,1-.534,2.5,4.049,4.049,0,0,1-1.527,1.727,4.234,4.234,0,0,1-2.282.618,4.017,4.017,0,0,1-3.148-1.351,5.167,5.167,0,0,1-1.2-3.574Zm1.641.194a4.088,4.088,0,0,0,.737,2.551,2.5,2.5,0,0,0,3.95-.014,4.457,4.457,0,0,0,.733-2.731,4.087,4.087,0,0,0-.746-2.548,2.374,2.374,0,0,0-1.982-.974,2.343,2.343,0,0,0-1.95.962A4.426,4.426,0,0,0,331.589,1487.94Zm3.434-8.89H337l-2.365,2.6-1.316,0Z" transform="translate(-259.328 -1479.05)"/><path d="M342.189,1483.042l.053,1.2a3.479,3.479,0,0,1,2.859-1.377q3.028,0,3.054,3.416v6.312h-1.633v-6.321a2.2,2.2,0,0,0-.472-1.527,1.891,1.891,0,0,0-1.443-.494,2.355,2.355,0,0,0-1.4.424,2.871,2.871,0,0,0-.935,1.112v6.806h-1.633v-9.551Z" transform="translate(-259.281 -1479.033)"/></g><g transform="translate(249.154 246.423)"><path d="M486.944,1481.139h-4.132v11.467h-1.685v-11.467H477v-1.386h9.94Z" transform="translate(-477.004 -1479.753)"/><path d="M492.5,1484.507a4.887,4.887,0,0,0-.8-.062,2.153,2.153,0,0,0-2.181,1.368v6.779h-1.633v-9.551h1.589l.026,1.1a2.546,2.546,0,0,1,2.278-1.28,1.671,1.671,0,0,1,.724.124Z" transform="translate(-476.956 -1479.739)"/><path d="M499.522,1492.592a3.432,3.432,0,0,1-.229-1.006,3.64,3.64,0,0,1-2.719,1.183,3.37,3.37,0,0,1-2.317-.8,2.584,2.584,0,0,1-.9-2.026,2.7,2.7,0,0,1,1.134-2.317,5.347,5.347,0,0,1,3.191-.826h1.59v-.75a1.837,1.837,0,0,0-.512-1.365,2.062,2.062,0,0,0-1.51-.507,2.381,2.381,0,0,0-1.465.442,1.3,1.3,0,0,0-.592,1.068h-1.642a2.255,2.255,0,0,1,.508-1.381,3.465,3.465,0,0,1,1.377-1.056,4.644,4.644,0,0,1,1.91-.388,3.777,3.777,0,0,1,2.587.826,2.975,2.975,0,0,1,.97,2.273v4.4a5.388,5.388,0,0,0,.335,2.092v.141Zm-2.71-1.244a2.876,2.876,0,0,0,1.456-.4,2.414,2.414,0,0,0,1-1.034v-1.959h-1.281q-3,0-3,1.757a1.485,1.485,0,0,0,.512,1.2A1.961,1.961,0,0,0,496.812,1491.348Z" transform="translate(-476.932 -1479.739)"/><path d="M504.96,1483.042l.053,1.2a3.482,3.482,0,0,1,2.86-1.377q3.028,0,3.054,3.416v6.312h-1.633v-6.321a2.2,2.2,0,0,0-.472-1.527,1.9,1.9,0,0,0-1.443-.494,2.351,2.351,0,0,0-1.4.424,2.873,2.873,0,0,0-.936,1.112v6.806h-1.633v-9.551Z" transform="translate(-476.888 -1479.739)"/><path d="M518.91,1490.059a1.2,1.2,0,0,0-.5-1.029,4.811,4.811,0,0,0-1.739-.63,8.235,8.235,0,0,1-1.969-.636,2.8,2.8,0,0,1-1.077-.883,2.108,2.108,0,0,1-.349-1.218,2.479,2.479,0,0,1,.992-1.987,3.882,3.882,0,0,1,2.538-.812,3.991,3.991,0,0,1,2.635.839,2.661,2.661,0,0,1,1.01,2.144h-1.642a1.473,1.473,0,0,0-.569-1.156,2.133,2.133,0,0,0-1.434-.485,2.235,2.235,0,0,0-1.394.388,1.223,1.223,0,0,0-.5,1.015.991.991,0,0,0,.467.892,5.754,5.754,0,0,0,1.691.574,8.832,8.832,0,0,1,1.982.654,2.883,2.883,0,0,1,1.125.913,2.251,2.251,0,0,1,.367,1.3A2.445,2.445,0,0,1,519.52,1492a4.3,4.3,0,0,1-2.658.772,4.813,4.813,0,0,1-2.03-.406,3.315,3.315,0,0,1-1.382-1.134,2.738,2.738,0,0,1-.5-1.576h1.633a1.69,1.69,0,0,0,.658,1.3,2.542,2.542,0,0,0,1.62.482,2.626,2.626,0,0,0,1.487-.376A1.151,1.151,0,0,0,518.91,1490.059Z" transform="translate(-476.847 -1479.739)"/><path d="M530.7,1487.923a5.721,5.721,0,0,1-1,3.513,3.2,3.2,0,0,1-2.7,1.333,3.5,3.5,0,0,1-2.737-1.1v4.6h-1.633v-13.224h1.492l.079,1.058a3.364,3.364,0,0,1,2.771-1.235,3.256,3.256,0,0,1,2.724,1.3,5.779,5.779,0,0,1,1,3.61Zm-1.633-.186a4.221,4.221,0,0,0-.688-2.551,2.218,2.218,0,0,0-1.889-.935,2.4,2.4,0,0,0-2.225,1.315v4.564a2.407,2.407,0,0,0,2.243,1.307,2.206,2.206,0,0,0,1.866-.931A4.608,4.608,0,0,0,529.063,1487.737Z" transform="translate(-476.804 -1479.739)"/><path d="M532.3,1487.729a5.644,5.644,0,0,1,.551-2.525,4.124,4.124,0,0,1,1.537-1.731,4.184,4.184,0,0,1,2.247-.609,4.029,4.029,0,0,1,3.156,1.35,5.2,5.2,0,0,1,1.2,3.594v.115a5.689,5.689,0,0,1-.533,2.5,4.058,4.058,0,0,1-1.528,1.727,4.229,4.229,0,0,1-2.282.618,4.016,4.016,0,0,1-3.147-1.351,5.168,5.168,0,0,1-1.205-3.574Zm1.642.194a4.088,4.088,0,0,0,.737,2.551,2.5,2.5,0,0,0,3.95-.014,4.464,4.464,0,0,0,.732-2.731,4.087,4.087,0,0,0-.745-2.548,2.374,2.374,0,0,0-1.982-.974,2.345,2.345,0,0,0-1.952.962A4.433,4.433,0,0,0,533.938,1487.923Z" transform="translate(-476.762 -1479.739)"/><path d="M547.609,1484.507a4.887,4.887,0,0,0-.8-.062,2.153,2.153,0,0,0-2.181,1.368v6.779h-1.633v-9.551h1.589l.027,1.1a2.543,2.543,0,0,1,2.277-1.28,1.668,1.668,0,0,1,.724.124Z" transform="translate(-476.715 -1479.739)"/><path d="M551.744,1480.738v2.313h1.783v1.261h-1.783v5.932a1.323,1.323,0,0,0,.238.861,1,1,0,0,0,.813.287,3.96,3.96,0,0,0,.776-.105v1.316a4.741,4.741,0,0,1-1.253.176,2.035,2.035,0,0,1-1.65-.662,2.841,2.841,0,0,1-.556-1.88v-5.924h-1.74v-1.261h1.74v-2.313Z" transform="translate(-476.692 -1479.749)"/><path d="M559.368,1492.769a4.177,4.177,0,0,1-3.161-1.275,4.739,4.739,0,0,1-1.217-3.413v-.3a5.732,5.732,0,0,1,.542-2.537,4.23,4.23,0,0,1,1.519-1.748,3.816,3.816,0,0,1,2.114-.632,3.579,3.579,0,0,1,2.9,1.226,5.317,5.317,0,0,1,1.032,3.513v.68h-6.47a3.391,3.391,0,0,0,.825,2.282,2.593,2.593,0,0,0,2.009.87,2.841,2.841,0,0,0,1.465-.354,3.7,3.7,0,0,0,1.051-.935l1,.776A4.01,4.01,0,0,1,559.368,1492.769Zm-.2-8.562a2.18,2.18,0,0,0-1.66.72,3.5,3.5,0,0,0-.83,2.016h4.785v-.124a3.112,3.112,0,0,0-.671-1.928A2.051,2.051,0,0,0,559.165,1484.207Z" transform="translate(-476.663 -1479.739)"/></g><g transform="translate(445.926 245.717)"><path d="M681.26,1489.243h-5.384l-1.209,3.363h-1.748l4.907-12.853h1.483l4.917,12.853h-1.74Zm-4.872-1.386h4.369l-2.189-6.012Z" transform="translate(-672.919 -1479.047)"/><path d="M687.419,1492.609h-1.633V1479.05h1.633Z" transform="translate(-672.863 -1479.05)"/><path d="M691.55,1483.042l.044,1.058a3.527,3.527,0,0,1,2.833-1.235,2.732,2.732,0,0,1,2.728,1.536,3.611,3.611,0,0,1,1.24-1.112,3.655,3.655,0,0,1,1.8-.424q3.143,0,3.2,3.328v6.4h-1.633v-6.3a2.2,2.2,0,0,0-.468-1.532,2.065,2.065,0,0,0-1.572-.507,2.165,2.165,0,0,0-1.509.542,2.2,2.2,0,0,0-.7,1.461v6.338h-1.642v-6.258a1.822,1.822,0,0,0-2.039-2.083,2.184,2.184,0,0,0-2.2,1.368v6.973H690v-9.551Z" transform="translate(-672.844 -1479.033)"/><path d="M711.688,1492.592a3.422,3.422,0,0,1-.23-1.006,3.639,3.639,0,0,1-2.719,1.183,3.374,3.374,0,0,1-2.317-.8,2.587,2.587,0,0,1-.9-2.026,2.7,2.7,0,0,1,1.135-2.317,5.347,5.347,0,0,1,3.191-.826h1.589v-.75a1.837,1.837,0,0,0-.512-1.365,2.062,2.062,0,0,0-1.51-.507,2.383,2.383,0,0,0-1.465.442,1.3,1.3,0,0,0-.592,1.068h-1.641a2.254,2.254,0,0,1,.507-1.381,3.472,3.472,0,0,1,1.377-1.056,4.649,4.649,0,0,1,1.911-.388,3.774,3.774,0,0,1,2.586.826,2.976,2.976,0,0,1,.971,2.273v4.4a5.369,5.369,0,0,0,.336,2.092v.141Zm-2.71-1.244a2.879,2.879,0,0,0,1.456-.4,2.406,2.406,0,0,0,1-1.034v-1.959h-1.28q-3,0-3,1.757a1.486,1.486,0,0,0,.512,1.2A1.964,1.964,0,0,0,708.978,1491.348Z" transform="translate(-672.776 -1479.033)"/><path d="M719.414,1491.436a2.357,2.357,0,0,0,1.528-.529,1.867,1.867,0,0,0,.724-1.325h1.545a2.966,2.966,0,0,1-.565,1.563,3.728,3.728,0,0,1-1.39,1.183,4.012,4.012,0,0,1-1.841.441,3.932,3.932,0,0,1-3.1-1.3,5.18,5.18,0,0,1-1.152-3.561v-.273a5.75,5.75,0,0,1,.512-2.481,3.9,3.9,0,0,1,1.469-1.686,4.179,4.179,0,0,1,2.265-.6,3.828,3.828,0,0,1,2.67.962,3.439,3.439,0,0,1,1.135,2.5h-1.545a2.251,2.251,0,0,0-.7-1.523,2.181,2.181,0,0,0-1.558-.6,2.288,2.288,0,0,0-1.929.9,4.208,4.208,0,0,0-.684,2.59V1488a4.124,4.124,0,0,0,.68,2.542A2.3,2.3,0,0,0,719.414,1491.436Z" transform="translate(-672.734 -1479.033)"/><path d="M728.968,1492.769a4.173,4.173,0,0,1-3.16-1.275,4.736,4.736,0,0,1-1.218-3.413v-.3a5.733,5.733,0,0,1,.542-2.537,4.238,4.238,0,0,1,1.519-1.748,3.815,3.815,0,0,1,2.114-.632,3.579,3.579,0,0,1,2.9,1.226,5.317,5.317,0,0,1,1.033,3.513v.68h-6.47a3.391,3.391,0,0,0,.825,2.282,2.593,2.593,0,0,0,2.009.87,2.841,2.841,0,0,0,1.465-.354,3.7,3.7,0,0,0,1.051-.935l1,.776A4.01,4.01,0,0,1,728.968,1492.769Zm-.2-8.562a2.176,2.176,0,0,0-1.659.72,3.492,3.492,0,0,0-.831,2.016h4.785v-.124a3.112,3.112,0,0,0-.671-1.928A2.049,2.049,0,0,0,728.765,1484.207Z" transform="translate(-672.693 -1479.033)"/><path d="M736.084,1483.042l.053,1.2a3.479,3.479,0,0,1,2.859-1.377q3.028,0,3.054,3.416v6.312h-1.633v-6.321a2.192,2.192,0,0,0-.472-1.527,1.891,1.891,0,0,0-1.443-.494,2.355,2.355,0,0,0-1.4.424,2.871,2.871,0,0,0-.935,1.112v6.806h-1.633v-9.551Z" transform="translate(-672.649 -1479.033)"/><path d="M750.369,1492.592a3.424,3.424,0,0,1-.23-1.006,3.64,3.64,0,0,1-2.719,1.183,3.372,3.372,0,0,1-2.317-.8,2.584,2.584,0,0,1-.9-2.026,2.7,2.7,0,0,1,1.134-2.317,5.348,5.348,0,0,1,3.192-.826h1.589v-.75a1.837,1.837,0,0,0-.512-1.365,2.062,2.062,0,0,0-1.51-.507,2.383,2.383,0,0,0-1.465.442,1.3,1.3,0,0,0-.592,1.068h-1.642a2.255,2.255,0,0,1,.508-1.381,3.472,3.472,0,0,1,1.377-1.056,4.645,4.645,0,0,1,1.911-.388,3.776,3.776,0,0,1,2.586.826,2.979,2.979,0,0,1,.971,2.273v4.4a5.369,5.369,0,0,0,.335,2.092v.141Zm-2.711-1.244a2.879,2.879,0,0,0,1.457-.4,2.4,2.4,0,0,0,1-1.034v-1.959h-1.281q-3,0-3,1.757a1.486,1.486,0,0,0,.512,1.2A1.963,1.963,0,0,0,747.658,1491.348Z" transform="translate(-672.607 -1479.033)"/><path d="M755.8,1483.042l.044,1.058a3.527,3.527,0,0,1,2.833-1.235,2.732,2.732,0,0,1,2.728,1.536,3.611,3.611,0,0,1,1.24-1.112,3.655,3.655,0,0,1,1.8-.424q3.143,0,3.2,3.328v6.4h-1.633v-6.3a2.2,2.2,0,0,0-.468-1.532,2.065,2.065,0,0,0-1.572-.507,2.164,2.164,0,0,0-1.509.542,2.2,2.2,0,0,0-.7,1.461v6.338h-1.642v-6.258a1.822,1.822,0,0,0-2.039-2.083,2.184,2.184,0,0,0-2.2,1.368v6.973h-1.633v-9.551Z" transform="translate(-672.563 -1479.033)"/><path d="M770.047,1480.522a.975.975,0,0,1,.242-.671.911.911,0,0,1,.72-.273.923.923,0,0,1,.723.273.965.965,0,0,1,.247.671,1.011,1.011,0,0,1-1.69.662A.942.942,0,0,1,770.047,1480.522Zm1.765,12.085H770.18v-9.551h1.632Z" transform="translate(-672.494 -1479.048)"/><path d="M778.371,1492.769a4.173,4.173,0,0,1-3.16-1.275,4.736,4.736,0,0,1-1.218-3.413v-.3a5.732,5.732,0,0,1,.542-2.537,4.245,4.245,0,0,1,1.519-1.748,3.818,3.818,0,0,1,2.114-.632,3.578,3.578,0,0,1,2.9,1.226,5.312,5.312,0,0,1,1.032,3.513v.68h-6.47a3.387,3.387,0,0,0,.826,2.282,2.591,2.591,0,0,0,2.008.87,2.839,2.839,0,0,0,1.465-.354,3.683,3.683,0,0,0,1.051-.935l1,.776A4.01,4.01,0,0,1,778.371,1492.769Zm-.2-8.562a2.176,2.176,0,0,0-1.659.72,3.491,3.491,0,0,0-.83,2.016h4.784v-.124a3.107,3.107,0,0,0-.671-1.928A2.049,2.049,0,0,0,778.168,1484.207Z" transform="translate(-672.477 -1479.033)"/><path d="M785.487,1483.042l.053,1.2a3.482,3.482,0,0,1,2.86-1.377q3.027,0,3.054,3.416v6.312h-1.633v-6.321a2.2,2.2,0,0,0-.473-1.527,1.891,1.891,0,0,0-1.443-.494,2.35,2.35,0,0,0-1.394.424,2.873,2.873,0,0,0-.936,1.112v6.806h-1.633v-9.551Z" transform="translate(-672.433 -1479.033)"/><path d="M796.095,1480.738v2.313h1.783v1.261h-1.783v5.932a1.324,1.324,0,0,0,.238.861,1,1,0,0,0,.813.287,3.96,3.96,0,0,0,.776-.105v1.316a4.741,4.741,0,0,1-1.253.176,2.035,2.035,0,0,1-1.65-.662,2.842,2.842,0,0,1-.556-1.88v-5.924h-1.74v-1.261h1.74v-2.313Z" transform="translate(-672.395 -1479.043)"/><path d="M799.147,1487.729a5.631,5.631,0,0,1,.552-2.525,4.122,4.122,0,0,1,1.536-1.731,4.184,4.184,0,0,1,2.247-.609,4.029,4.029,0,0,1,3.156,1.35,5.2,5.2,0,0,1,1.2,3.594v.115a5.689,5.689,0,0,1-.533,2.5,4.057,4.057,0,0,1-1.528,1.727,4.229,4.229,0,0,1-2.282.618,4.016,4.016,0,0,1-3.147-1.351,5.167,5.167,0,0,1-1.205-3.574Zm1.642.194a4.088,4.088,0,0,0,.737,2.551,2.5,2.5,0,0,0,3.95-.014,4.463,4.463,0,0,0,.733-2.731,4.086,4.086,0,0,0-.746-2.548,2.374,2.374,0,0,0-1.982-.974,2.345,2.345,0,0,0-1.951.962A4.433,4.433,0,0,0,800.789,1487.923Z" transform="translate(-672.367 -1479.033)"/></g><g transform="translate(674.476 246.247)"><path d="M910.414,1481.139h-4.131v11.467H904.6v-11.467h-4.123v-1.386h9.94Z" transform="translate(-900.474 -1479.577)"/><path d="M915.972,1484.507a4.888,4.888,0,0,0-.8-.062,2.153,2.153,0,0,0-2.18,1.368v6.779h-1.633v-9.551h1.589l.027,1.1a2.543,2.543,0,0,1,2.277-1.28,1.668,1.668,0,0,1,.724.124Z" transform="translate(-900.426 -1479.563)"/><path d="M922.993,1492.592a3.422,3.422,0,0,1-.23-1.006,3.64,3.64,0,0,1-2.719,1.183,3.374,3.374,0,0,1-2.317-.8,2.584,2.584,0,0,1-.9-2.026,2.7,2.7,0,0,1,1.134-2.317,5.348,5.348,0,0,1,3.192-.826h1.589v-.75a1.837,1.837,0,0,0-.512-1.365,2.062,2.062,0,0,0-1.51-.507,2.383,2.383,0,0,0-1.465.442,1.3,1.3,0,0,0-.592,1.068h-1.642a2.255,2.255,0,0,1,.508-1.381,3.472,3.472,0,0,1,1.377-1.056,4.645,4.645,0,0,1,1.911-.388,3.776,3.776,0,0,1,2.586.826,2.979,2.979,0,0,1,.971,2.273v4.4a5.369,5.369,0,0,0,.336,2.092v.141Zm-2.711-1.244a2.88,2.88,0,0,0,1.457-.4,2.4,2.4,0,0,0,1-1.034v-1.959h-1.281q-3,0-3,1.757a1.485,1.485,0,0,0,.512,1.2A1.963,1.963,0,0,0,920.282,1491.348Z" transform="translate(-900.402 -1479.563)"/><path d="M929.107,1480.738v2.313h1.783v1.261h-1.783v5.932a1.324,1.324,0,0,0,.238.861,1,1,0,0,0,.812.287,3.96,3.96,0,0,0,.777-.105v1.316a4.742,4.742,0,0,1-1.253.176,2.035,2.035,0,0,1-1.651-.662,2.847,2.847,0,0,1-.555-1.88v-5.924h-1.74v-1.261h1.74v-2.313Z" transform="translate(-900.364 -1479.573)"/><path d="M938.664,1492.592a3.42,3.42,0,0,1-.23-1.006,3.641,3.641,0,0,1-2.719,1.183,3.37,3.37,0,0,1-2.317-.8,2.584,2.584,0,0,1-.9-2.026,2.7,2.7,0,0,1,1.134-2.317,5.348,5.348,0,0,1,3.192-.826h1.589v-.75a1.837,1.837,0,0,0-.512-1.365,2.062,2.062,0,0,0-1.51-.507,2.383,2.383,0,0,0-1.465.442,1.3,1.3,0,0,0-.592,1.068h-1.642a2.255,2.255,0,0,1,.508-1.381,3.472,3.472,0,0,1,1.377-1.056,4.645,4.645,0,0,1,1.911-.388,3.776,3.776,0,0,1,2.586.826,2.979,2.979,0,0,1,.971,2.273v4.4a5.37,5.37,0,0,0,.335,2.092v.141Zm-2.711-1.244a2.876,2.876,0,0,0,1.456-.4,2.408,2.408,0,0,0,1-1.034v-1.959h-1.281q-3,0-3,1.757a1.485,1.485,0,0,0,.512,1.2A1.963,1.963,0,0,0,935.953,1491.348Z" transform="translate(-900.334 -1479.563)"/><path d="M944.093,1483.042l.044,1.058a3.527,3.527,0,0,1,2.833-1.235,2.732,2.732,0,0,1,2.728,1.536,3.612,3.612,0,0,1,1.24-1.112,3.653,3.653,0,0,1,1.8-.424q3.143,0,3.2,3.328v6.4h-1.633v-6.3a2.2,2.2,0,0,0-.468-1.532,2.065,2.065,0,0,0-1.572-.507,2.169,2.169,0,0,0-1.51.542,2.207,2.207,0,0,0-.7,1.461v6.338h-1.642v-6.258a1.822,1.822,0,0,0-2.039-2.083,2.184,2.184,0,0,0-2.2,1.368v6.973h-1.633v-9.551Z" transform="translate(-900.29 -1479.563)"/><path d="M958.342,1480.522a.975.975,0,0,1,.242-.671.911.911,0,0,1,.72-.273.923.923,0,0,1,.723.273.965.965,0,0,1,.247.671.966.966,0,1,1-1.932,0Zm1.765,12.085h-1.633v-9.551h1.633Z" transform="translate(-900.221 -1479.578)"/><path d="M966.666,1492.769a4.173,4.173,0,0,1-3.16-1.275,4.736,4.736,0,0,1-1.218-3.413v-.3a5.733,5.733,0,0,1,.542-2.537,4.245,4.245,0,0,1,1.519-1.748,3.818,3.818,0,0,1,2.114-.632,3.579,3.579,0,0,1,2.9,1.226,5.317,5.317,0,0,1,1.032,3.513v.68h-6.47a3.387,3.387,0,0,0,.826,2.282,2.591,2.591,0,0,0,2.008.87,2.838,2.838,0,0,0,1.465-.354,3.68,3.68,0,0,0,1.051-.935l1,.776A4.01,4.01,0,0,1,966.666,1492.769Zm-.2-8.562a2.176,2.176,0,0,0-1.659.72,3.485,3.485,0,0,0-.83,2.016h4.784v-.124a3.107,3.107,0,0,0-.671-1.928A2.049,2.049,0,0,0,966.463,1484.207Z" transform="translate(-900.204 -1479.563)"/><path d="M973.782,1483.042l.053,1.2a3.481,3.481,0,0,1,2.86-1.377q3.027,0,3.054,3.416v6.312h-1.633v-6.321a2.2,2.2,0,0,0-.473-1.527,1.892,1.892,0,0,0-1.443-.494,2.35,2.35,0,0,0-1.394.424,2.873,2.873,0,0,0-.936,1.112v6.806h-1.633v-9.551Z" transform="translate(-900.16 -1479.563)"/><path d="M984.39,1480.738v2.313h1.783v1.261H984.39v5.932a1.323,1.323,0,0,0,.238.861,1,1,0,0,0,.813.287,3.96,3.96,0,0,0,.776-.105v1.316a4.741,4.741,0,0,1-1.253.176,2.035,2.035,0,0,1-1.65-.662,2.841,2.841,0,0,1-.556-1.88v-5.924h-1.74v-1.261h1.74v-2.313Z" transform="translate(-900.122 -1479.573)"/><path d="M987.442,1487.729a5.644,5.644,0,0,1,.551-2.525,4.124,4.124,0,0,1,1.537-1.731,4.184,4.184,0,0,1,2.247-.609,4.029,4.029,0,0,1,3.156,1.35,5.2,5.2,0,0,1,1.2,3.594v.115a5.689,5.689,0,0,1-.533,2.5,4.058,4.058,0,0,1-1.528,1.727,4.229,4.229,0,0,1-2.282.618,4.016,4.016,0,0,1-3.147-1.351,5.167,5.167,0,0,1-1.205-3.574Zm1.642.194a4.088,4.088,0,0,0,.737,2.551,2.5,2.5,0,0,0,3.95-.014,4.464,4.464,0,0,0,.732-2.731,4.086,4.086,0,0,0-.745-2.548,2.374,2.374,0,0,0-1.982-.974,2.345,2.345,0,0,0-1.951.962A4.432,4.432,0,0,0,989.084,1487.923Z" transform="translate(-900.094 -1479.563)"/></g><g transform="translate(899.732 245.717)"><path d="M1124.749,1492.606v-12.853h3.629a5.845,5.845,0,0,1,2.966.742,5.018,5.018,0,0,1,1.991,2.109,6.881,6.881,0,0,1,.71,3.143v.822a6.886,6.886,0,0,1-.7,3.186,4.923,4.923,0,0,1-2,2.1,6.2,6.2,0,0,1-3.032.75Zm1.7-11.467v10.081h1.783a3.881,3.881,0,0,0,3.05-1.218,5.042,5.042,0,0,0,1.09-3.472v-.752a5.113,5.113,0,0,0-1.028-3.4,3.658,3.658,0,0,0-2.917-1.233Z" transform="translate(-1124.749 -1479.047)"/><path d="M1136.307,1480.522a.971.971,0,0,1,.243-.671.91.91,0,0,1,.719-.273.925.925,0,0,1,.724.273.965.965,0,0,1,.247.671.932.932,0,0,1-.247.662.943.943,0,0,1-.724.265.927.927,0,0,1-.719-.265A.938.938,0,0,1,1136.307,1480.522Zm1.766,12.085h-1.633v-9.551h1.633Z" transform="translate(-1124.698 -1479.048)"/><path d="M1146.229,1490.059a1.206,1.206,0,0,0-.5-1.029,4.81,4.81,0,0,0-1.74-.63,8.248,8.248,0,0,1-1.969-.636,2.806,2.806,0,0,1-1.077-.883,2.115,2.115,0,0,1-.349-1.218,2.48,2.48,0,0,1,.993-1.987,3.878,3.878,0,0,1,2.538-.812,3.988,3.988,0,0,1,2.634.839,2.661,2.661,0,0,1,1.01,2.144h-1.641a1.474,1.474,0,0,0-.57-1.156,2.134,2.134,0,0,0-1.434-.485,2.238,2.238,0,0,0-1.4.388,1.223,1.223,0,0,0-.5,1.015.99.99,0,0,0,.468.892,5.733,5.733,0,0,0,1.69.574,8.831,8.831,0,0,1,1.982.654,2.892,2.892,0,0,1,1.126.913,2.25,2.25,0,0,1,.366,1.3,2.443,2.443,0,0,1-1.023,2.052,4.3,4.3,0,0,1-2.658.772,4.819,4.819,0,0,1-2.03-.406,3.316,3.316,0,0,1-1.382-1.134,2.737,2.737,0,0,1-.5-1.576h1.633a1.685,1.685,0,0,0,.658,1.3,2.539,2.539,0,0,0,1.619.482,2.624,2.624,0,0,0,1.488-.376A1.151,1.151,0,0,0,1146.229,1490.059Z" transform="translate(-1124.681 -1479.033)"/><path d="M1158.016,1487.923a5.721,5.721,0,0,1-1,3.513,3.2,3.2,0,0,1-2.7,1.333,3.5,3.5,0,0,1-2.736-1.1v4.6h-1.633v-13.224h1.491l.079,1.058a3.365,3.365,0,0,1,2.772-1.235,3.255,3.255,0,0,1,2.723,1.3,5.778,5.778,0,0,1,1,3.61Zm-1.633-.186a4.219,4.219,0,0,0-.689-2.551,2.217,2.217,0,0,0-1.889-.935,2.4,2.4,0,0,0-2.224,1.315v4.564a2.4,2.4,0,0,0,2.242,1.307,2.209,2.209,0,0,0,1.867-.931A4.607,4.607,0,0,0,1156.383,1487.737Z" transform="translate(-1124.639 -1479.033)"/><path d="M1159.616,1487.729a5.643,5.643,0,0,1,.551-2.525,4.122,4.122,0,0,1,1.536-1.731,4.184,4.184,0,0,1,2.247-.609,4.029,4.029,0,0,1,3.156,1.35,5.2,5.2,0,0,1,1.205,3.594v.115a5.69,5.69,0,0,1-.534,2.5,4.045,4.045,0,0,1-1.528,1.727,4.228,4.228,0,0,1-2.281.618,4.017,4.017,0,0,1-3.148-1.351,5.167,5.167,0,0,1-1.2-3.574Zm1.641.194a4.088,4.088,0,0,0,.737,2.551,2.5,2.5,0,0,0,3.95-.014,4.456,4.456,0,0,0,.733-2.731,4.087,4.087,0,0,0-.746-2.548,2.374,2.374,0,0,0-1.982-.974,2.343,2.343,0,0,0-1.95.962A4.426,4.426,0,0,0,1161.257,1487.923Z" transform="translate(-1124.597 -1479.033)"/><path d="M1175.875,1490.059a1.206,1.206,0,0,0-.5-1.029,4.81,4.81,0,0,0-1.739-.63,8.233,8.233,0,0,1-1.969-.636,2.8,2.8,0,0,1-1.077-.883,2.108,2.108,0,0,1-.35-1.218,2.48,2.48,0,0,1,.993-1.987,3.88,3.88,0,0,1,2.538-.812,3.991,3.991,0,0,1,2.635.839,2.661,2.661,0,0,1,1.01,2.144h-1.642a1.474,1.474,0,0,0-.569-1.156,2.135,2.135,0,0,0-1.434-.485,2.238,2.238,0,0,0-1.4.388,1.223,1.223,0,0,0-.5,1.015.992.992,0,0,0,.468.892,5.755,5.755,0,0,0,1.69.574,8.822,8.822,0,0,1,1.983.654,2.888,2.888,0,0,1,1.125.913,2.251,2.251,0,0,1,.367,1.3,2.443,2.443,0,0,1-1.024,2.052,4.291,4.291,0,0,1-2.656.772,4.82,4.82,0,0,1-2.031-.406,3.314,3.314,0,0,1-1.381-1.134,2.739,2.739,0,0,1-.5-1.576h1.633a1.691,1.691,0,0,0,.658,1.3,2.542,2.542,0,0,0,1.62.482,2.626,2.626,0,0,0,1.487-.376A1.151,1.151,0,0,0,1175.875,1490.059Z" transform="translate(-1124.552 -1479.033)"/><path d="M1179.6,1480.522a.971.971,0,0,1,.243-.671.909.909,0,0,1,.719-.273.927.927,0,0,1,.724.273.965.965,0,0,1,.247.671.933.933,0,0,1-.247.662.945.945,0,0,1-.724.265.926.926,0,0,1-.719-.265A.938.938,0,0,1,1179.6,1480.522Zm1.766,12.085h-1.633v-9.551h1.633Z" transform="translate(-1124.509 -1479.048)"/><path d="M1187.794,1491.436a2.353,2.353,0,0,0,1.527-.529,1.864,1.864,0,0,0,.724-1.325h1.545a2.958,2.958,0,0,1-.566,1.563,3.719,3.719,0,0,1-1.39,1.183,4.011,4.011,0,0,1-1.84.441,3.934,3.934,0,0,1-3.1-1.3,5.185,5.185,0,0,1-1.152-3.561v-.273a5.751,5.751,0,0,1,.512-2.481,3.907,3.907,0,0,1,1.469-1.686,4.182,4.182,0,0,1,2.265-.6,3.83,3.83,0,0,1,2.671.962,3.438,3.438,0,0,1,1.134,2.5h-1.545a2.251,2.251,0,0,0-.7-1.523,2.181,2.181,0,0,0-1.558-.6,2.291,2.291,0,0,0-1.929.9,4.208,4.208,0,0,0-.684,2.59V1488a4.124,4.124,0,0,0,.68,2.542A2.3,2.3,0,0,0,1187.794,1491.436Z" transform="translate(-1124.492 -1479.033)"/><path d="M1193.392,1480.522a.972.972,0,0,1,.243-.671.908.908,0,0,1,.719-.273.926.926,0,0,1,.724.273.965.965,0,0,1,.247.671.933.933,0,0,1-.247.662.943.943,0,0,1-.724.265.925.925,0,0,1-.719-.265A.939.939,0,0,1,1193.392,1480.522Zm1.766,12.085h-1.633v-9.551h1.633Z" transform="translate(-1124.449 -1479.048)"/><path d="M1197.321,1487.746a5.644,5.644,0,0,1,.551-2.525,4.121,4.121,0,0,1,1.536-1.731,4.186,4.186,0,0,1,2.247-.609,4.029,4.029,0,0,1,3.156,1.35,5.2,5.2,0,0,1,1.205,3.594v.115a5.677,5.677,0,0,1-.534,2.5,4.05,4.05,0,0,1-1.527,1.727,4.234,4.234,0,0,1-2.282.618,4.018,4.018,0,0,1-3.148-1.351,5.167,5.167,0,0,1-1.2-3.574Zm1.641.194a4.088,4.088,0,0,0,.737,2.551,2.5,2.5,0,0,0,3.95-.014,4.456,4.456,0,0,0,.733-2.731,4.088,4.088,0,0,0-.746-2.548,2.374,2.374,0,0,0-1.982-.974,2.343,2.343,0,0,0-1.951.962A4.427,4.427,0,0,0,1198.962,1487.94Zm3.434-8.89h1.978l-2.365,2.6-1.316,0Z" transform="translate(-1124.432 -1479.05)"/><path d="M1209.562,1483.042l.053,1.2a3.479,3.479,0,0,1,2.859-1.377q3.028,0,3.054,3.416v6.312H1213.9v-6.321a2.191,2.191,0,0,0-.472-1.527,1.891,1.891,0,0,0-1.443-.494,2.356,2.356,0,0,0-1.4.424,2.88,2.88,0,0,0-.935,1.112v6.806h-1.633v-9.551Z" transform="translate(-1124.385 -1479.033)"/></g><g transform="translate(43.268 47.861)"><path d="M347.571,1343.284h-1.278v-34.893a1.124,1.124,0,0,0-1.123-1.123h-4.879v-15.684a1.123,1.123,0,0,0-1.124-1.123h-4.8a1.122,1.122,0,0,0-1.123,1.123v15.684h-2.556v-15.684a1.123,1.123,0,0,0-1.123-1.123h-4.8a1.123,1.123,0,0,0-1.123,1.123v15.684h-2.555v-6.08a1.124,1.124,0,0,0-1.124-1.123H304.352a1.123,1.123,0,0,0-1.123,1.123v6.08H299.55a1.122,1.122,0,0,0-1.123,1.123v9.908l-3.756.854v-4.759a1.124,1.124,0,0,0-1.124-1.124h-.12l-1.114-28.967h.033a1.123,1.123,0,0,0,0-2.247h-9.6a1.123,1.123,0,1,0,0,2.247h.033l-.232,6.036a1.123,1.123,0,0,0,1.079,1.166h.044a1.124,1.124,0,0,0,1.122-1.081l.05-1.321h5.412l.929,24.165h-7.27l.694-18.043a1.123,1.123,0,0,0-2.245-.086l-.7,18.129h-.12a1.124,1.124,0,0,0-1.123,1.124v8l-7.53,1.712a1.123,1.123,0,1,0,.5,2.19l1.029-.234v17.224h-1.279a1.123,1.123,0,0,0,0,2.247h74.433a1.123,1.123,0,1,0,0-2.247Zm-62.646-56.425.1-2.556h5.042l.1,2.556Zm-2.26,28.658h9.758v4.147l-9.758,2.218Zm9.758,27.767h-9.758v-2.555h9.758Zm0-4.8h-9.758v-2.556h9.758Zm0-4.8h-9.758v-2.556h9.758Zm6,9.6h-3.756v-12.16h.077a1.123,1.123,0,0,0,0-2.246H280.341a1.123,1.123,0,0,0,0,2.246h.077v12.16h-3.756v-17.734l21.765-4.947Zm37.061-50.577h2.556v2.556h-2.556Zm0,4.8h2.556v9.758h-2.556Zm-9.6-4.8h2.555v2.556h-2.555Zm0,4.8h2.555v9.758h-2.555Zm-25.212,12.005h12.083a1.123,1.123,0,1,0,0-2.247h-7.28v-4.956h13.36v4.956h-1.279a1.123,1.123,0,0,0,0,2.247h26.489v19.363H300.673Zm37.372,21.609v7.358h-4.957v-7.358Zm-7.2,0v7.358h-4.957v-7.358Zm-12.005,0v7.358h-4.957v-7.358Zm-7.2,0v7.358h-4.957v-7.358Zm32.414,12.16H300.673v-12.16h3.756v8.481a1.124,1.124,0,0,0,1.124,1.124h14.406a1.124,1.124,0,0,0,1.124-1.124v-8.481h2.555v8.481a1.124,1.124,0,0,0,1.123,1.124h14.407a1.124,1.124,0,0,0,1.124-1.124v-8.481h3.755Z" transform="translate(-272.015 -1282.056)" fill="#fff"/></g><g transform="translate(908.226 50.174)"><path d="M1192.788,1313.121h-14.382v-4.109a2.054,2.054,0,0,0-2.055-2.054h-1.027v-21.573a1.027,1.027,0,1,0-2.054,0v2.054h-9.931a3.075,3.075,0,0,0-2.844,1.9l-4.346,10.431h-6.506v-12.328a2.055,2.055,0,0,0-2.054-2.054h-7.561a2.055,2.055,0,0,0-1.87,1.208l-1.6,3.517v.012l-3.259,7.164v.012a1.045,1.045,0,0,0-.092.413v8.219a3.082,3.082,0,0,0,3.082,3.081h.1a5.054,5.054,0,0,0,.95,4.109h-2.08a2.043,2.043,0,0,0-2.055,2.024v28.826a2.041,2.041,0,0,0,2.055,2.024h57.528a2.041,2.041,0,0,0,2.055-2.024v-28.826A2.042,2.042,0,0,0,1192.788,1313.121Zm0,24.622a16.461,16.461,0,0,1-2.4-.288l2.4-3.133Zm-6.781-1.952,6.4-8.339c.128.007.252.017.384.022v3.47l-4.53,5.907a15.652,15.652,0,0,1-2.251-1.055Zm-7.6-13.9a14.374,14.374,0,0,1,3.305,1.4l-3.305,4.31Zm0,9.081,5.077-6.619c.679.42,1.368.842,2.111,1.232l-5.417,7.069a14.748,14.748,0,0,0-1.771-.539Zm9.11-4.512a15.364,15.364,0,0,0,2.522.7l-5.8,7.566c-.674-.416-1.368-.833-2.119-1.225Zm5.272-11.317v10.264a15.558,15.558,0,0,1-8.369-2.89,19.177,19.177,0,0,0-6.013-2.747v-4.6Zm-16.437-1v22.168l-2.061,2.055-2.048-2.044v-27.316h4.109Zm-29.951,21.716,6.444-8.4c.4.021.812.037,1.246.037.651,0,1.262-.026,1.838-.073l-7.264,9.469a15.367,15.367,0,0,1-2.265-1.036Zm-11.14-14.484a16.692,16.692,0,0,1,2.487.3l-2.487,3.242Zm.467,10.288c-.156-.011-.307-.024-.467-.032v-3.343l4.612-6.012a16.056,16.056,0,0,1,2.239,1.079Zm8.155-7.242c.677.42,1.367.838,2.113,1.226l-5.392,7.042a15.426,15.426,0,0,0-2.514-.719Zm4.046,2.084a15.611,15.611,0,0,0,2.536.685l-5.837,7.6c-.67-.418-1.361-.84-2.108-1.233Zm10.972.423a17.222,17.222,0,0,0,4.622-2.026l-9.862,12.855a17.3,17.3,0,0,1-2.85-.279Zm9.132-4.533a13.268,13.268,0,0,1,2.157-.675v1.85l-10.028,13.078a13.916,13.916,0,0,1-3.815.978Zm2.156,4.556v5c-.184.036-.367.073-.566.12a16.592,16.592,0,0,0-4.915,2.024Zm3.082-20h-1.027a2.054,2.054,0,0,0-2.055,2.054v4.109h-6.176a5.107,5.107,0,0,0,1-3.718c-.017-.135-.062-.259-.089-.391h.128a3.082,3.082,0,0,0,3.083-3.081v-16.437h5.136Zm-26.812,2.054h8.446a4.944,4.944,0,0,0,.918,4.109h-10.316a5.055,5.055,0,0,0,.951-4.109Zm16.517.646a3.082,3.082,0,1,1-3.441-2.677,2.981,2.981,0,0,1,.38-.023,3.087,3.087,0,0,1,3.059,2.7Zm-.584-19.532a1.027,1.027,0,0,1,.948-.632h2.74v10.273h-7.7Zm-5.557,11.7h9.245v4.109a1.028,1.028,0,0,1-1.028,1.027H1164a5.111,5.111,0,0,0-8.135-.072c-.017.023-.028.049-.045.072h-6.174v-5.136Zm-18.673-10.273h5.318v5.136h-7.65Zm-1.872,15.409a1.027,1.027,0,0,1-1.027-1.027v-3.083h2.055a1.027,1.027,0,0,0,0-2.054h-2.055v-2.055h9.245a1.027,1.027,0,0,0,1.027-1.027v-7.19a1.027,1.027,0,0,0-1.027-1.027h-5.413l.934-2.055h7.561v19.519h-2.082a5.082,5.082,0,0,0-8.165,0Zm2.054,3.081a3.082,3.082,0,1,1,3.083,3.081A3.082,3.082,0,0,1,1138.342,1310.04Zm21.565,5.136h10.281v4.459a18.484,18.484,0,0,0-6.709,2.89,16.512,16.512,0,0,1-18.767,0,17.359,17.359,0,0,0-9.451-3.213v-4.133Zm-24.646,28.794v-10.278c.294.014.58.035.853.062a13.587,13.587,0,0,1,4.417,1.119,24.2,24.2,0,0,1,3.072,1.708l.739.456a18.168,18.168,0,0,0,4.357,2.049h.011l.018.006a18.268,18.268,0,0,0,5.422.737h.006a17.059,17.059,0,0,0,7.06-1.382l.027-.014h.006a27.149,27.149,0,0,0,3.3-1.826,17.057,17.057,0,0,1,5.54-2.53c.037-.01.067-.014.1-.022v2.272a2.062,2.062,0,0,0,.6,1.448l2.054,2.054a2.061,2.061,0,0,0,2.913,0l2.054-2.054a2.051,2.051,0,0,0,.6-1.448v-2.1a12.859,12.859,0,0,1,1.72.6,24.549,24.549,0,0,1,3.225,1.774l.6.367a18.6,18.6,0,0,0,4.34,2.081h.022a17.459,17.459,0,0,0,4.478.751v4.142Z" transform="translate(-1133.206 -1284.358)" fill="#fff"/><path d="M1142.416,1302.777h1.026a1.027,1.027,0,1,0,0-2.054h-1.026a1.027,1.027,0,1,0,0,2.054Z" transform="translate(-1133.17 -1284.286)" fill="#fff"/><circle cx="1.027" cy="1.027" r="1.027" transform="translate(7.191 32.873)" fill="#fff"/><circle cx="1.027" cy="1.027" r="1.027" transform="translate(13.355 32.873)" fill="#fff"/><circle cx="1.027" cy="1.027" r="1.027" transform="translate(16.437 35.955)" fill="#fff"/><circle cx="1.027" cy="1.027" r="1.027" transform="translate(19.519 32.873)" fill="#fff"/><circle cx="1.027" cy="1.027" r="1.027" transform="translate(22.6 35.955)" fill="#fff"/><circle cx="1.027" cy="1.027" r="1.027" transform="translate(25.682 32.873)" fill="#fff"/><circle cx="1.027" cy="1.027" r="1.027" transform="translate(31.846 32.873)" fill="#fff"/><circle cx="1.027" cy="1.027" r="1.027" transform="translate(48.282 32.873)" fill="#fff"/><circle cx="1.027" cy="1.027" r="1.027" transform="translate(54.446 32.873)" fill="#fff"/></g><g transform="translate(693.329 50.173)"><path d="M980.52,1309.91a1.211,1.211,0,0,0-1.248.074l-10.988,7.567v-6.571a1.209,1.209,0,0,0-1.9-1l-10.985,7.567v-6.571a1.209,1.209,0,0,0-1.9-1l-10.984,7.567V1313.2a1.209,1.209,0,0,0-1.209-1.209h-2.25v-12.084a3,3,0,0,0-3-3h-3.974v-3.47a9.607,9.607,0,0,0,1.78.172,8.063,8.063,0,0,0,4.065-1.059,8.835,8.835,0,0,0,4.118-6.226,1.209,1.209,0,0,0-.786-1.363,8.843,8.843,0,0,0-7.457.452,8.057,8.057,0,0,0-2.928,2.959,8.049,8.049,0,0,0-2.928-2.959,8.837,8.837,0,0,0-7.453-.452,1.211,1.211,0,0,0-.787,1.363,8.835,8.835,0,0,0,4.118,6.227,8.062,8.062,0,0,0,4.063,1.058,9.605,9.605,0,0,0,1.779-.172v3.47H925.7a3.006,3.006,0,0,0-3,3V1312h-2.246a1.209,1.209,0,0,0-1.209,1.209v31.018a1.209,1.209,0,0,0,1.209,1.209h59.5a1.209,1.209,0,0,0,1.209-1.209v-33.242a1.21,1.21,0,0,0-.647-1.071Zm-45.5-22.4a2.4,2.4,0,1,1-2.681,3.513A6.107,6.107,0,0,1,935.021,1287.511Zm-9.979,2.949a2.395,2.395,0,1,1,4.384.564A6.111,6.111,0,0,1,925.041,1290.459Zm.662,8.87h10.363a.588.588,0,0,1,.58.582v2.749H925.12v-2.749a.583.583,0,0,1,.584-.582Zm-.584,5.75h11.527V1312H925.12Zm8.921,37.934h-6.313V1330.9a.029.029,0,0,1,.025-.027h6.259a.032.032,0,0,1,.028.027Zm6.065,0H936.46V1330.9a2.45,2.45,0,0,0-2.448-2.447h-6.259a2.448,2.448,0,0,0-2.444,2.447v12.112h-3.646v-28.6h18.442Zm38.642-6.031h-13a1.209,1.209,0,0,0,0,2.418h13v3.613H942.524V1339.4H954.88a1.209,1.209,0,1,0,0-2.418H942.524v-16.493l10.461-7.206v6.571a1.21,1.21,0,0,0,1.9,1l10.984-7.567v6.571a1.21,1.21,0,0,0,1.9,1l10.988-7.568Z" transform="translate(-919.245 -1284.358)" fill="#fff"/><path d="M952.457,1324.712H946.07a1.209,1.209,0,0,0-1.209,1.209v6.388a1.209,1.209,0,0,0,1.209,1.209h6.387a1.21,1.21,0,0,0,1.21-1.209v-6.388A1.21,1.21,0,0,0,952.457,1324.712Zm-1.209,6.388h-3.967v-3.969h3.967Z" transform="translate(-919.133 -1284.181)" fill="#fff"/><path d="M963.667,1324.712H957.28a1.209,1.209,0,0,0-1.209,1.209v6.388a1.209,1.209,0,0,0,1.209,1.209h6.387a1.209,1.209,0,0,0,1.209-1.209v-6.388a1.209,1.209,0,0,0-1.209-1.209Zm-1.21,6.388H958.49v-3.969h3.967Z" transform="translate(-919.084 -1284.181)" fill="#fff"/><path d="M967.28,1332.309a1.209,1.209,0,0,0,1.209,1.209h6.387a1.209,1.209,0,0,0,1.209-1.209v-6.388a1.21,1.21,0,0,0-1.209-1.21h-6.387a1.21,1.21,0,0,0-1.209,1.21Zm2.418-5.178h3.968v3.969H969.7Z" transform="translate(-919.035 -1284.181)" fill="#fff"/><path d="M960.14,1336.753a1.209,1.209,0,0,0,0,2.418h0a1.209,1.209,0,1,0,0-2.418Z" transform="translate(-919.071 -1284.129)" fill="#fff"/></g><g transform="translate(480.083 49.387)"><rect width="2.029" height="2.029" transform="translate(14.206 55.809)" fill="#fff"/><path d="M744.471,1327.088h-17.25v-15.22a1.015,1.015,0,0,0-1.014-1.015H707.942a1.015,1.015,0,0,0-1.014,1.015v32.469a1.015,1.015,0,0,0,1.014,1.015h36.529a1.015,1.015,0,0,0,1.014-1.015V1328.1A1.014,1.014,0,0,0,744.471,1327.088Zm-11.162,2.029h4.059v4.059H733.31Zm-18.265-16.235H719.1v4.059h-4.059Zm-6.089,0h4.059v5.073a1.016,1.016,0,0,0,1.015,1.016h6.087a1.016,1.016,0,0,0,1.016-1.016v-5.073h4.059v14.206H708.957Zm6.089,16.235H719.1v4.059h-4.059Zm-6.089,0h4.059v5.074a1.015,1.015,0,0,0,1.015,1.014h6.087a1.015,1.015,0,0,0,1.016-1.014v-5.074h4.059v14.206H708.957Zm34.5,14.206H727.221v-14.206h4.059v5.074a1.015,1.015,0,0,0,1.015,1.014h6.087a1.015,1.015,0,0,0,1.015-1.014v-5.074h4.059Z" transform="translate(-706.928 -1283.455)" fill="#fff"/><rect width="2.029" height="2.029" transform="translate(32.47 55.809)" fill="#fff"/><rect width="2.029" height="2.029" transform="translate(14.206 39.574)" fill="#fff"/><path d="M766.557,1296.737a.956.956,0,0,0,.238.028,1.017,1.017,0,0,0,.879-.505,1.048,1.048,0,0,0,.136-.532v-4.036a1.014,1.014,0,0,0-.776-.986l-29.426-7.1a1,1,0,0,0-.476,0l-29.426,7.1a1.014,1.014,0,0,0-.776.986v4.031a1.052,1.052,0,0,0,.174.6,1.016,1.016,0,0,0,1.079.417l1.792-.432v12.637H712v-13.127l25.367-6.124,25.367,6.124v47.626h-6.088v-39.573a1.014,1.014,0,0,0-1.014-1.014H719.1a1.014,1.014,0,0,0-1.014,1.014v4.06a1.015,1.015,0,0,0,1.014,1.014h35.515v2.029H729.251V1313h25.367v2.029H729.251v2.03h25.367v2.03H729.251v2.029h25.367v22.323h-7.1v2.03h20.293v-2.03h-3.044v-47.136Zm-46.438,10.175v-2.029h34.5v2.029Zm17.25-19.279a1,1,0,0,0-.238.028l-28.174,6.8v-1.971l28.412-6.859,28.412,6.859v1.971l-28.174-6.8A1,1,0,0,0,737.369,1287.634Z" transform="translate(-706.928 -1283.574)" fill="#fff"/><path d="M739.288,1299.766a3.044,3.044,0,0,0,0-6.088h-4.06a3.044,3.044,0,0,0,0,6.088Zm-5.074-3.044a1.017,1.017,0,0,1,1.014-1.014h4.06a1.015,1.015,0,0,1,0,2.03h-4.06A1.017,1.017,0,0,1,734.214,1296.721Z" transform="translate(-706.817 -1283.53)" fill="#fff"/></g><g transform="translate(258.728 51.122)"><path d="M501.306,1332.793a3.7,3.7,0,1,0,3.705,3.705A3.7,3.7,0,0,0,501.306,1332.793Zm0,4.94a1.235,1.235,0,1,1,1.235-1.234A1.234,1.234,0,0,1,501.306,1337.733Z" transform="translate(-486.488 -1285.094)" fill="#fff"/><path d="M548.027,1332.793a3.7,3.7,0,1,0,3.7,3.705A3.706,3.706,0,0,0,548.027,1332.793Zm0,4.94a1.235,1.235,0,1,1,1.234-1.234A1.235,1.235,0,0,1,548.027,1337.733Z" transform="translate(-486.283 -1285.094)" fill="#fff"/><path d="M562.9,1316.279l-11.114-17.287a1.235,1.235,0,0,0-1.039-.568H535.931v-8.8a4.328,4.328,0,0,0-4.322-4.322H490.858a4.328,4.328,0,0,0-4.322,4.322v47.082a1.235,1.235,0,0,0,1.235,1.234H492.8a8.643,8.643,0,0,0,17.108,0h29.816a8.643,8.643,0,0,0,17.11,0h5.029a1.235,1.235,0,0,0,1.235-1.234v-19.758A1.243,1.243,0,0,0,562.9,1316.279Zm-61.548,26.6a6.174,6.174,0,1,1,6.175-6.174A6.174,6.174,0,0,1,501.355,1342.88Zm32.107-7.409H509.909a8.643,8.643,0,0,0-17.108,0h-3.795v-12.349h44.456Zm0-14.818H489.006v-31.028a1.854,1.854,0,0,1,1.852-1.852h40.751a1.854,1.854,0,0,1,1.852,1.852Zm19-16.053,7.145,11.113H542.1V1304.6Zm-4.177,38.281a6.174,6.174,0,1,1,6.174-6.174A6.175,6.175,0,0,1,548.28,1342.88Zm12.349-17.288h-2.47a1.235,1.235,0,1,1,0-2.47h2.47Zm0-4.94h-2.47a3.7,3.7,0,1,0,0,7.409h2.47v7.409h-3.794a8.643,8.643,0,0,0-17.109,0h-3.795v-34.576h14.144l.8,1.235h-10a1.235,1.235,0,0,0-1.235,1.234v13.584a1.235,1.235,0,0,0,1.235,1.234h19.758Z" transform="translate(-486.536 -1285.302)" fill="#fff"/><path d="M544.344,1320.5h-3.7a1.235,1.235,0,1,0,0,2.47h3.7a1.235,1.235,0,1,0,0-2.47Z" transform="translate(-486.305 -1285.148)" fill="#fff"/><path d="M518.508,1327.886h9.879a1.235,1.235,0,0,0,0-2.47h-9.879a1.235,1.235,0,1,0,0,2.47Z" transform="translate(-486.402 -1285.127)" fill="#fff"/><path d="M528.36,1329.1h-3.705a1.235,1.235,0,0,0,0,2.47h3.705a1.235,1.235,0,0,0,0-2.47Z" transform="translate(-486.375 -1285.11)" fill="#fff"/></g></g></g></svg>