<svg xmlns="http://www.w3.org/2000/svg" xmlns:xlink="http://www.w3.org/1999/xlink" width="254.228" height="188" viewBox="0 0 254.228 188"><defs><linearGradient id="a" y1="0.5" x2="1" y2="0.5" gradientUnits="objectBoundingBox"><stop offset="0" stop-color="#d1d8dc"/><stop offset="1" stop-color="#e8edef"/></linearGradient><linearGradient id="c" x1="0.913" y1="0.231" x2="-1.044" y2="1.379" gradientUnits="objectBoundingBox"><stop offset="0" stop-color="#d1d8dc"/><stop offset="0.399" stop-color="#8f9596"/><stop offset="1" stop-color="#9fa5a6"/></linearGradient></defs><g transform="translate(-945.772 -4449)"><g transform="translate(-718.184 1234.956)"><g opacity="0.15"><rect width="254.228" height="188" transform="translate(1663.956 3214.044)" fill="#69d1ff"/><rect width="253.228" height="187" transform="translate(1664.456 3214.544)" fill="#69d1ff"/></g><path d="M1664.456,3402.044l129.14-63.76,124.088,63.76H1664.456" fill="#b0ccd6" opacity="0.27"/></g><g transform="translate(0 682)"><g transform="translate(-769.948 61.424)"><path d="M1778.22,3865.508s-3.8.965-4.2,2.213-1.475,1.986,0,3.915,51.856,37.313,51.856,37.313a29.6,29.6,0,0,0,23.426,2.723c13.491-3.934,70.833-21.635,70.833-21.635s6.815-1.816,4.467-4.993a26.185,26.185,0,0,0-5.072-5.145Z" transform="translate(-0.54 -26.346)" fill="#b2b2b2"/><path d="M1914.721,3754.211s10.667-.228,10.439,11.347-2.269,79.884-2.269,79.884,2.042,12.255-5.674,14.752-70.353,18.155-70.353,18.155a13.5,13.5,0,0,1-11.574,0c-6.127-2.95-57.417-36.312-57.417-36.312s-1.135.227-1.589-4.539,0-82.154,0-82.154-2.043-8.851,7.943-10.439,66.4-7.036,66.4-7.036,3.73-.454,12.128,2.27S1914.721,3754.211,1914.721,3754.211Z" transform="translate(-1.101 -0.891)" fill="url(#a)"/><path d="M1842.218,3738.9c-16.107,1.583-50.414,5.01-57.991,6.215-9.986,1.588-7.943,10.439-7.943,10.439s-.454,77.388,0,82.154,1.589,4.539,1.589,4.539,51.289,33.361,57.417,36.312a13.105,13.105,0,0,0,6.928,1.251Z" transform="translate(-1.101 -1.103)" fill="url(#a)"/><path d="M1779.718,3747.032l58.34,21.249,84.529-11.479a11.612,11.612,0,0,0-7.141-2.591s-43.573-11.348-51.97-14.071-12.128-2.27-12.128-2.27-56.41,5.447-66.4,7.036A10.832,10.832,0,0,0,1779.718,3747.032Z" transform="translate(-1.826 -0.891)" fill="#eef4f7"/><path d="M1871.767,3753.551l1.059-1.872s-1.059-3.178-10.149-2.553-11.041,1.362-7.082,4.425,14.278.8,14.278.8Z" transform="translate(-16.567 -3.125)" fill="#1c1c1c"/><path d="M1826.366,3887.831v7.558s13.163,12.653,19.4,14.178,36.122-7.1,36.122-7.1v-11.46l-22.123,5.9s-5.488,3.517-16.268-.908A147.037,147.037,0,0,1,1826.366,3887.831Z" transform="translate(-11.127 -30.797)" fill="#444"/><path d="M1774.506,3854s-.908,9.532,2.043,11.65,11.271,6.96,11.271,6.96l-.908-11.271Z" transform="translate(-0.761 -24.053)" fill="#444"/><path d="M1926.147,3881.807s.908,8.7-1.891,9.91-3.226,2.688-3.226,2.688l27.584-6.772s5.371-6.391,4.312-11.8Z" transform="translate(-30.002 -28.405)" fill="#444"/><path d="M1924.158,3783.952l-7.146,1.27,1.424-27.794,7.689-1a.787.787,0,0,0,.211-.059c.72-.321,2.391-1.193,2.37-2.384-.009-.434-.234-1.037-1.262-1.448-2.288-.916-70.028-18.395-72.91-19.139a.794.794,0,0,0-.269-.02l-82.01,8.365a.77.77,0,0,0-.511.272l-1.008,1.21a.767.767,0,0,0,.326,1.21l13.254,4.835-.243,27.358c-5.829-2.643-9.965-4.611-11-5.309a4.005,4.005,0,0,1,1.914-.364l.037-1.352c-.368-.007-2.246-.014-3.021.876a1.406,1.406,0,0,0-.328,1.191c.076.448.158.908,12.38,6.438l-.15,16.889c-5.859-3.08-9.964-5.349-10.838-6.087a.209.209,0,0,1,.039-.059,3,3,0,0,1,1.863-.434l.046-1.447c-.351-.007-2.151-.02-2.987.916a1.66,1.66,0,0,0-.4,1.386c.07.476.149,1,12.265,7.355l-.158,17.673c-5.8-3.421-9.841-5.926-10.635-6.71a.315.315,0,0,1,.085-.183,2.793,2.793,0,0,1,1.783-.448l.053-1.53a4.245,4.245,0,0,0-2.967.946,1.893,1.893,0,0,0-.469,1.568c.064.492.142,1.076,12.135,8.126l-.148,16.7c-5.739-3.743-9.707-6.47-10.439-7.3a.454.454,0,0,1,.123-.319,2.672,2.672,0,0,1,1.694-.454l.061-1.6a4.174,4.174,0,0,0-2.929.964,2.121,2.121,0,0,0-.533,1.745c.059.5.139,1.142,12.006,8.861l-.137,15.4,1.531.015.128-14.425c2.59,1.675,5.688,3.654,9.37,5.983l-.135,17.052,1.531.013.128-16.1c1.29.814,2.63,1.658,4.062,2.556,1.563.982,3.127,1.961,4.675,2.927l-.259,17.106,1.531.023.244-16.184c4,2.493,7.821,4.864,11.121,6.9l-.187,19.247,1.532.016.178-18.323c5.129,3.166,8.686,5.345,9.08,5.586a11.181,11.181,0,0,0,1.713,1.011l-.1,17.464,1.532.007.091-16.818a21.344,21.344,0,0,0,7.477,1.273,28.71,28.71,0,0,0,6.484-.775c1.361-.315,3.632-.867,6.554-1.589l-.351,17.89,1.531.03.359-18.3c4.325-1.072,9.81-2.447,15.8-3.957l-.444,18.139,1.531.037.455-18.565c8.824-2.226,18.589-4.7,27.271-6.908l-.661,17.558,1.53.058.678-18.009c4.792-1.219,9.2-2.341,12.876-3.278l-.861,16.825,1.529.078.885-17.3c5.426-1.383,8.912-2.274,9.063-2.312l.191-.076a4.313,4.313,0,0,0,2.008-2.349,2.348,2.348,0,0,0-.367-1.893c-1.324-1.982-2.588-2.022-2.833-2l.039,1.6c.005,0,.644.067,1.463,1.292a.734.734,0,0,1,.141.625,2.7,2.7,0,0,1-1.151,1.28l-8.469,2.16.931-18.181,8.846-2.041.172-.063a4.048,4.048,0,0,0,2.037-2.211,2.064,2.064,0,0,0-.393-1.743c-1.351-1.826-2.646-1.811-2.788-1.808l.04,1.53c.007,0,.675.049,1.517,1.187a.543.543,0,0,1,.135.477c-.107.457-.786.952-1.162,1.161-.591.137-3.681.851-8.322,1.92l.992-19.376,7.746-1.6.15-.049c.294-.133,1.775-.854,2.053-2.053a1.776,1.776,0,0,0-.42-1.583,3.563,3.563,0,0,0-2.724-1.6l.038,1.446c.029,0,.708.034,1.571,1.075.158.191.135.292.125.333-.078.345-.71.8-1.171,1.029l-7.293,1.5.943-18.411,7.522-1.337.126-.035c.3-.118,1.834-.763,2.078-1.868a1.5,1.5,0,0,0-.455-1.41,3.74,3.74,0,0,0-2.659-1.368l.035,1.35a2.6,2.6,0,0,1,1.648.953c.021.021.123.13.11.183C1925.294,3783.323,1924.688,3783.733,1924.158,3783.952Zm-8.693,1.544c-3.751.666-8.469,1.5-13.686,2.428l1.071-28.462,14.043-1.833Zm-109.387-28.291-.436,28.959c-3.139-1.366-6.232-2.72-9.19-4.022l.225-28.367Zm13.4,36.413c5.467,2.35,9.168,3.928,9.209,3.944a11.086,11.086,0,0,0,1.324.572l-.11,20.116a9.769,9.769,0,0,1-.877-.443c-3.062-1.512-6.349-3.143-9.735-4.83Zm-1.712,18.6c-3.59-1.791-7.271-3.635-10.909-5.468l.278-18.465c3.886,1.688,7.6,3.291,10.818,4.677Zm13.774-13.591a29.251,29.251,0,0,0,7.845.987,40.726,40.726,0,0,0,6.483-.54c1.448-.234,3.921-.653,7.107-1.2l-.394,20.088c-3.309.661-5.869,1.165-7.351,1.442a27.549,27.549,0,0,1-13.8-.561Zm22.971-1.02c4.438-.767,10.023-1.743,16.091-2.809l-.48,19.617c-6.017,1.225-11.564,2.349-16,3.238Zm.027-1.375.6-30.539,16.229-2.119-.73,29.847C1864.585,3794.484,1859,3795.46,1854.543,3796.232Zm-1.536.265c-3.307.57-5.865,1-7.35,1.244a31.87,31.87,0,0,1-14.1-.539l.167-30.643,4.249,1.55a.77.77,0,0,0,.263.046.916.916,0,0,0,.1-.006l17.276-2.256Zm-22.983.181c-.464-.187-.72-.319-.743-.331-3.078-1.311-6.381-2.725-9.784-4.188l.292-29.952,10.4,3.8Zm-12.051-5.176c-3.557-1.531-7.2-3.107-10.81-4.676l.438-29.065,10.662,3.889Zm-17.477-6.112c1.715.749,3.431,1.5,5.123,2.234l-.277,18.359c-3.09-1.559-6.133-3.1-9.044-4.587l.142-17.785C1797.73,3784.178,1799.068,3784.765,1800.5,3785.39Zm-.21,19.653c1.684.853,3.369,1.7,5.032,2.543l-.286,18.947c-3.04-1.719-6.032-3.419-8.893-5.054l.147-18.469C1797.559,3803.658,1798.878,3804.329,1800.286,3805.043Zm6.552,3.308c3.928,1.976,7.678,3.852,10.918,5.469l-.192,19.755c-3.628-2.027-7.343-4.114-11.013-6.185Zm12.441,6.229c5.377,2.679,9.006,4.47,9.043,4.487a10.926,10.926,0,0,0,1.576.769l-.112,20.559a7.175,7.175,0,0,1-.634-.369l-.072-.045c-3.141-1.737-6.517-3.613-9.994-5.554Zm12.147,5.8a25.69,25.69,0,0,0,7.6,1.072,35.273,35.273,0,0,0,6.47-.625c1.439-.269,3.894-.752,7.057-1.383l-.408,20.794c-3.106.695-5.519,1.226-6.939,1.522-6.658,1.395-11.366.291-13.9-.683Zm22.667-1.244c4.413-.885,9.964-2.008,16-3.236l-.5,20.391c-6,1.368-11.524,2.62-15.9,3.6Zm17.536-3.549c9.041-1.842,19.012-3.883,27.788-5.684l-.742,19.726c-8.732,2.007-18.6,4.271-27.544,6.31Zm.037-1.484.479-19.573c9.124-1.6,19.19-3.383,28.038-4.95l-.709,18.835C1890.718,3810.21,1880.739,3812.254,1871.667,3814.1Zm.513-20.952.728-29.777,28.4-3.709-1.074,28.534C1891.4,3789.762,1881.331,3791.542,1872.179,3793.15Zm-99.458-49.918,10.417-1.063v1.729a.765.765,0,0,0,1.531,0v-1.885l13.862-1.414v2.031a.765.765,0,0,0,1.531,0v-2.187l25.8-2.631v2.25a.765.765,0,1,0,1.531,0v-2.407l12.962-1.323v2.128a.765.765,0,0,0,1.531,0v-2.284l12.4-1.265,3.915,1.011v2.539a.765.765,0,0,0,1.531,0v-2.144l9.626,2.489v2.907a.765.765,0,0,0,1.531,0v-2.51c3.461.9,7.034,1.822,10.623,2.754,0,0,0,.009,0,.014v3.058a.765.765,0,0,0,1.531,0v-2.674c3.819.992,7.638,1.985,11.344,2.952v3.157a.766.766,0,0,0,1.532,0v-2.758c4.238,1.105,8.3,2.168,12.009,3.142v3.183a.765.765,0,0,0,1.531,0v-2.78c9.767,2.567,16.762,4.44,17.423,4.7a1.768,1.768,0,0,1,.229.109,4.69,4.69,0,0,1-1.293.857l-89.494,11.686-63.709-23.241Zm13.121,6.591,9.308,3.4-.224,28.25c-3.358-1.482-6.509-2.885-9.329-4.156Zm-.258,28.971c2.59,1.165,5.677,2.538,9.33,4.146l-.14,17.677c-3.367-1.722-6.524-3.351-9.341-4.824Zm-.166,18.627c2.59,1.351,5.681,2.944,9.342,4.813l-.146,18.373c-3.378-1.936-6.54-3.765-9.354-5.414Zm-.323,36.339.15-16.8c2.589,1.513,5.685,3.3,9.356,5.4l-.138,17.4C1791.076,3837.61,1787.908,3835.583,1785.1,3833.76Zm10.891,6.961.139-17.491c1.305.745,2.661,1.517,4.11,2.339,1.6.906,3.193,1.81,4.771,2.7l-.271,17.95C1801.744,3844.35,1798.8,3842.5,1795.987,3840.721Zm10.266,6.447.272-18.041c3.957,2.232,7.743,4.355,11.022,6.186l-.182,18.757C1813.7,3851.808,1809.953,3849.479,1806.253,3847.168Zm22.643,14-.076-.053c-3.122-1.909-6.477-3.972-9.933-6.105l.183-18.845c5.224,2.916,8.848,4.923,9.236,5.137a10.812,10.812,0,0,0,1.472.8l-.107,19.547A8.027,8.027,0,0,1,1828.9,3861.169Zm15.892,1.893c-6.442,1.494-11.047.374-13.59-.673l.107-19.662a23.242,23.242,0,0,0,7.725,1.234,31.672,31.672,0,0,0,6.495-.7c1.368-.287,3.654-.789,6.594-1.445l-.383,19.564C1848.623,3862.146,1846.207,3862.733,1844.788,3863.062Zm8.487-2.066.383-19.527c4.35-.975,9.867-2.227,15.9-3.6l-.469,19.166C1863.119,3858.538,1857.633,3859.913,1853.274,3861Zm17.352-4.35.468-19.128c8.907-2.031,18.766-4.292,27.523-6.305l-.7,18.518C1889.263,3851.93,1879.49,3854.41,1870.626,3856.645Zm41.739-10.591c-3.654.931-8.075,2.057-12.9,3.283l.7-18.48c4.9-1.128,9.407-2.165,13.136-3.024Zm1.014-19.81c-3.708.855-8.223,1.894-13.158,3.029l.742-19.687c5.073-1.042,9.685-1.989,13.41-2.756Zm1.07-20.907c-3.7.762-8.327,1.713-13.431,2.761l.708-18.791c5.19-.919,9.9-1.754,13.668-2.424Z" fill="#b2b2b2"/><path d="M1853.65,3751.484v4.483s9.531,4.992,19.176,0v-3.8S1860.571,3755.626,1853.65,3751.484Z" transform="translate(-16.567 -3.612)" fill="#444"/><path d="M1874.269,3810.845l-.858,43.8,46.516-10.61,1.562-41.49Z" transform="translate(-20.507 -13.792)" fill="url(#c)"/><path d="M1878.665,3816.2v3.909l19.177-3.228v-3.745Z" transform="translate(-21.555 -15.904)" fill="#8f9596"/></g></g></g></svg>